<svg xmlns="http://www.w3.org/2000/svg" width="74" height="64" viewBox="0 0 74 64" fill="none">
  <path d="M18.4272 21.3635C18.4641 21.0436 18.5019 20.7722 18.5024 20.5006C18.5074 17.3923 18.5136 14.284 18.4999 11.1757C18.4979 10.7338 18.6321 10.4937 19.0356 10.2613C24.843 6.9162 30.6375 3.54851 36.4286 0.174803C36.833 -0.0608074 37.1648 -0.0561358 37.5648 0.176084C43.2094 3.45294 48.8527 6.73249 54.5185 9.97228C55.251 10.3912 55.5244 10.8492 55.5109 11.7068C55.4608 14.8726 55.5043 18.0398 55.522 21.26C55.6663 21.5447 55.7763 21.7804 55.7755 22.0604C55.7719 23.3269 55.8063 24.5935 55.7463 25.9107C55.8116 27.6362 55.7248 29.3137 55.7986 30.9859C55.8386 31.8901 55.52 32.3824 54.7274 32.8283C51.3811 34.7105 48.0561 36.6321 44.7487 38.5836C43.8256 39.1282 42.9009 39.6714 41.9634 40.1916C41.741 40.315 41.5272 40.4502 41.3122 40.664C40.7985 40.945 40.3315 41.2163 39.8588 41.4767C38.966 41.9686 38.1629 42.651 37.0647 42.8114C36.1821 42.7831 35.5822 42.2128 34.8914 41.857C34.1978 41.4997 33.5798 41.0066 32.8256 40.6668C28.2765 37.9704 23.7209 35.3679 19.1702 32.7573C18.4759 32.359 18.1553 31.9099 18.2067 31.0867C18.3038 29.5322 18.1331 27.9693 18.292 26.413C18.3086 26.2508 18.2075 26.1225 18.1338 25.936C18.3078 24.739 18.1891 23.5864 18.2201 22.4378C18.2296 22.0834 18.2315 21.7324 18.4272 21.3635Z" fill="#940547"/>
  <path d="M36.934 42.673C38.3813 42.0582 39.6202 41.1728 40.9973 40.4662C41.4059 40.4293 41.372 40.7144 41.379 40.9359C41.4009 41.6202 41.3874 42.3052 41.3878 42.9898C41.389 45.2396 41.4124 47.4898 41.3756 49.739C41.362 50.5722 41.6946 51.0668 42.4021 51.4698C46.3171 53.7001 50.2123 55.9654 54.0994 58.2446C54.2005 58.3038 54.311 58.3495 54.4043 58.4184C55.1464 58.9659 55.8281 58.8604 56.6112 58.402C60.6178 56.057 64.647 53.7506 68.6614 51.4188C69.3081 51.0432 69.5995 50.5777 69.5963 49.818C69.5762 45.1034 69.5745 40.3885 69.5973 35.6738C69.6012 34.8748 69.3181 34.3606 68.6266 33.9668C65.4741 32.1716 62.3397 30.3443 59.2059 28.5164C58.145 27.8976 57.0446 27.3451 56.0286 26.6479C55.8357 26.5156 55.6733 26.3646 55.5202 26.1371C55.5047 24.5389 55.5086 22.9807 55.5216 21.3679C59.31 23.5003 63.0884 25.6887 66.8689 27.8735C69.0115 29.1118 71.1513 30.3551 73.3061 31.5716C73.8078 31.8548 74.0019 32.2032 74.0003 32.7879C73.9824 39.4174 73.9848 46.047 73.9977 52.6765C73.9988 53.2068 73.8301 53.5208 73.3555 53.7926C68.5355 56.5518 63.7292 59.3351 58.921 62.1153C57.9759 62.6618 57.0319 63.2111 56.1025 63.7837C55.6884 64.0388 55.3336 64.0369 54.9104 63.7898C51.1056 61.5678 47.2923 59.3604 43.4807 57.15C41.559 56.0355 39.6373 54.9208 37.7113 53.8136C37.477 53.6789 37.2164 53.5906 36.9251 53.4716C36.6608 53.2899 36.7138 53.0388 36.7132 52.8136C36.7055 49.6797 36.7042 46.5457 36.714 43.4119C36.7147 43.1692 36.6672 42.9019 36.934 42.673Z" fill="#501350"/>
  <path d="M36.9357 42.618C36.9746 45.9058 36.9757 49.1766 36.9707 52.4474C36.9702 52.7567 36.9318 53.0658 36.8961 53.4187C30.8921 56.9301 24.9004 60.3935 18.9196 63.8757C18.5369 64.0985 18.2796 63.9889 17.9628 63.8051C13.7476 61.3599 9.52917 58.9204 5.31138 56.4797C3.70819 55.552 2.10857 54.6179 0.498055 53.7031C0.161057 53.5117 -0.000423806 53.3008 0.000425996 52.884C0.0142339 46.1159 0.0149337 39.3478 4.6547e-06 32.5797C-0.00100579 32.122 0.162439 31.8918 0.546095 31.6708C6.40844 28.2938 12.2614 24.9005 18.1162 21.5103C18.2006 21.4615 18.2805 21.405 18.4022 21.3336C18.5759 22.8436 18.5013 24.3739 18.4739 25.9577C18.3411 26.4183 18.0195 26.6332 17.6759 26.8297C14.7464 28.5043 11.8386 30.2167 8.90935 31.8918C7.62267 32.6276 6.36071 33.4071 5.0621 34.1224C4.55186 34.4034 4.29875 34.8124 4.29844 35.4036C4.29592 40.2742 4.29619 45.1447 4.29834 50.0153C4.2986 50.6066 4.55629 50.9872 5.06761 51.2847C8.9626 53.5503 12.8601 55.8118 16.7722 58.0473C18.6612 59.1268 18.2561 59.1697 20.128 58.0952C23.9683 55.8908 27.7995 53.6706 31.6339 51.4561C32.3454 51.0452 32.635 50.5272 32.625 49.7043C32.591 46.888 32.607 44.071 32.619 41.2543C32.6202 40.9856 32.4909 40.6556 32.8725 40.458C33.6912 40.6369 34.2781 41.1801 34.9664 41.5295C35.6219 41.8624 36.2538 42.242 36.9357 42.618Z" fill="#6A4994"/>
  <path d="M22.6326 23.7562C22.6015 23.4819 22.5694 23.2488 22.5692 23.0157C22.5665 19.8671 22.5771 16.7185 22.5596 13.57C22.557 13.103 22.6953 12.8341 23.1116 12.5953C27.1859 10.2585 31.247 7.89837 35.3113 5.54413C35.6991 5.31952 36.0974 5.10949 36.4662 4.85671C36.8161 4.61699 37.1122 4.61763 37.4854 4.83471C41.7981 7.34363 46.1115 9.85168 50.4465 12.3215C51.1501 12.7224 51.4625 13.1608 51.4466 14.0071C51.3868 17.1933 51.4095 20.3811 51.3921 23.6229C51.1257 24.1713 50.6804 24.4548 50.2192 24.7171C46.7196 26.7076 43.2472 28.7457 39.7568 30.7519C38.8853 31.2528 38.0649 31.8604 37.0601 32.1993C36.7679 32.2298 36.5668 32.1138 36.3635 31.9937C33.0301 30.0244 29.6595 28.1196 26.3165 26.1671C25.3589 25.6078 24.4022 25.0468 23.4406 24.4945C23.1255 24.3135 22.8456 24.105 22.6326 23.7562Z" fill="#F7FFF1"/>
  <path d="M22.6095 23.7749C24.174 24.603 25.733 25.4839 27.2832 26.38C30.2827 28.1138 33.2774 29.8558 36.2737 31.5951C36.4914 31.7214 36.7063 31.8526 36.9576 32.0015C37.2612 32.128 37.2782 32.3654 37.2819 32.6012C37.3051 34.1129 37.2944 35.6247 37.2849 37.1365C37.2836 37.3491 37.2355 37.572 37.0178 37.7714C36.21 37.6702 35.6281 37.1619 34.9732 36.8037C34.2963 36.4335 33.6379 36.0295 32.9368 35.6153C32.8013 35.4875 32.7052 35.3701 32.6859 35.2304C32.5827 34.4833 32.024 34.1689 31.4461 33.8398C28.6745 32.262 25.9347 30.6287 23.1652 29.0472C22.9193 28.9068 22.7773 28.695 22.6233 28.436C22.542 26.8757 22.5795 25.3551 22.6095 23.7749Z" fill="#6B4893"/>
  <path d="M37.0155 37.8097C36.9762 35.9163 36.978 34.0228 36.9862 32.0754C40.0324 30.265 43.0743 28.5126 46.1108 26.7507C47.8477 25.7429 49.5758 24.7197 51.3454 23.6904C51.3898 25.2292 51.3966 26.7809 51.3978 28.384C51.2412 28.6743 51.048 28.862 50.8021 29.0102C47.9346 30.7371 45.0205 32.3833 42.1254 34.0623C41.7294 34.292 41.438 34.567 41.3804 35.0392C41.3597 35.2091 41.2859 35.3502 41.1285 35.4922C40.6216 36.0017 39.9782 36.2163 39.4076 36.5354C38.6308 36.9699 37.9314 37.5573 37.0155 37.8097Z" fill="#501350"/>
  <path d="M22.6083 28.4294C25.7299 30.1911 28.8284 32.0121 31.9656 33.7631C32.7134 34.1805 33.0801 34.6499 32.9044 35.5427C30.3912 34.1445 27.8806 32.6985 25.3697 31.2531C24.7129 30.8749 24.08 30.4418 23.391 30.1364C22.6017 29.7865 22.3945 29.2441 22.6083 28.4294Z" fill="#F7FFF1"/>
  <path d="M41.1369 35.5132C40.8751 34.5614 41.3816 34.1099 42.1735 33.6693C44.9125 32.145 47.6064 30.5392 50.315 28.9602C50.6353 28.7734 50.9485 28.5764 51.3479 28.4512C51.4974 29.6451 51.4842 29.6218 50.4528 30.2118C47.6827 31.7966 44.9259 33.4047 42.1611 34.9989C41.842 35.1829 41.5059 35.3372 41.1369 35.5132Z" fill="#F7FFF1"/>
</svg>