<svg width="332" height="335" viewBox="0 0 332 335" fill="none" xmlns="http://www.w3.org/2000/svg">
<path fill-rule="evenodd" clip-rule="evenodd" d="M63.758 131.427C63.4531 127.542 62.0269 121.323 56.9504 121.613C52.7146 121.856 49.0783 128.488 49.8626 132.362C50.4319 135.174 51.3467 133.577 52.1215 132.225C52.2228 132.048 52.3218 131.875 52.4173 131.718C53.3905 130.105 55.1523 128.155 57.2438 128.569C59.0443 128.925 59.8058 130.705 60.4978 132.323C60.6996 132.794 60.895 133.25 61.1082 133.655C62.7476 136.76 63.3164 133.757 63.6974 131.744C63.7179 131.635 63.7385 131.529 63.758 131.427ZM42.6879 142.816C39.0821 144.124 43.0062 148.512 44.7125 149.463C44.3818 150.417 42.8738 151.28 41.7391 151.93L41.7386 151.93C41.4289 152.108 41.1474 152.269 40.9246 152.412C39.5825 153.274 37.8681 153.799 36.2932 154.281L36.1053 154.339L35.9485 154.387C31.5049 155.754 27.186 155.953 22.5999 155.283C18.193 154.639 13.1467 153.204 10.3037 149.592C9.07393 148.03 7.94353 145.652 9.12316 143.696C9.67377 142.783 10.6436 142.31 11.6306 141.829C12.5487 141.381 13.4817 140.927 14.1045 140.103C14.3956 139.718 14.6083 139.268 14.8176 138.823C15.0093 138.417 15.1981 138.015 15.4433 137.675C15.5293 137.555 15.6029 137.449 15.6675 137.357C15.9012 137.023 16.0159 136.859 16.1722 136.79C16.3223 136.724 16.5106 136.746 16.8801 136.789C17.0478 136.808 17.2534 136.832 17.5091 136.854C20.0471 137.069 22.7533 137.232 25.2521 136.621C26.3237 136.359 27.3791 135.967 28.4292 135.577C29.2202 135.283 30.0079 134.99 30.7975 134.755C32.7481 134.173 34.5978 132.951 36.1063 131.633C39.5859 128.593 42.9923 125.289 46.2143 121.976C47.9833 120.157 49.4009 118.049 50.8209 115.939C51.9719 114.228 53.1243 112.515 54.4669 110.951C55.1518 110.153 55.8315 109.311 56.5212 108.456C59.2523 105.071 62.1363 101.496 66.1125 99.7565C68.3666 98.7709 68.8126 99.3827 69.66 100.545C69.888 100.858 70.1461 101.211 70.4763 101.584C71.7931 103.071 73.6195 102.818 75.3989 102.571C75.7784 102.518 76.1555 102.466 76.525 102.431C76.3462 102.838 76.1512 103.251 75.9538 103.669C75.1676 105.336 74.3407 107.088 74.3025 108.904C74.29 109.508 74.4501 110.077 74.6088 110.639C74.7599 111.176 74.909 111.706 74.9057 112.254C74.9009 112.997 74.4984 113.705 74.1036 114.402C73.9048 114.752 73.7079 115.099 73.5645 115.445C71.6368 120.091 71.1708 126.384 71.0987 131.373C70.95 141.692 74.0391 152.684 80.6092 160.775C81.9953 162.482 83.554 164.059 85.2962 165.407C85.6202 165.657 86.3444 166.026 87.165 166.443H87.1655C88.7428 167.245 90.6766 168.229 90.8109 168.906C91.1331 170.525 88.2295 170.697 86.4772 170.801H86.4768C86.0753 170.825 85.7345 170.845 85.5065 170.878C84.3226 171.051 83.1449 171.258 81.9676 171.465H81.9671H81.9667V171.466H81.9662C80.5872 171.708 79.2078 171.951 77.8189 172.138C67.5005 173.525 57.3146 174.634 46.9121 174.073C46.4934 174.051 45.9419 174.112 45.3578 174.177C44.3359 174.292 43.2131 174.417 42.5211 174.124C41.5015 173.692 41.5728 172.919 41.6588 171.985C41.6808 171.748 41.7037 171.501 41.7099 171.246C41.7683 168.866 41.5317 166.514 41.2946 164.157C41.21 163.314 41.1249 162.469 41.0532 161.623C40.8802 159.574 41.2138 159.357 42.2969 158.651C42.587 158.462 42.9311 158.238 43.3331 157.934C45.3028 156.447 47.2285 153.686 47.8714 151.32C49.0544 152.274 48.9205 152.944 48.747 153.808C48.6519 154.283 48.5453 154.816 48.6376 155.488C48.9559 157.8 50.5189 157.421 51.5498 155.874C53.1491 153.473 53.0076 149.679 51.513 147.28C50.1743 145.132 45.3975 141.834 42.6879 142.816ZM125.16 228.035C126.142 228.825 127.123 229.615 128.123 230.385C129.13 231.162 129.892 231.932 130.641 232.944C130.695 233.017 130.746 233.085 130.794 233.15C131.584 234.212 131.674 234.332 131.065 235.555C130.397 236.896 129.418 237.962 128.443 239.025C127.73 239.802 127.019 240.576 126.432 241.455C125.919 242.223 125.465 243.02 125.013 243.814L125.013 243.814C124.066 245.476 123.127 247.125 121.668 248.466C120.704 246.292 119.459 249.469 121.06 249.134C120.595 250.511 119.773 251.76 118.951 253.009C118.457 253.761 117.962 254.512 117.545 255.292C116.234 257.744 114.801 259.971 113.249 262.277L113.201 262.103C113.158 261.95 113.116 261.797 113.074 261.644L112.963 261.244C112.9 261.017 112.837 260.79 112.774 260.563C111.623 260.838 112.053 261.548 112.371 262.072C112.47 262.235 112.558 262.381 112.585 262.489C112.612 262.605 112.661 262.69 112.71 262.774C112.824 262.973 112.937 263.17 112.773 263.764C112.648 264.214 112.307 264.616 111.98 264.999C111.846 265.158 111.714 265.313 111.601 265.466C110.843 266.501 110.13 267.562 109.416 268.626C109.311 268.782 109.206 268.937 109.102 269.093C108.513 269.967 108.204 270.73 107.878 271.532C107.756 271.832 107.632 272.137 107.491 272.456C107.205 273.1 106.933 273.273 106.592 273.49C106.379 273.626 106.138 273.779 105.85 274.076C105.361 274.579 104.873 275.318 104.407 276.025C104.135 276.437 103.869 276.839 103.616 277.177C101.563 279.906 99.7193 283.032 98.3184 286.137C97.709 287.488 96.8644 288.656 96.0184 289.825C95.0113 291.217 94.0028 292.611 93.3901 294.318C93.0679 295.214 92.86 296.135 92.6521 297.056C92.4881 297.784 92.3237 298.511 92.1034 299.226C91.9232 299.81 91.6985 300.378 91.4739 300.945C91.1164 301.848 90.7593 302.751 90.582 303.715C90.4396 304.486 90.4357 305.33 90.4319 306.128C90.4295 306.677 90.4271 307.204 90.3798 307.67C90.3511 307.952 90.2952 308.279 90.235 308.635L90.2345 308.635C90.0945 309.458 89.9286 310.434 90.0094 311.353C90.2546 314.125 91.4046 316.531 92.7778 318.841C86.514 320.964 79.3876 321.561 72.816 321.407C69.4573 321.327 65.6298 321.296 62.3433 322.073C61.948 322.166 61.5718 322.265 61.2057 322.36C59.8124 322.724 58.5678 323.049 56.9867 322.925C55.6632 322.821 54.3407 322.704 53.0177 322.586C52.3471 322.527 51.677 322.467 51.0064 322.409C51.5149 321.385 53.0301 320.128 54.1165 319.226C54.2733 319.096 54.421 318.973 54.5558 318.86C54.8526 318.609 55.2431 318.451 55.6202 318.298C56.025 318.134 56.4146 317.975 56.6583 317.716C57.0636 317.284 57.2577 316.368 57.4107 315.646C57.4613 315.407 57.5072 315.189 57.555 315.018C59.0334 309.713 60.125 304.36 61.0508 298.934C62.6869 289.346 63.3212 279.584 63.9253 269.936C63.9449 269.621 64.0257 269.276 64.1065 268.931C64.203 268.517 64.3001 268.104 64.2905 267.744C64.279 267.306 64.2365 266.946 64.1959 266.604C64.138 266.116 64.084 265.663 64.1318 265.067C64.1567 264.758 64.3474 264.398 64.5347 264.045C64.7364 263.666 64.9334 263.294 64.9162 263.001C64.9033 262.777 64.725 262.73 64.5324 262.679C64.2943 262.615 64.0343 262.547 64.0348 262.133C64.0362 261.491 64.584 260.68 65.0945 259.926C65.4391 259.415 65.7665 258.931 65.896 258.542C65.9682 258.324 65.8434 258.062 65.7172 257.799C65.6126 257.581 65.5074 257.362 65.5141 257.164C65.5093 257.298 65.8726 255.662 65.8869 255.598C65.9338 255.395 66.0379 255.249 66.1417 255.105C66.286 254.903 66.4294 254.703 66.4165 254.347C66.4093 254.149 66.2961 253.929 66.1794 253.702C65.9854 253.323 65.7813 252.927 66.0423 252.585C66.1813 252.402 66.4992 252.451 66.8161 252.501C67.1487 252.552 67.48 252.603 67.5999 252.385C67.7524 252.108 67.4881 251.493 67.209 250.842C66.937 250.207 66.6507 249.539 66.7229 249.121C66.8495 248.393 67.1836 247.659 67.5201 246.92C67.8212 246.259 68.1243 245.594 68.2825 244.925C68.3312 244.717 68.3465 244.47 68.3618 244.214C68.3939 243.693 68.4278 243.134 68.7566 242.784C69.2226 242.287 69.6528 242.376 70.1595 242.481C70.5227 242.556 70.9247 242.638 71.4065 242.519C70.2292 241.52 70.0012 240.645 70.3487 239.186C70.6207 238.048 71.1622 236.784 72.4073 237.921C72.2214 236.221 72.2281 235.956 73.4971 234.668C73.7055 234.457 73.9196 234.196 74.14 233.928C74.5701 233.405 75.0251 232.851 75.5117 232.572C75.7345 232.338 75.9577 232.104 76.1804 231.87C76.482 232.185 76.8409 232.363 77.2563 232.404C77.9307 232.368 78.5411 232.313 79.1099 232.261C81.5422 232.041 83.2118 231.89 85.8611 233.62C86.2301 233.86 86.5986 234.086 86.9633 234.308C87.9613 234.916 88.9306 235.507 89.7986 236.365C90.3564 236.917 90.8683 237.51 91.3807 238.103C92.0819 238.914 92.7835 239.727 93.6018 240.432C94.0544 240.823 94.5051 241.193 94.9511 241.56C96.0652 242.476 97.1502 243.368 98.1582 244.487C98.3432 244.692 98.5272 244.901 98.7117 245.112C99.6925 246.23 100.696 247.374 102.013 248.04C102.122 246.314 101.262 244.757 100.426 243.243C100.354 243.113 100.283 242.984 100.213 242.855C100.105 242.659 99.3254 242.132 99.3426 242.19C99.2953 242.027 99.3613 241.874 99.4253 241.725C99.4894 241.577 99.551 241.434 99.4956 241.288C99.9573 241.705 100.424 242.191 100.9 242.688C101.823 243.649 102.782 244.646 103.806 245.252C106.156 246.641 105.359 244.229 104.845 242.672V242.671C104.804 242.549 104.766 242.432 104.73 242.323C103.352 238.037 100.854 233.929 97.9671 230.47C92.915 224.418 84.4874 217.662 76.4222 221.471C68.4287 225.246 64.2178 231.587 61.9241 240.021C59.2628 249.811 58.0406 259.165 57.7878 269.306C57.6425 275.112 57.0503 280.87 56.4399 286.644C56.265 288.3 56.1202 289.997 55.9739 291.708C55.6235 295.817 55.266 300.007 54.4635 303.912C53.7499 302.874 53.3293 302.09 52.9732 300.923C52.9106 300.719 52.9092 300.517 52.9077 300.315C52.9053 300.051 52.9034 299.788 52.7634 299.525C52.7051 299.415 52.5249 299.369 52.349 299.324C52.1812 299.28 52.0168 299.238 51.9642 299.143L51.862 298.958C50.9854 297.379 49.8191 295.277 49.4277 293.508C49.3431 293.126 49.3225 292.807 49.3029 292.506C49.2728 292.044 49.2456 291.626 48.9946 291.093C48.8149 290.712 48.6763 290.673 48.5645 290.642C48.434 290.606 48.3403 290.579 48.2605 290.03C48.2543 289.987 48.3102 289.935 48.3852 289.867C48.5573 289.708 48.8316 289.455 48.6916 288.995C48.3293 287.806 48.043 288.267 47.8203 288.627C47.7304 288.772 47.6506 288.9 47.5808 288.897C47.2763 288.884 47.5722 287.625 47.8336 286.514C48.0038 285.79 48.1596 285.128 48.1243 284.916C48.0674 284.577 47.9555 284.525 47.8423 284.473C47.7495 284.431 47.6558 284.388 47.5923 284.185C47.4661 283.777 47.3112 283.189 47.2161 282.624C47.0957 281.906 46.9121 281.389 46.7367 280.896C46.4915 280.206 46.2626 279.562 46.2454 278.476C46.2239 277.108 45.9074 276.037 45.5786 274.924C45.3664 274.207 45.1494 273.472 45.0031 272.629C44.9678 272.429 45.0619 272.216 45.1527 272.009C45.2412 271.808 45.3267 271.614 45.288 271.443C45.2053 271.074 45.028 270.737 44.8473 270.394C44.6752 270.067 44.4998 269.734 44.4009 269.362C44.1595 268.457 44.3297 267.621 44.4994 266.788C44.6279 266.155 44.7565 265.523 44.7054 264.862C44.7249 265.113 44.2293 263.733 44.1982 263.611C44.1017 263.231 44.0797 262.782 44.0577 262.329C44.0386 261.944 44.0195 261.557 43.9549 261.206C43.9224 261.032 43.8718 260.844 43.8197 260.649C43.6567 260.042 43.4765 259.37 43.7757 258.863C43.9091 258.637 44.1242 258.553 44.3502 258.465C44.583 258.373 44.8272 258.278 45.0065 258.019C44.7092 257.923 44.4941 257.873 44.3335 257.836C44.1414 257.791 44.0276 257.765 43.9444 257.7C43.8245 257.605 43.7681 257.428 43.6309 256.996C43.597 256.889 43.5578 256.766 43.5114 256.625C43.0635 255.257 43.02 254.11 44.5037 255.015C44.3842 254.721 44.2327 254.407 44.0759 254.082C43.7403 253.386 43.3828 252.645 43.2791 251.971C43.206 251.498 43.2629 251.032 43.3197 250.567C43.3709 250.145 43.4225 249.723 43.3771 249.295C43.3207 248.761 43.2404 248.273 43.1639 247.812C42.8972 246.195 42.6845 244.905 43.7494 243.089C42.4685 242.434 42.4914 240.624 42.512 239.004C42.5201 238.344 42.5282 237.715 42.4474 237.21C42.3925 236.866 42.3237 236.526 42.2553 236.191C41.9484 234.676 41.6645 233.276 42.8293 232.257C41.4184 231.244 41.6722 228.451 41.8658 226.322C41.9198 225.729 41.969 225.188 41.9762 224.751C41.9919 223.791 41.9628 222.824 41.9322 221.818C41.9016 220.813 41.8696 219.768 41.8811 218.653C41.8911 217.707 41.6932 216.982 41.4667 216.152C41.3916 215.877 41.3132 215.589 41.2382 215.279C41.0069 214.321 41.0537 213.496 41.101 212.657C41.1335 212.088 41.166 211.512 41.1125 210.884C41.0637 210.314 40.938 209.744 40.8109 209.165C40.6622 208.489 40.5112 207.802 40.4773 207.093C40.4534 206.597 40.4534 206.079 40.4538 205.555C40.4538 204.663 40.4543 203.758 40.3348 202.927C40.2808 202.551 40.2139 202.211 40.1489 201.879C40.0256 201.249 39.9075 200.648 39.8894 199.877C39.8865 199.744 39.8602 199.571 39.8325 199.39C39.7871 199.094 39.7383 198.777 39.7828 198.575C39.7828 198.576 39.7876 198.566 39.7966 198.546C39.8755 198.372 40.2689 197.503 40.266 197.953C40.2713 197.229 40.1341 196.511 39.9931 195.771C39.7694 194.604 39.5357 193.38 39.8354 191.988C40.1871 190.358 40.4892 190.383 41.8113 190.493H41.8118H41.8127C42.0058 190.509 42.2204 190.527 42.4604 190.542L42.7538 190.56C44.1423 190.646 45.5303 190.732 46.9217 190.737C47.467 190.739 48.3541 190.634 49.3775 190.512C51.9743 190.204 55.4496 189.791 56.4514 190.767C57.3046 191.598 57.1621 194.718 57.0608 196.944C57.0245 197.734 56.9939 198.411 57.0144 198.833C57.0847 200.279 56.352 201.171 55.5638 202.13C54.9243 202.909 54.2484 203.731 53.9368 204.931C52.6109 210.033 54.8014 216.768 60.7798 217.204C66.3563 217.611 71.7057 213.026 70.94 207.39C70.6326 205.128 69.5907 202.667 67.6238 201.343C66.7296 200.742 65.3626 200.636 64.0272 200.532C62.5216 200.416 61.0561 200.303 60.354 199.485C59.8985 198.954 59.9119 197.294 59.9219 196.081C59.9252 195.649 59.9281 195.273 59.9095 195.027C59.887 194.733 59.8406 194.376 59.7905 193.99C59.6064 192.581 59.3727 190.787 60.0796 190.279C61.0967 189.547 64.2374 189.533 65.3979 189.53L65.4969 189.53C67.1033 189.526 68.5731 189.522 70.1724 189.251C71.7387 188.986 73.303 188.84 74.8622 188.696V188.695C76.8983 188.506 78.9254 188.317 80.9352 187.864C84.4588 187.069 87.7142 186.239 91.0337 184.82C91.5599 188.356 92.7023 191.561 93.8609 194.813V194.813C94.2007 195.767 94.5419 196.724 94.8694 197.695C95.5519 199.719 96.6163 201.782 97.6616 203.642C97.7912 203.873 97.9274 204.164 98.0717 204.473V204.474C98.6807 205.777 99.4335 207.388 100.437 206.036C100.532 206.44 100.525 206.748 100.519 207.043C100.511 207.385 100.505 207.709 100.658 208.143C100.949 208.961 102.112 209.923 103.082 210.725V210.725C103.462 211.039 103.813 211.329 104.069 211.576C104.682 212.166 105.337 212.659 105.998 213.157L105.998 213.158C106.285 213.374 106.573 213.59 106.859 213.816C106.948 213.887 107.083 213.896 107.217 213.905C107.362 213.915 107.506 213.925 107.585 214.014C107.755 214.208 107.727 214.447 107.704 214.639C107.688 214.765 107.676 214.87 107.723 214.929C108.803 216.286 110.462 217.357 112.028 218.367C112.611 218.743 113.179 219.11 113.701 219.48C116.454 221.435 119.194 223.389 121.876 225.438C122.989 226.288 124.075 227.161 125.159 228.034H125.16V228.035ZM84.3149 156.471C86.3439 158.809 89.4865 162.378 92.6301 163.083C95.7048 163.773 100.531 162.816 103.275 161.305C103.154 160.616 103.83 159.42 104.459 158.304C104.843 157.625 105.209 156.976 105.369 156.489C105.524 156.018 105.55 155.653 105.576 155.287C105.594 155.022 105.614 154.757 105.681 154.451C105.737 154.2 105.838 154.068 105.93 153.947C106.06 153.778 106.172 153.631 106.116 153.207C106.021 152.475 105.492 152.075 104.975 151.683C104.579 151.384 104.19 151.09 104.008 150.657C103.932 150.479 104.016 149.843 104.085 149.319C104.122 149.039 104.155 148.791 104.156 148.663C104.172 147.636 104.081 146.982 103.561 146.1C102.737 144.702 101.497 143.567 100.276 142.449C99.6199 141.848 98.9689 141.252 98.3901 140.622C97.8844 140.072 97.5823 139.497 97.2659 138.895C97.1086 138.596 96.948 138.291 96.7573 137.979C96.5537 137.645 96.288 137.343 96.026 137.044C95.6752 136.645 95.3296 136.252 95.1461 135.799C94.9903 135.416 94.9454 134.959 94.8999 134.498C94.8584 134.08 94.8168 133.658 94.692 133.283C94.455 132.575 94.0884 131.938 93.7218 131.302C93.4455 130.823 93.1697 130.344 92.9489 129.834C91.8993 127.41 91.6283 124.525 91.3788 121.872C91.3544 121.614 91.3305 121.358 91.3061 121.105L91.158 121.14C87.9986 121.877 84.9616 122.586 83.2137 119.079C82.9881 118.626 82.946 117.702 82.9059 116.816C82.8638 115.886 82.8232 114.999 82.5756 114.74C82.2353 114.384 78.8283 114.609 78.4402 114.93C77.0427 116.086 77.0532 120.051 77.0603 122.623C77.0618 123.247 77.0632 123.789 77.0446 124.188C76.9867 125.411 76.8935 126.636 76.8003 127.863C76.6163 130.285 76.4318 132.712 76.5193 135.131C76.7793 142.311 79.5524 150.982 84.3149 156.471ZM139.464 202.98C139.96 205.465 140.459 207.962 141.117 210.399C141.394 211.424 141.522 212.435 141.65 213.446C141.814 214.743 141.979 216.039 142.456 217.363C142.41 217.665 142.382 218.012 142.351 218.378C142.237 219.783 142.1 221.472 140.822 221.97C139.365 222.537 138.418 221.152 137.876 219.953C136.919 217.828 136.79 215.238 136.666 212.724C136.6 211.402 136.536 210.101 136.352 208.9C135.996 206.573 135.83 204.266 135.663 201.955C135.535 200.18 135.407 198.403 135.193 196.613C135.066 195.554 134.851 194.413 134.63 193.241C134.094 190.393 133.521 187.354 134.087 184.82C134.629 184.806 135.633 188.125 136.287 190.288C136.517 191.049 136.704 191.668 136.812 191.947C137.751 194.367 138.232 196.804 138.727 199.314C138.831 199.842 138.936 200.374 139.046 200.909C139.187 201.597 139.325 202.288 139.464 202.98Z" fill="#794228"/>
<path fill-rule="evenodd" clip-rule="evenodd" d="M312.31 319.794C310.102 320.479 308.031 321.489 305.903 322.391C303.487 323.416 301.8 323.595 299.162 323.591C288.949 323.576 278.841 324.1 268.609 324.306C265.814 324.363 262.977 324.391 260.182 324.34C259.054 324.319 257.947 324.191 256.824 324.099C256.098 324.039 252.935 324.474 252.513 324.219C251.326 323.506 252.031 318.91 251.887 317.437C251.636 314.88 250.989 312.416 250.087 310.013C246.861 301.417 241.435 293.03 234.575 286.895C243.851 283 253.97 277.863 264.264 280.174C268.185 281.054 273.381 282.206 275.4 285.999C277.555 290.049 279.443 294.501 281.906 298.378C284.659 302.711 287.582 306.423 291.568 309.673C293.141 310.955 301.066 318.833 299.862 312.752C299.476 310.801 298.049 308.988 296.91 307.396C296.331 306.585 293.207 303.929 293.693 302.99C294.239 301.938 299.872 301.196 301.079 300.861C303.573 300.17 306.053 299.432 308.537 298.706C307.639 300.399 302.753 306.805 305.875 308.442C307.022 309.044 309.988 306.913 311.246 306.539C313.387 305.901 315.344 306.321 317.449 306.952C317.395 307.985 315.365 307.999 314.69 308.705C313.703 309.738 313.01 312.523 313.784 313.76C315.225 316.066 320.805 313.713 323.3 314.588C320.496 317.482 316.095 318.619 312.31 319.794ZM172.943 224.621C172.972 224.681 172.919 224.764 172.583 225.055C172.481 224.688 172.299 224.607 172.075 224.708C172.255 224.512 172.403 224.409 172.583 225.055C172.725 224.933 172.842 224.781 172.943 224.621ZM173.796 223.408C173.729 223.629 173.576 223.733 173.344 223.727C173.356 223.689 173.368 223.653 173.377 223.624C173.531 223.142 173.737 223.224 173.668 222.335C173.761 222.484 173.831 222.633 173.78 222.783C173.927 223.009 173.932 223.217 173.796 223.408ZM148.97 265.124C149.205 264.555 149.268 263.894 149.572 263.371C149.274 263.902 149.269 264.556 148.97 265.124ZM244.93 323.857C241.233 323.71 237.63 323.775 233.934 323.936C226.036 324.28 218.103 324.331 210.221 324.964C206.365 325.274 202.658 325.392 198.791 325.263C195.409 325.149 192.016 325.27 188.645 324.986C184.943 324.675 181.478 323.652 177.742 323.596C174.171 323.543 169.918 323.13 166.453 323.652C165.855 323.742 165.533 324.123 164.827 324.215C163.852 324.342 162.48 323.945 161.482 323.877C159.73 323.759 157.794 323.953 156.084 323.545C155.497 323.405 155.086 323.189 154.517 322.96C154.003 322.753 152.851 322.593 152.569 322.519C154.198 321.912 150.584 320.674 150.293 320.607C150.22 320.853 150.382 321.199 150.649 321.533C149.724 320.824 150.715 321.086 149.203 320.367C148.567 320.065 147.365 319.87 146.652 319.79C145.966 319.713 145.596 319.794 145.284 319.776C145.347 319.707 145.409 319.613 145.469 319.488C145.974 318.447 144.436 317.258 143.572 317.958C143.672 318.161 143.834 318.537 144.03 318.906C144.021 318.896 144.014 318.889 144.005 318.878C143.685 318.508 143.082 317.562 142.482 316.925C143.243 316.506 142.313 315.935 141.962 315.349C141.722 315.481 141.456 315.593 141.318 315.777C141.518 315.359 142.013 314.982 141.722 314.171C141.64 313.939 141.42 313.59 141.145 313.344C141.406 313.548 141.678 313.776 142.031 313.727C141.59 313.06 141.428 312.809 141.26 312.139C141.142 311.669 141.801 311.214 141.175 310.789C141.194 310.345 141.458 308.307 140.351 309.018C140.351 309.018 140.351 309.018 140.351 309.018C140.351 309.017 140.351 309.016 140.352 309.016C141.06 306.849 142.265 304.611 143.161 302.493C145.247 297.559 147.392 292.587 149.575 287.696C153.185 279.605 156.954 271.535 161.108 263.661C165.226 255.856 169.722 248.306 173.608 240.393C177.357 232.759 181.731 225.454 185.506 217.832C187.284 214.242 189.667 211.274 190.273 207.102C190.469 205.751 190.531 202.934 188.487 203.441C187.157 203.771 185.297 207.098 184.439 208.18C183.671 207.125 179.335 200.925 178.172 204.619C177.175 207.786 183.419 209.166 180.928 212.356C180.68 212.673 179.657 212.992 179.321 213.284C178.667 213.854 178.069 214.858 177.564 215.544C176.412 217.11 175.46 218.773 174.395 220.392C174.195 220.697 173.463 221.386 173.407 221.742C173.377 221.931 173.536 222.126 173.66 222.323C172.794 223.089 171.702 223.766 171.499 225.008C171.559 225.034 171.614 225.038 171.667 225.028C170.863 225.87 169.844 227.91 169.698 228.123C168.613 229.701 167.549 231.351 166.477 233.015C165.898 233.915 164.885 234.974 164.552 235.985C164.437 236.334 164.774 236.961 164.46 237.288C163.633 238.148 162.826 237.965 162.207 239.695C161.964 240.377 161.942 241.329 161.551 241.914C160.924 242.851 160.028 243.293 159.442 244.301C158.33 246.215 156.998 248.316 156.298 250.247C156.296 250.255 156.295 250.262 156.292 250.27C156.268 250.119 156.235 249.955 156.196 249.776C155.799 250.489 155.403 251.202 155.006 251.915C155.692 251.781 156.059 251.594 156.227 251.289C156.207 251.391 156.175 251.497 156.112 251.608C155.761 251.769 155.392 251.871 155.006 251.915C154.74 252.353 154.492 252.802 154.259 253.259C154.146 253.49 153.763 254.9 153.602 255.968C153.543 255.553 153.484 255.182 153.477 255.132C152.974 256.101 152.471 257.069 151.968 258.037C152.88 257.335 152.829 257.216 153.698 257.199C152.603 257.221 150.945 258.76 150.793 260.238C150.768 260.478 150.915 260.741 151.045 260.989C151.015 260.985 150.985 260.981 150.95 260.978C149.803 260.88 150.139 261.112 149.704 262.068C149.87 262.001 150.836 261.625 151.199 261.331C151.238 261.456 151.245 261.572 151.184 261.669C150.899 262.121 148.576 261.83 150.068 262.832C148.828 261.999 148.209 264.735 148.63 265.675C148.297 266.157 147.899 266.601 147.525 267.047C146.606 268.143 146.099 268.974 145.496 270.308C144.471 272.581 143.249 274.836 142.128 277.065C141.703 277.912 141.207 278.634 140.685 279.421C139.759 280.817 139.922 280.468 140.652 281.989C140.378 281.9 139.973 282.116 139.581 282.429C139.794 282.067 140.066 281.799 140.652 281.989C139.726 280.06 138.931 282.411 138.504 283.517C138.523 283.517 138.539 283.512 138.557 283.511C138.499 283.597 138.455 283.673 138.428 283.734C137.993 284.631 137.479 285.181 137.851 286.121C137.958 285.598 138.382 285.193 138.563 284.743C138.309 285.84 137.112 287.155 136.751 287.881C136.45 288.485 136.408 289.118 136.039 289.775C135.693 290.391 135.381 290.807 135.114 291.512C133.828 294.923 133.201 298.722 132.39 302.305C131.43 306.538 131.035 311.037 130.829 315.369C130.769 316.629 130.736 317.742 131.19 318.938C131.256 319.111 131.962 320.034 131.944 320.371C131.846 322.134 128.536 321.768 127.262 321.717C125.238 321.636 123.86 321.963 121.916 322.244C120.122 322.503 118.362 322.361 116.54 322.801C113.515 323.532 109.01 324.69 106.085 323.084C104.671 322.308 102.89 320.057 101.864 318.794C100.601 317.24 100.176 315.657 99.9491 313.677C99.5629 310.289 99.5366 306.546 100.714 303.308C106.187 288.265 115.574 274.59 123.671 260.899C131.268 248.053 139.785 235.876 147.397 223.064C151.422 216.291 156.263 209.59 161.05 203.331C165.942 196.933 169.433 189.972 172.883 182.73C176.458 184.627 180.243 186.576 184.241 187.433C186.514 187.92 188.771 187.773 191.063 187.93C192.752 188.045 194.165 188.445 195.886 188.489C203.43 188.681 212.147 187.777 219.359 185.549C221.089 185.014 222.636 184.459 224.259 183.689C226.329 182.706 226.889 182.288 227.006 184.574C227.234 188.999 227.956 193.3 228.296 197.698C228.628 201.986 229.491 206.214 230.255 210.451C230.642 212.596 231.059 214.74 231.376 216.896C231.617 218.533 232.343 220.809 232.055 222.445C231.736 224.251 230.025 226.083 229.046 227.624C228.052 229.188 227.053 230.748 226.062 232.313C224.204 235.248 222.353 238.034 220.159 240.726C216.09 245.719 212.626 250.94 208.768 256.096C204.671 261.571 201.266 267.484 197.245 273.014C195.122 275.936 192.95 278.692 191.558 281.982C190.403 284.711 188.08 287.222 186.659 289.923C184.793 293.469 182.42 296.717 180.567 300.281C179.274 302.771 176.775 305.303 176.514 308.196C176.074 313.049 180.689 308.199 181.757 306.846C183.19 305.031 184.761 301.854 186.913 300.87C188.45 300.167 190.696 300.244 192.364 299.694C194.113 299.117 195.83 298.519 197.596 297.992C201.035 296.964 204.353 295.513 207.697 294.208C211.158 292.858 214.618 291.495 218.014 289.993C219.586 289.297 220.911 288.941 222.59 288.638C223.313 288.508 225.899 287.286 226.469 287.39C227.425 287.564 228.743 290.375 229.468 291.097C230.586 292.212 231.843 293.123 232.887 294.322C234.943 296.684 237.122 299.2 238.905 301.767C242.89 307.5 246.616 313.765 248.034 320.672C248.67 323.772 247.927 323.978 244.93 323.857ZM141.304 316.361C141.28 316.309 141.264 316.259 141.254 316.211C141.267 316.259 141.278 316.307 141.304 316.361C141.776 316.081 141.901 316.23 141.949 316.459C141.712 316.306 141.49 316.251 141.304 316.361ZM140.205 313.16C140.186 313.074 140.177 312.994 140.174 312.918C140.181 312.998 140.187 313.079 140.205 313.16C140.463 312.987 140.679 313.037 140.886 313.16C140.666 313.041 140.428 313.011 140.205 313.16ZM140.679 311.065C140.824 311.054 140.989 310.976 141.175 310.789C141.023 310.942 140.879 311.103 140.748 311.271C140.751 311.25 140.754 311.231 140.755 311.209C140.758 311.169 140.725 311.119 140.679 311.065ZM93.6992 293.514C92.6252 296.047 92.1783 298.818 91.2659 301.411C90.568 303.395 90.2894 305.355 90.1063 307.43C90.743 307.899 90.7286 308.312 90.0638 308.669C90.0165 309.121 90.0002 309.573 90.0155 310.027C89.8425 311.348 90.0972 312.497 90.4471 313.764C91.0006 315.771 91.7027 317.214 92.7327 318.949C86.4809 321.071 79.3578 321.668 72.7982 321.514C69.2531 321.431 65.276 321.423 61.8212 322.298C58.1012 323.24 54.8396 322.846 51.0177 322.517C51.576 321.392 53.7097 319.516 54.7903 318.734C55.3405 318.337 56.2453 318.269 56.6621 317.824C57.2576 317.19 57.3274 315.958 57.5583 315.126C59.0323 309.821 60.1235 304.472 61.0493 299.046C62.6806 289.481 63.4387 279.69 63.92 270.053C63.9606 269.238 64.3817 268.323 64.3611 267.551C64.3344 266.537 64.0442 266.204 64.126 265.185C64.179 264.52 64.9758 263.618 64.9184 263.026C64.8816 262.656 63.9745 262.976 64.0289 262.251C64.114 261.134 65.5594 259.663 65.8877 258.66C66.0335 258.214 65.4896 257.77 65.5063 257.283C65.5016 257.422 65.8653 255.777 65.8792 255.717C65.9886 255.245 66.4317 255.046 66.4078 254.467C66.3858 253.94 65.6187 253.25 66.034 252.704C66.4541 252.152 67.3245 252.988 67.5893 252.505C67.8904 251.958 66.5665 250.089 66.7137 249.241C66.9713 247.758 67.9803 246.162 68.3756 244.656C68.5237 244.091 68.2852 243.393 68.7446 242.905C69.5442 242.053 70.2377 242.927 71.3911 242.641C70.2468 241.669 69.9954 240.732 70.3348 239.308C70.6101 238.152 71.1411 236.901 72.3905 238.043C72.2256 236.538 72.0497 236.385 73.1309 235.127C74.0643 234.041 75.2741 232.741 76.3915 231.909C78.0616 230.665 80.7277 230.025 82.7084 229.879C84.8702 229.72 87.5277 230.878 89.1642 232.512C91.154 234.499 93.7279 235.948 95.9858 237.848C98.3966 239.877 100.467 242.286 102.783 244.436C103.259 244.878 104.134 246.112 104.869 245.9C106.067 245.553 105.099 243.765 104.837 242.97C102.969 237.311 99.6126 231.61 94.9949 227.749C92.6142 225.757 90.2449 223.239 87.477 221.788C85.2411 220.616 83.4946 220.801 81.1172 220.717C79.0854 220.646 78.6676 220.526 76.8557 221.381C75.5709 221.987 74.299 222.579 73.0869 223.32C71.1487 224.504 69.1494 225.944 67.7169 227.734C63.9032 232.502 62.4149 238.563 60.916 244.372C59.267 250.762 58.1318 257.005 57.9315 263.635C57.7284 270.381 57.4158 277.027 56.751 283.746C56.4049 287.24 56.0068 290.727 55.5551 294.209C55.1393 297.419 55.1177 300.87 54.4706 304.023C53.6561 302.835 53.4028 301.919 52.953 300.639C52.6495 299.778 52.3417 299.808 51.9025 299.173C50.9719 297.829 49.8085 295.28 49.4419 293.621C49.2177 292.607 49.4252 292.098 49.0093 291.206C48.8808 290.93 48.182 291.146 48.0701 290.709C47.9898 290.396 48.4277 290.154 48.4081 290.047C48.3622 289.8 49.0418 289.526 48.4549 288.749C47.6208 287.646 48.0477 289.03 47.5974 289.011C47.2222 288.995 48.3478 285.186 48.2154 284.634C48.1686 284.438 47.5305 284.413 47.4794 284.231C47.3245 283.682 47.3594 282.886 47.2084 282.29C46.8389 280.835 46.2907 280.252 46.2639 278.591C46.2281 276.395 45.4146 274.841 45.0231 272.746C44.9476 272.343 45.3907 271.907 45.308 271.56C45.1397 270.85 44.6149 270.229 44.4218 269.479C44.05 268.034 44.5466 265.996 44.4448 264.821C44.3554 263.793 44.0672 262.124 43.8774 260.846C43.5686 258.767 44.1236 259.446 45.0264 258.138C43.7746 257.734 43.9338 258.089 43.5338 256.744C43.072 255.19 43.1146 254.273 44.5246 255.134C44.1499 254.211 43.4544 253.08 43.3015 252.091C43.1595 251.172 43.4955 250.328 43.3994 249.415C43.139 246.946 42.3685 245.606 43.7713 243.21C41.9684 242.286 42.7537 239.106 42.4708 237.332C42.1668 235.417 41.4274 233.628 42.8527 232.381C41.3872 231.326 41.9675 228.302 41.9737 226.687C41.9761 225.954 42.2246 224.664 42.1615 224.014C42.1175 223.556 41.8064 223.249 41.716 222.717C41.3829 220.742 42.1185 218.787 41.6759 216.823C41.1774 214.61 41.1191 212.722 40.948 210.553C40.7826 208.451 40.4576 206.266 40.3175 204.111C40.2143 202.512 39.5905 200.782 39.8778 199.125C39.9007 198.995 40.2812 197.816 40.2922 198.082C40.2745 197.656 39.9643 197.129 39.95 196.875C39.8482 194.958 39.8114 193.394 39.8936 191.448C39.8897 191.448 39.8854 191.447 39.8816 191.448C40.1192 191.303 40.2468 191.003 40.2568 190.536C42.0506 190.362 44.0131 190.8 45.8256 190.849C47.7795 190.9 49.7268 190.803 51.6783 190.713C52.9334 190.655 55.6392 190.06 56.5951 191.108C57.2872 191.868 56.8518 195.776 56.8982 196.792C56.9527 197.993 57.5606 199.878 56.858 200.929C56.4221 201.581 55.437 201.841 54.9294 202.557C54.6202 202.992 54.3688 203.722 54.2048 204.195C53.7087 205.621 53.5108 207.159 53.5868 208.664C53.9453 215.71 59.5915 218.945 65.9312 216.106C71.4541 213.633 72.9559 206.153 68.2107 201.961C67.0937 200.974 65.9031 200.724 64.4773 200.48C63.5711 200.325 61.0985 200.42 60.5063 199.774C59.9184 199.132 60.0618 197.131 59.9968 196.298C59.8922 194.961 59.3544 192.974 59.646 191.684C59.1685 190.609 59.4868 190.155 60.6029 190.32C60.9561 190.249 61.3093 190.178 61.6625 190.106C62.5525 189.945 63.4267 189.751 64.3305 189.689C65.9413 189.578 67.5119 189.769 69.1241 189.554C70.7052 189.342 72.2547 188.947 73.8387 188.742C75.5221 188.525 77.1749 188.767 78.8406 188.481C82.2982 187.889 86.013 187.093 89.2474 185.734C90.114 185.37 91.5823 184.322 92.5435 184.495C93.6944 184.703 93.3866 185.435 93.7183 186.53C95.5575 192.603 99.3784 198.603 103.422 203.431C107.24 207.989 112.273 211.664 116.825 215.486C119.584 217.804 122.234 220.24 124.796 222.773C126.655 224.612 128.651 227.486 131.052 228.547C131.6 228.567 133.711 228.325 134.096 228.721C134.542 229.176 134.515 229.431 134.337 229.716C134.847 228.371 132.42 228.598 131.052 228.547C131.208 228.807 132.743 231.887 133.123 230.174C133.343 230.305 133.564 230.437 133.784 230.568C132.693 232.979 131.28 235.396 129.745 237.553C128.626 239.127 127.181 240.265 126.177 241.895C124.909 243.953 123.854 246.088 122.249 247.921C119.047 251.578 117.265 256.495 114.474 260.552C113.132 262.503 112.432 264.315 111.035 266.256C109.944 267.775 108.175 269.696 107.539 271.444C107.285 272.143 107.557 272.749 107.092 273.396C106.798 273.805 105.927 274.249 105.517 274.673C103.886 276.358 102.614 278.762 101.335 280.744C99.972 282.854 99.0223 285.044 97.868 287.243C96.6841 289.499 94.7249 291.097 93.6992 293.514ZM51.359 299.985C51.447 300.222 50.9183 300.625 49.5141 300.477C50.9049 300.624 51.4374 300.224 51.359 299.985ZM47.9062 307.916C48.0319 308.027 48.1538 308.144 48.2728 308.263C48.1543 308.144 48.0319 308.027 47.9062 307.916ZM39.1484 324.5C38.0046 324.1 35.0298 323.394 33.0926 322.558C33.9567 322.8 34.8563 322.999 35.2023 323.12C36.5172 323.58 37.8326 324.04 39.1484 324.5C41.0115 317.784 48.007 315.224 53.9931 312.744C51.1095 312.623 50.0795 310.12 48.3364 308.33C50.0757 310.115 51.1224 312.623 53.9931 312.744C48.008 315.223 41.0115 317.784 39.1484 324.5ZM32.6051 317.738C32.5391 317.847 32.4741 317.96 32.4086 318.082C32.2303 318.417 31.5583 319.909 31.2758 320.889C31.219 319.881 31.8169 318.703 32.6051 317.738ZM39.191 190.209C39.2975 190.166 39.3836 190.16 39.4615 190.165C39.1489 190.18 39.0638 190.551 39.05 191.067C38.7785 190.778 38.7135 190.399 39.191 190.209ZM60.9179 205.729C62.9564 206.742 64.9347 207.331 66.8795 208.555C64.4935 210.41 56.8762 213.406 57.1037 207.674C57.1305 207.006 57.521 205.211 58.1304 204.814C59.0576 204.21 60.1096 205.328 60.9179 205.729ZM37.5807 179.038C46.5578 182.171 57.0162 181.396 66.1401 179.868C75.9432 178.227 85.7305 177.261 95.2268 174.188C95.2363 175.51 95.8099 176.895 94.7622 177.985C93.9406 178.84 92.1601 179.001 91.0747 179.361C88.2355 180.303 85.797 181.674 82.8293 182.237C79.5055 182.867 76.1851 182.854 72.8321 183.227C71.6181 183.362 70.4762 183.58 69.3358 183.799C67.7566 183.823 66.5191 184.037 64.9423 184.475C59.3023 184.501 53.7006 184.669 48.084 183.997C45.2315 183.655 42.4101 183.237 39.5504 182.946C36.8719 182.673 37.4698 181.518 37.5807 179.038ZM34.1465 154.942C28.8597 156.402 23.4071 155.965 18.2058 154.293C14.4443 153.085 9.45476 151.314 8.66373 146.736C8.14131 143.716 9.95137 143.169 12.0798 141.915C13.0983 141.316 13.5935 140.863 14.2784 139.846C14.6851 139.243 15.0503 137.729 15.5068 137.316C16.6185 136.309 20.1273 137.193 21.8671 137.115C24.4596 136.999 26.2166 136.128 28.6016 135.359C32.8144 134 35.4805 132.352 38.7507 129.244C41.9316 126.22 45.6669 123.144 48.2389 119.581C51.1196 115.591 53.876 111.708 57.0138 107.902C59.3391 105.082 63.5572 99.4372 67.7294 99.463C69.8233 99.4764 69.5136 101.451 71.1764 102.455C72.6949 103.371 74.6814 102.734 76.3504 102.575C75.2502 105.075 73.7245 107.647 74.2641 110.477C74.5672 112.061 74.7277 112.609 74.1088 114.108C73.5433 115.478 72.9315 116.692 72.5812 118.159C71.2171 123.876 70.5713 130.31 71.1435 136.155C72.1343 146.274 75.6015 156.722 83.1863 163.866C84.9156 165.494 86.8174 166.796 88.9348 167.868C91.0474 168.936 91.2224 170.05 88.6055 170.527C83.5085 171.457 78.334 172.092 73.2006 172.782C68.074 173.471 62.856 174.192 57.6863 174.297C55.1287 174.35 52.5869 174.669 50.0298 174.487C48.7565 174.396 47.4913 174.169 46.2142 174.134C45.0996 174.103 43.4353 174.66 42.3976 174.22C40.7735 173.533 41.5813 168.78 41.4623 167.129C41.3251 165.235 40.1297 161.683 40.8395 159.892C41.3385 158.635 43.1691 158.108 44.1174 157.13C45.6741 155.524 47.1457 153.621 47.7403 151.432C49.711 153.023 48.0156 154.043 48.6136 155.983C49.2665 158.099 50.4705 157.434 51.413 155.982C52.986 153.558 52.8809 149.811 51.3762 147.394C50.5054 145.997 49.0906 144.946 47.639 144.199C46.4646 143.594 43.865 142.408 42.5644 142.934C39.0347 144.36 42.7915 148.575 44.5858 149.576C44.1546 150.821 41.0971 152.618 39.9313 153.15C38.1997 153.94 36.0053 154.428 34.1465 154.942ZM82.5936 116.334C82.64 117.012 82.7122 117.661 82.9363 118.31C83.3928 119.633 84.3062 120.779 85.5647 121.434C88.0061 122.706 92.9579 120.875 95.1039 119.376C95.1039 123.921 95.9189 127.537 97.2232 131.849C98.4846 136.021 101.067 139.417 103.263 143.121C104.402 145.042 105.448 147.025 107.056 148.602C108.692 150.205 108.964 150.82 108.814 153.184C108.569 157.077 106.715 159.732 103.21 161.344C100.434 162.883 94.7005 164.133 91.6755 162.848C88.4956 161.495 85.3983 157.994 83.3388 155.3C78.66 149.178 76.2874 139.957 76.5717 132.346C76.7199 128.382 76.9293 124.325 77.3088 120.375C77.585 117.498 77.4842 113.36 81.6702 114.657C83.0229 115.076 82.4847 114.764 82.5936 116.334ZM98.6562 169.492C99.0596 168.67 102.612 167.844 103.231 168.326C104.169 169.057 104.208 173.324 104.538 174.538C105.06 176.465 105.748 178.37 106.576 180.187C108.315 183.999 110.809 187.937 113.769 190.907C116.836 193.982 120.36 196.114 124.083 198.318C125.147 198.948 126.177 199.708 127.271 200.28C127.729 200.52 128.58 200.633 128.941 200.994C129.835 201.887 129.421 203.721 129.411 204.884C129.368 209.545 129.384 214.055 130.001 218.653C126.352 215.829 123.056 212.244 119.808 208.951C116.402 205.498 112.015 203.219 108.786 199.563C105.847 196.236 103.534 192.359 101.375 188.511C100.43 186.826 98.6284 184.677 98.5634 182.706C98.4932 180.582 99.462 178.332 99.4735 176.132C99.4807 174.575 98.0563 170.715 98.6562 169.492ZM142.47 217.072C142.249 218.48 142.426 221.497 140.468 221.8C139.12 222.009 138.291 220.73 137.797 219.659C136.305 216.42 136.798 212.101 136.241 208.621C135.583 204.514 135.567 200.464 135.059 196.351C134.61 192.724 133.114 188.149 133.929 184.575C134.669 184.557 136.666 191.55 137.097 192.659C137.984 194.943 139.006 196.864 139.773 199.231C140.79 202.367 141.672 205.361 142.14 208.641C142.469 210.948 143.705 215.043 142.47 217.072ZM153.301 201.609C151.474 204.445 149.501 207.401 146.926 209.767C146.926 208.444 145.937 204.142 146.607 203.12C147.406 201.901 151.939 201.845 153.301 201.609ZM82.4263 89.9046C83.9788 89.2001 85.7105 88.9783 87.2763 88.2499C88.7728 87.554 89.8845 87.1339 91.5459 86.9972C97.3198 86.5235 103.199 88.0014 108.541 89.6179C111.481 90.5073 113.801 92.4565 116.285 94.1451C118.854 95.8916 120.263 97.4125 121.381 100.368C123.788 106.725 125.269 112.736 126.226 119.44C127.198 126.242 125.62 133.117 125.719 139.932C125.815 146.656 126.296 153.657 128.432 160.06C130.083 165.01 133.01 172.979 139.179 173.472C145.035 173.941 149.989 167.903 152.41 163.37C158.811 151.386 161.216 137.687 161.563 124.237C162.466 119.736 162.983 114.883 164.55 110.567C166.291 113.291 167.712 116.214 169.313 119.021C171.07 122.103 170.958 124.617 170.805 128.119C170.687 130.841 169.727 133.443 169.378 136.154C168.974 139.283 168.234 142.335 168.055 145.496C167.847 149.224 168.054 152.99 167.74 156.708C167.477 159.835 166.786 162.975 166.286 166.073C165.799 169.084 165.739 172.047 165.811 175.048C165.88 177.953 166.884 180.774 169.345 182.328C165.688 186.842 161.127 193.489 155 194.559C152.945 194.917 151.027 195.197 148.947 195.349C147.255 195.472 145.279 196.421 143.82 195.367C141.309 193.552 140.814 189.506 139.865 186.861C139.209 185.03 132.701 170.042 129.276 174.289C128.665 175.045 128.809 177.822 128.716 178.887C128.581 180.423 128.643 181.985 128.595 183.527C128.532 185.489 128.358 187.479 128.494 189.44C128.577 190.623 129.287 191.9 127.947 192.185C126.708 192.449 124.094 189.986 123.191 189.347C121.98 188.491 120.675 187.849 119.448 187.024C116.926 185.329 114.926 183.195 113.131 180.776C111.325 178.341 109.716 175.61 108.494 172.83C107.873 171.42 107.366 169.975 106.848 168.526C106.859 168.558 106.078 166.732 106.121 166.604C106.259 166.195 107.91 165.517 108.318 165.195C112.977 161.518 113.91 152.373 112.672 147.024C111.922 143.788 109.442 140.945 107.681 138.19C105.979 135.528 104.179 132.921 102.768 130.088C101.211 126.968 100.009 123.692 98.6127 120.501C97.9387 118.961 97.1305 118.168 98.1366 116.758C98.7532 115.893 100.029 115.539 100.579 114.593C101.132 113.64 101.189 111.803 100.194 111.123C99.1059 110.377 97.5243 111.418 96.5273 111.824C95.1966 112.365 93.8674 112.627 92.5095 113.043C90.9676 113.516 89.5801 114.561 87.9435 114.561C88.8234 111.531 92.6257 111.818 93.8593 109C94.702 107.074 94.592 103.489 91.9646 103.172C90.4724 102.991 89.2957 104.13 88.1863 104.894C86.7261 105.898 85.6239 106.086 83.9133 106.401C83.2833 106.517 82.261 107.107 81.6635 106.906C80.6942 106.581 81.2534 106.782 81.761 105.985C82.5157 104.8 84.3005 103.644 85.3792 102.779C87.8044 100.835 91.166 99.4338 93.2671 97.1735C94.6556 95.6789 95.3381 90.6541 92.6993 89.8521C91.6411 89.5299 89.9194 90.5795 88.8827 90.9007C87.1305 91.4427 85.3458 91.8743 83.617 92.4928C80.546 93.5912 77.597 94.896 74.4816 95.8816C76.2563 93.3546 79.6279 91.1755 82.4263 89.9046ZM186.273 89.1643C186.273 90.9007 186.936 94.2016 186.188 95.7803C185.514 97.2017 181.42 97.9942 179.974 98.5372C175.291 100.296 170.647 102.255 165.861 103.711C170.794 96.4054 178.124 92.164 186.273 89.1643ZM185.583 65.5738C184.37 67.3164 182.261 69.679 179.793 68.8555C177.133 67.9679 175.049 63.8947 176.408 61.3098C177.569 59.1021 180.883 57.7165 182.928 59.4567C183.375 59.8363 183.666 60.807 184.093 61.1038C184.367 61.2941 184.802 60.785 185.137 60.9886C186.126 61.5894 186.507 63.0563 187.935 62.9335C188.596 62.8771 190.712 61.1511 191.146 60.71C192.305 59.5289 191.901 58.3187 192.084 56.7668C192.337 54.6283 193.812 54.3004 195.51 53.1973C197.126 52.1463 198.425 50.5795 200.024 49.5676C201.933 48.3588 200.839 49.8912 202.583 50.0427C202.897 50.0704 203.6 49.0251 204.146 49.0423C204.854 49.0653 205.161 49.5361 205.564 50.0499C206.443 51.1659 205.797 51.5163 207.328 51.7763C208.433 51.9641 209.118 51.1612 210.062 51.1769C210.835 50.3018 211.98 48.4745 213.362 49.0141C214.297 49.3793 214.632 51.339 214.833 52.1572C215.592 55.2592 215.535 58.9052 215.563 62.0865C213.785 60.839 213.555 60.0012 213 57.9899C212.639 56.6831 211.767 54.7626 210.817 56.7256C210.547 57.283 210.778 58.1371 210.6 58.7494C210.393 59.4591 209.897 59.809 209.82 60.5833C209.633 62.4622 211.172 63.106 212.5 64.0208C211.261 65.3563 207.696 64.3483 208.646 67.1998C209.651 70.2124 213.513 68.5443 215.439 67.7882C217.081 74.0123 209.786 77.011 205.341 78.7131C202.73 79.7125 201.709 80.2693 201.35 83.3168C201.043 85.9289 201.395 88.6036 202.352 91.0436C202.736 92.0215 203.104 93.3579 203.628 94.2632C204.072 95.0299 204.956 95.0834 205.254 95.5112C206.352 97.0889 205.561 100.513 205.433 102.406C205.082 107.584 203.468 112.3 202.775 117.353C202.42 119.937 201.355 122.357 200.898 124.911C200.48 127.254 200.314 129.467 198.339 131.143C194.371 134.51 191.302 129.537 189.927 126.268C187.968 121.612 187.773 115.494 188.096 110.529C188.447 105.132 190.916 99.9472 191.047 94.5901C191.186 88.8612 190.321 83.4225 188.888 77.8833C188.261 75.4624 187.35 73.2953 186.576 70.9547C185.944 69.0409 186.991 67.3126 185.583 65.5738ZM195.899 8.89886C195.899 8.90321 195.899 8.90708 195.9 8.91143C195.875 8.88323 195.85 8.85637 195.822 8.82344C195.851 8.85766 195.876 8.88108 195.899 8.89886ZM196.017 8.36225C195.958 7.95784 195.829 7.44895 195.74 7.2201C195.955 7.3523 196.199 7.46329 196.207 7.60199C196.23 7.9999 196.116 8.18712 196.017 8.36225ZM201.909 9.3839C201.868 9.40727 201.828 9.43284 201.786 9.4554C201.688 9.4554 201.605 9.43461 201.532 9.40206C201.56 9.40813 201.591 9.41291 201.626 9.41554C201.722 9.42247 201.816 9.40813 201.909 9.3839ZM204.988 8.36918C204.437 8.36483 203.856 8.31325 203.211 8.59282C203.314 8.5313 203.416 8.47624 203.52 8.43939C203.808 8.3371 204.418 8.34838 204.988 8.36918ZM173.753 159.764C173.871 157.172 173.87 156.394 175.906 154.723C177.604 153.33 179.246 151.868 180.961 150.495C184.759 147.456 188.818 144.238 193.136 141.969C195.555 140.698 202.157 138.135 200.488 143.154C198.914 147.891 195.876 152.098 193.261 156.306C190.594 160.595 187.927 164.888 185.157 169.111C183.952 170.948 182.681 172.75 181.528 174.619C180.394 176.46 180.277 177.7 177.95 176.938C176.26 176.385 174.35 175.71 172.755 174.989C171.354 174.357 171.438 173.97 171.4 172.324C172.267 168.069 173.552 164.167 173.753 159.764ZM184.59 107.906C184.001 110.277 179.779 110.559 177.5 111.019C177.109 111.098 175.124 111.74 174.754 111.52C174.023 111.085 174.382 109.829 174.071 109.22C172.365 105.89 172.34 110.147 171.854 111.15C170.525 113.898 168.488 108.398 167.741 107.051C167.166 106.014 166.55 105.487 167.145 104.617C167.641 103.893 170.397 103.396 171.243 103.084C174.331 101.943 177.41 100.782 180.489 99.6193C181.814 99.1189 185.896 96.4977 185.851 99.0166C185.411 101.915 185.294 105.071 184.59 107.906ZM182.282 136.217C180.983 136.621 177.456 138.239 176.142 137.476C175.033 136.832 175.799 134.573 175.924 133.398C176.159 131.182 176.124 128.771 175.999 126.548C175.813 123.266 175.54 123.006 178.78 122.123C180.031 121.782 183.853 119.933 184.782 120.976C185.217 121.462 185.033 123.01 185.128 123.6C185.335 124.876 185.691 126.124 186.158 127.33C186.964 129.413 188.141 131.284 189.371 133.137C187.164 134.495 184.75 135.45 182.282 136.217ZM174.948 113.004C175.509 112.197 178.3 112.083 179.223 111.888C180.854 111.543 182.486 111.201 184.117 110.857C184.205 112.844 185.328 118.033 183.899 119.466C183.096 120.273 180.408 120.481 179.269 120.761C178.03 121.066 176.788 121.365 175.546 121.665C175.406 119.75 175.289 117.834 175.084 115.924C175.01 115.222 174.492 113.66 174.948 113.004ZM175.27 139.236C176.128 138.248 178.451 138.276 179.742 137.975C181.798 137.493 183.748 136.837 185.694 136.023C186.783 135.568 188.929 134.01 190.133 134.405C190.471 134.515 191.177 135.905 191.433 136.166C191.872 136.612 192.439 136.915 192.948 137.267C194.35 138.238 195.201 138.541 196.853 138.869C188.207 142.415 181.261 148.723 174.109 154.542C173.601 154.117 173.883 150.313 173.939 149.44C174.042 147.82 174.112 146.18 174.234 144.555C174.333 143.219 174.358 140.285 175.27 139.236ZM201.527 173.73C201.266 175.205 201.226 177.232 200.594 178.595C200.014 179.844 200.084 179.757 198.542 179.794C196.593 179.841 194.358 180.168 192.471 179.574C194.156 175.853 195.559 171.81 197.864 168.415C198.588 167.349 199.986 164.62 201.501 164.782C203.021 164.946 202.687 166.47 202.567 167.573C202.341 169.632 201.887 171.69 201.527 173.73ZM209.118 115.687C210.288 107.66 210.189 99.8119 210.189 91.7286C212.056 91.9757 214.114 91.8198 215.914 92.348C215.333 94.2016 213.656 95.8735 215.316 97.6333C217.001 99.4209 220.929 100.204 223.206 100.862C225.873 101.633 228.593 102.576 231.334 103.034C232.566 103.239 233.908 103.439 235.15 103.2C237.118 102.823 237.292 102.3 238.586 104.327C238.592 104.338 238.603 104.355 238.61 104.366C238.237 104.152 237.051 104.281 237.367 104.29C237.414 104.453 237.482 104.616 237.523 104.767C237.174 104.48 236.402 104.238 236.295 104.219C235.008 103.993 233.375 104.571 232.136 104.856C229.357 105.499 226.599 106.198 223.907 107.149C221.642 107.949 219.398 108.845 217.237 109.896C215.568 110.707 211.715 112.136 211.189 114.124C210.18 117.936 220.249 120.832 222.705 122.122C225.024 123.341 224.292 125.148 224.318 127.569C224.346 130.198 224.585 132.803 224.402 135.426C224.261 137.459 224.105 137.144 222.078 137.108C220.559 137.08 219.04 137.019 217.523 137.11C215.382 137.237 213.184 137.534 211.175 138.312C208.17 139.476 202.397 145.019 208.149 146.708C210.518 147.404 213.572 147.149 215.999 146.981C218.105 146.836 221.404 145.877 223.435 146.601C224.495 146.301 224.877 146.687 224.582 147.756C224.63 148.49 224.68 149.223 224.728 149.956C224.826 151.432 224.924 152.908 225.022 154.384C225.224 157.404 225.424 160.424 225.624 163.444C223.859 160.942 221.431 156.007 217.67 156.571C214.442 157.055 212.533 162.06 211.493 164.644C210.648 166.742 210.103 168.943 209.531 171.127C208.982 173.228 208.782 176.198 207.778 178.102C206.789 179.977 205.415 179.347 203.391 179.541C200.86 179.781 201.88 178.365 202.283 176.214C202.895 172.937 205.063 167.285 202.973 164.231C200.303 160.333 196.531 167.556 195.506 169.507C194.547 171.33 193.729 173.22 192.996 175.144C192.522 176.386 192.138 179.067 190.915 179.747C189.417 180.58 187.041 179.248 185.665 178.813C184.049 178.301 182.283 178.088 180.623 177.753C185.348 170.355 190.262 163.069 194.847 155.585C197.139 151.843 200.03 147.914 201.289 143.681C201.528 142.88 201.821 142.113 201.723 141.261C201.639 140.533 200.545 139.388 200.615 138.883C200.717 138.135 202.22 137.51 202.923 136.723C205.365 133.989 205.978 130.736 206.736 127.261C207.561 123.478 208.561 119.507 209.118 115.687ZM218.343 92.7457C221.942 91.9704 226.032 94.0381 229.042 95.7076C231.027 96.8089 236.326 99.1112 236.53 101.808C236.475 101.077 231.602 101.534 230.638 101.557C226.521 100.666 222.13 99.4635 218.288 97.6869C216.889 97.0397 215.246 96.4059 215.756 94.745C216.09 93.6538 217.323 92.9655 218.343 92.7457ZM214.168 145.811C211.893 145.68 203.633 145.77 207.79 141.645C210.392 139.062 215.185 138.502 218.647 138.488C219.887 138.483 221.109 138.581 222.341 138.707C222.679 138.748 223.017 138.787 223.355 138.827C224.388 138.622 224.709 139.05 224.322 140.109C224.507 140.729 224.803 144.405 224.259 144.922C223.536 145.608 221.236 145.305 220.389 145.371C218.308 145.534 216.256 145.823 214.168 145.811ZM226.249 177.056C220.264 177.948 214.288 179.085 208.218 179.18C209.125 174.756 210.18 170.342 211.829 166.127C212.884 163.434 214.798 157.62 218.487 157.906C221.431 158.134 224.868 163.18 225.689 165.757C226.759 169.117 226.249 173.562 226.249 177.056ZM241.621 109.808C241.502 110.421 238.815 111.524 238.241 111.857C234.097 114.265 230.406 117.835 227.926 121.891C227.65 120.325 227.694 117.356 226.382 116.244C224.072 114.286 224.547 118.672 224.27 120.012C224.012 121.269 224.334 121.065 223.25 121.177C222.289 121.276 219.836 119.476 218.949 119.022C216.498 117.769 214.148 116.404 211.793 114.981C213.744 111.758 219.498 110.278 222.773 108.989C227.482 107.136 232.123 106.188 237.106 105.421C237.939 105.854 238.047 104.879 238.67 104.661C238.705 104.61 238.716 104.568 238.718 104.528C239.449 105.616 241.799 108.895 241.621 109.808ZM247.717 153.241C250.036 163.896 250.613 174.981 253.542 185.507C256.327 195.512 258.8 205.474 262.017 215.345C263.87 221.03 265.591 226.772 268.068 232.232C269.795 236.039 271.166 244.161 275.374 245.943C278.129 247.11 279.351 246.077 279.056 243.283C278.801 240.852 277.541 239.325 276.5 237.226C276.138 236.495 274.958 234.431 275.086 233.655C275.246 232.69 275.491 232.794 276.497 232.317C278.633 231.304 280.762 230.618 283.036 230.032C282.119 231.455 280.286 233.49 280.139 235.23C280.017 236.666 281.049 239.299 282.475 239.85C283.824 240.371 285.41 239.273 286.564 238.603C287.9 237.828 289.174 237.612 290.645 237.061C288.77 239.762 285.699 241.914 287.014 245.63C288.417 249.593 292.769 246.352 295.552 245.904C294.757 248.975 291.23 252.476 288.694 254.185C286.991 255.332 285.143 256.366 283.315 257.295C282.608 257.655 281.678 257.874 281.028 258.302C280.781 258.465 280.366 259.156 280.141 259.265C276.984 260.789 272.678 261.178 269.244 261.911C265.46 262.718 262.202 262.916 258.306 262.728C255.084 262.574 251.513 260.594 248.82 258.931C246.772 257.667 246.473 256.122 245.836 253.891C244.779 250.193 243.833 246.471 242.825 242.76C241.955 239.561 241.55 236.487 240.962 233.241C239.714 226.362 239.139 219.374 237.8 212.507C236.47 205.685 236.026 198.775 235.658 191.803C235.48 188.445 234.933 185.019 234.767 181.726C234.632 179.048 234.678 176.352 234.692 173.598C234.703 171.662 234.017 169.727 234.064 167.784C234.105 166.065 234.262 164.518 234.081 162.783C233.694 159.085 233.392 155.431 233.1 151.727C232.534 144.509 230.865 137.385 230.199 130.198C229.912 127.089 233.324 124.108 235.635 122.298C238.099 120.368 240.075 117.659 242.786 116.14C243.79 128.607 245.054 141.01 247.717 153.241ZM206.89 286.529C204.217 287.721 201.545 288.915 198.871 290.104C196.905 290.979 194.326 292.776 192.165 292.614C193.701 290.533 194.669 288.154 196.307 286.133C197.942 284.115 199.292 281.972 200.771 279.84C202.714 282.211 204.701 284.382 206.89 286.529ZM207.458 276.067C211.503 273.935 217.248 269.881 221.988 270.646C225.401 271.197 229.268 273.696 231.33 276.449C232.296 277.74 233.264 278.944 234.37 280.209C235.384 281.369 235.905 281.218 235.018 282.428C234.336 283.358 232.729 283.988 231.682 284.347C231.682 282.312 232.315 280.271 229.87 280.473C228.905 280.552 227.78 280.783 226.819 280.94C225.99 281.075 225.509 281.435 224.803 281.601C224.05 281.779 223.149 281.57 222.368 281.631C221.023 281.736 219.946 282.276 218.672 282.558C216.036 283.142 213.811 283.949 211.244 284.812C210.07 283.016 209.084 280.858 207.488 279.391C205.705 277.75 204.944 277.393 207.458 276.067ZM172.769 7.24787C173.157 7.2071 173.6 6.96567 173.9 6.46242C173.375 7.34322 173.066 7.38308 172.769 7.24787ZM160.647 8.65051C161.118 8.73587 161.582 8.84035 161.971 9.02279C162.354 9.20227 162.561 9.40684 162.765 9.58632C162.67 9.54469 162.566 9.50004 162.45 9.45148C161.945 9.24041 161.298 8.85943 160.647 8.65051ZM152.564 75.4414C152.532 75.3984 152.502 75.3587 152.472 75.32C152.502 75.3587 152.532 75.3984 152.564 75.4414H152.564ZM152.267 75.0791C152.229 75.0389 152.191 75.0016 152.154 74.9668C152.191 75.0016 152.229 75.0394 152.267 75.0791ZM219.163 10.4051C219.25 10.4302 219.326 10.4411 219.396 10.4449C219.301 10.4545 219.225 10.4402 219.163 10.4051ZM221.244 11.7986C220.99 11.5641 220.841 11.3344 220.764 11.1042C220.803 11.1285 220.846 11.1506 220.894 11.1697C220.97 11.0951 221.045 11.0206 221.12 10.9456C221.016 11.1398 220.98 11.327 221.06 11.4952C221.448 12.3066 221.922 11.073 222.507 11.6833C222.068 11.6296 221.534 11.7986 221.244 11.7986C220.568 12.7253 219.892 13.6525 219.217 14.5792C220.132 15.0356 220.418 14.4721 220.929 15.3039C220.953 15.3442 220.976 15.443 220.995 15.5735C220.783 14.9671 220.229 15.0837 219.217 14.5792C219.892 13.6525 220.568 12.7253 221.244 11.7986ZM222.186 15.3221C222.215 15.3758 222.247 15.4244 222.282 15.4695C222.248 15.4231 222.215 15.3758 222.186 15.3221ZM221.17 18.9691C220.204 18.452 221.043 17.801 221.083 17.0065C221.086 16.9358 221.088 16.876 221.09 16.811C221.096 17.003 221.098 17.1604 221.093 17.2375C221.027 18.3601 220.231 18.6726 221.681 19.0129C221.78 19.0363 221.908 19.0484 222.055 19.0541C221.684 19.0809 221.361 19.0714 221.17 18.9691ZM236.142 27.3121C236.081 26.8531 238.229 25.8514 238.505 25.7283C238.166 25.8796 236.084 26.8769 236.142 27.3121ZM238.584 23.2472C238.569 23.2412 238.554 23.2394 238.539 23.2329C238.542 23.1991 238.539 23.1675 238.539 23.1346C238.549 23.1761 238.562 23.2147 238.584 23.2472ZM239.727 26.9545C239.738 26.9047 239.761 26.7716 239.787 26.613C239.824 26.8089 239.867 26.9927 239.906 27.153C239.859 27.0906 239.803 27.0252 239.727 26.9545ZM238.059 26.9263C238.057 26.1483 238.302 26.3143 238.453 26.3377C238.315 26.5462 238.058 26.5852 238.059 26.9263ZM235.793 28.635C236.019 28.5908 236.209 28.7204 236.384 28.8699C236.003 28.7689 235.689 28.6549 235.793 28.635ZM235.205 60.0207C235.3 59.8606 235.505 59.8076 235.737 59.7822C235.445 59.8936 235.221 60.1321 235.168 60.4782C235.11 60.3501 235.095 60.2052 235.205 60.0207ZM236.894 55.0461C236.878 55.0413 236.861 55.0351 236.846 55.0336C236.373 54.9968 236.168 55.3027 236.116 55.7707C236.148 55.3625 236.285 55.0298 236.638 54.9213C236.619 54.8845 236.603 54.8501 236.586 54.8143C236.676 54.896 236.78 54.9734 236.894 55.0461ZM236.333 57.565C236.323 57.5095 236.312 57.4488 236.299 57.3857C236.352 57.6085 236.412 57.8298 236.474 58.0424C236.413 57.8713 236.36 57.7079 236.333 57.565ZM236.861 49.7516C236.834 49.7717 236.803 49.7889 236.771 49.8052C236.803 49.7889 236.833 49.7712 236.861 49.7516ZM236.595 49.8745C236.541 49.8888 236.481 49.9012 236.415 49.9094C236.481 49.9012 236.54 49.8893 236.595 49.8745ZM237.081 44.2206C237.087 44.4295 237.088 44.6379 237.094 44.8353C237.06 44.6412 237.057 44.45 237.081 44.2206ZM330.781 323.071C329.49 321.91 325.165 321.833 323.448 321.507C327.163 317.952 329.956 308.965 322.858 307.811C321.286 307.555 320.842 308.161 320.482 306.381C320.261 305.291 320.711 304.286 320.17 303.199C318.885 300.62 314.004 300.908 311.565 300.537C312.148 298.489 313.577 294.83 311.424 293.167C309.726 291.856 306.191 293.607 304.386 294.168C299.51 295.686 294.557 297.418 290.444 300.475C288.601 297.987 286.674 295.531 285.128 292.841C283.653 290.274 282.74 287.437 281.353 284.824C279.963 282.203 278.487 279.113 276.546 276.861C274.902 274.954 272.648 274.766 270.479 273.855C264.977 271.547 260.21 271.679 254.461 272.533C248.715 273.386 243.734 276.746 238.867 279.679C236.957 273.237 232.538 266.238 225.689 264.252C222.615 263.36 219.381 264.221 216.57 265.622C213.088 267.36 210.35 270.314 206.945 271.958C210.828 265.311 215.73 259.058 219.997 252.78C222.338 249.337 225.295 246.264 227.581 242.755C229.911 239.178 231.628 235.202 233.319 231.298C234.747 234.942 234.989 238.775 236.3 242.431C237.504 245.787 238.329 249.23 239.698 252.531C241.128 255.977 242.391 259.377 244.323 262.583C245.425 264.413 248.142 270.11 250.144 266.455C254.6 269.465 258.901 271.282 264.474 271.15C267.025 271.09 269.867 271.01 272.309 270.438C274.789 269.858 277.159 269.077 279.624 268.521C281.574 268.081 283.356 266.891 285.13 266.009C287.17 264.995 289.192 263.171 290.767 261.572C292.718 259.592 294.733 257.686 296.694 255.718C298.635 253.771 298.494 251.783 299.533 249.363C300.616 246.839 301.081 244.607 299.648 242.059C298.598 240.193 296.74 240.45 296.306 238.559C295.893 236.766 296.294 235.076 295.168 233.43C294.313 232.182 291.236 231.347 291.226 230.073C291.218 229.019 292.312 228.087 292.269 226.823C292.23 225.695 291.678 223.881 291.071 222.926C289.932 221.13 288.196 221.069 286.238 221.618C281.509 222.944 276.873 226.352 273.621 229.932C269.161 217.719 265.649 205.237 262.388 192.745C260.947 187.228 259.818 181.637 258.902 176.01C257.995 170.44 256.621 164.828 256.008 159.228C255.64 155.87 254.607 152.727 254.124 149.41C253.724 146.663 253.458 143.895 253.064 141.147C252.193 135.058 250.984 129.062 250.043 122.988C249.524 119.631 248.35 116.694 247.448 113.461C246.673 110.689 246.212 108.318 244.918 105.699C242.449 100.704 239.909 94.5858 235.112 91.4117C230.846 88.5883 226.708 86.2291 221.509 85.6512C218.458 85.3119 216.001 86.0283 213.019 86.3576C210.378 86.6492 208.117 88.1084 205.541 88.6342C205.541 86.1865 205.302 86.1206 207.536 85.2497C208.823 84.7483 210.078 84.1972 211.389 83.7613C212.77 83.3015 213.816 82.8532 214.994 82.0086C216.384 81.0116 215.507 81.3285 217.173 81.6726C219.799 82.2165 219.025 81.5856 220.752 80.2774C221.757 79.516 222.783 79.9806 223.959 80.1326C225.056 80.2746 226.862 80.7597 227.699 79.7717C228.337 79.0204 227.643 77.7313 228.111 76.9149C228.852 75.6259 230.976 75.6847 232.11 74.8186C233.35 73.8717 233.462 72.8039 233.193 71.3476C233.007 70.3396 231.418 68.0998 231.507 67.2328C231.567 66.6549 231.872 66.4857 232.264 66.4384C235.37 66.5952 235.22 66.1272 234.463 63.3751C234.418 63.7828 234.391 64.1293 234.36 64.4281C234.352 64.0008 234.356 63.6017 234.463 63.3751C234.543 63.2045 234.834 63.0945 235.097 62.9569C235.028 63.0257 234.955 63.096 234.869 63.1748C235.002 63.7599 235.041 65.2884 235.603 65.7042C236.005 66.002 237.414 65.9714 237.698 65.4739C238.294 64.4348 236.248 63.845 236.168 63.0735C238.517 62.8771 237.716 61.7323 236.487 60.5637C236.439 60.243 236.625 60.091 237.047 60.1082C236.837 59.8893 236.578 59.7646 236.319 59.7244C236.502 59.6938 236.661 59.6403 236.744 59.5103C236.818 59.396 236.823 59.2378 236.796 59.061C236.841 59.1972 236.881 59.3143 236.91 59.4046C238.937 60.2224 237.895 55.882 237.055 55.1421C237.12 53.9377 237.184 52.7337 237.248 51.5297C236.67 51.9111 236.23 52.5057 236.079 53.1266C236.1 52.5535 236.434 52.0669 237.248 51.5297C235.945 50.9561 235.817 50.8863 237.216 50.764C238.375 51.8212 238.214 50.9437 238.932 50.298C238.889 50.3362 240.019 49.1078 239.943 49.2957C240.48 47.9674 239.888 45.1651 237.724 46.0775C238.899 47.1295 237.72 47.3231 237.31 48.2274C237.296 48.2575 237.285 48.2895 237.274 48.3211C237.296 48.2131 237.325 48.1084 237.369 48.0123C238.094 46.4546 238.266 47.6505 237.468 45.8787C237.467 45.8777 237.467 45.8763 237.466 45.8744C237.677 45.981 238.007 45.9585 238.531 45.7382C239.184 44.9409 239.381 45.2669 239.731 44.2397C240.037 43.3416 239.895 42.7284 239.283 42.3943C239.353 42.4125 239.423 42.433 239.493 42.4507C239.764 41.7596 239.388 41.1014 238.762 40.7836C238.51 41.197 238.257 41.6109 238.005 42.0248C238.119 42.0616 238.234 42.0946 238.349 42.1295C238.348 42.1295 238.346 42.1295 238.345 42.129C237.543 42.0363 237.219 42.1802 237.098 42.5501C237.058 42.3843 237.047 42.2208 237.139 42.0726C237.237 41.9144 237.93 42.1491 238.005 42.0248C239.248 39.9887 237.935 38.2934 235.936 37.2562C235.176 36.8623 233.679 36.8489 233.411 35.9269C233.222 35.2755 234.165 33.6991 234.346 32.9263C235.742 32.2863 233.166 31.912 233.149 31.9092C233.071 32.8206 233.121 33.2245 233.648 33.1538C233.118 33.2255 233.071 32.8178 233.149 31.9092C233.906 32.0253 236.14 31.8169 237.235 31.0722C239.048 31.1238 239.981 31.4381 241.081 29.8659C240.006 29.42 238.74 29.6601 237.776 28.9753C237.821 29.1811 237.857 29.368 237.88 29.5405C237.796 29.2856 237.615 29.0663 237.372 28.8582C237.529 28.9934 237.447 29.0368 237.26 29.0307C237.296 28.9826 237.333 28.9271 237.372 28.8582C237.437 28.0953 237.997 28.4061 238.565 28.4538C238.55 28.2085 238.453 28.0022 238.348 27.7976C238.452 27.9939 238.55 28.195 238.565 28.4538C238.925 28.2249 239.285 27.9961 239.645 27.7668C239.841 27.71 239.958 27.6307 240.004 27.531C240.004 27.5327 240.005 27.5349 240.005 27.5366C241.725 28.0498 241.201 24.4063 240.41 24.4249C240.198 24.4301 240.044 24.5081 239.931 24.6316C239.955 24.2957 240.013 23.9403 240.15 23.4427C240.231 23.2286 240.311 23.0145 240.392 22.8004C239.958 22.8281 238.555 21.9903 238.53 22.9898C238.503 22.8094 238.432 22.6413 238.309 22.4883C238.435 21.3826 237.784 21.4766 236.776 21.1676C236.401 21.0527 235.988 20.3353 235.566 20.6366C234.932 21.0891 235.313 21.5152 235.721 21.8377C235.661 22.2135 235.481 22.5138 235.181 22.7384C235.136 22.6954 235.092 22.6625 235.048 22.6292C235.329 22.4649 235.565 22.2035 235.721 21.8377C234.424 20.8117 233.877 21.4831 232.879 22.3084C233.276 22.6391 233.737 22.8172 234.178 22.8354C234.155 22.884 234.133 22.933 234.113 22.9911C233.613 22.9286 233.202 22.7011 232.879 22.3084C233.939 21.4315 233.843 20.894 232.555 20.3739C232.119 20.1984 231.843 20.5893 231.305 20.3826C231.037 20.2799 230.844 19.8135 230.583 19.6592C228.633 18.5049 226.29 19.162 224.214 18.8885C224.474 18.8551 224.706 18.8226 224.883 18.7992C224.677 18.0832 224.12 17.7733 223.533 17.5552C223.534 17.1474 223.535 16.739 223.534 16.3311C223.451 16.3125 223.371 16.3038 223.294 16.3017C223.43 16.1942 223.511 16.0481 223.492 15.7993C222.991 15.9805 222.566 15.847 222.291 15.4842C222.837 16.1808 223.899 15.8162 224.223 14.9229C224.563 13.9867 223.835 13.3577 223.201 12.6629C223.216 11.9954 222.932 11.7553 222.566 11.6911C223.227 10.3925 223.375 11.0366 222.665 9.41248C222.607 8.31803 221.678 8.71551 221.052 9.41855C221.118 9.25733 221.186 9.09172 221.25 8.91922C220.757 8.88586 220.265 8.85245 219.772 8.81822C219.898 9.21785 220.174 9.92959 219.811 10.269C220.052 9.9218 219.88 9.16327 219.772 8.81822C219.169 8.48188 218.566 8.14553 217.962 7.80828C218.013 7.91621 218.152 8.32238 218.324 8.78223C217.86 8.13598 217.481 7.73549 216.849 7.07016C216.54 6.74548 215.332 5.18726 214.997 5.09013C212.948 4.49631 211.398 8.50267 208.9 7.95435C207.426 7.631 208.114 7.24959 206.721 7.52007C205.959 6.52963 200.983 8.08698 200.792 9.02929C200.885 9.00415 200.956 8.99378 201.014 8.99206C200.453 9.19314 199.965 9.50262 199.422 9.71197C198.06 10.2374 198.87 10.3743 197.324 9.49006C196.796 9.18841 196.602 9.2829 196.396 9.25513C197.062 8.95607 197.383 6.8859 197.393 6.14778C197.416 4.38408 197.184 4.69357 197.871 3.42877C197.235 3.41878 196.787 3.36458 196.453 3.51586C196.548 3.21593 196.617 2.9216 196.615 2.63683C196.96 1.70408 196.656 0.605282 195.591 0.34565C193.979 -0.0474769 193.663 2.26583 194.831 2.64467C193.714 2.28227 194.162 0.818981 192.641 0.620864C193.199 0.592282 193.545 0.697625 194.065 1.33652C194.237 0.989758 194.409 0.643423 194.581 0.296658C193.37 0.170093 192.811 0.0673789 191.833 0.636063C190.876 0.806841 190.202 1.49989 189.48 2.1765C187.513 4.01911 185.747 5.81746 183.936 7.81655C183.006 5.90545 181.979 4.51409 180.47 6.65275C179.106 8.58287 178.003 11.2507 177.295 13.4951C175.879 12.8454 176.476 12.6334 175.882 11.581C176.5 12.6061 175.872 12.8419 177.295 13.4951C177.436 13.0474 177.578 12.5992 177.719 12.1514C176.48 10.7388 176.532 9.33534 175.19 7.82912C175.041 8.31196 175.469 8.99985 175.544 9.43504C175.627 9.91745 175.092 10.2525 175.214 10.7713C175.715 10.588 175.831 10.6985 175.848 10.8992C175.83 10.699 175.712 10.5893 175.214 10.7713C175.015 9.92395 175.509 9.47361 175.233 8.52738C175.122 8.14511 174.96 7.8655 174.764 7.59506C175.618 6.16685 172.857 5.17727 172.214 6.02728C172.133 6.13435 172.078 6.234 172.035 6.33027C170.957 5.84523 170.624 6.87725 170.121 7.65227C170.001 7.89455 169.881 8.13727 169.762 8.38003C169.127 8.90144 168.538 9.99244 168.06 10.7063C167.037 12.2325 166.609 14.466 165.357 15.7378C165.4 14.9186 165.846 13.1024 164.375 13.835C164.861 13.5931 164.931 13.2992 164.824 12.9585C164.916 13.0101 165.015 13.0569 165.13 13.0951C165.336 13.1154 165.544 13.1354 165.751 13.1553C165.725 11.9954 164.964 11.233 164.066 10.6161C164.066 10.9191 164.056 11.2308 164.076 11.5294C164.071 11.5186 164.066 11.5082 164.061 11.4974C163.667 10.5529 163.834 10.2746 163.493 9.98508C163.627 10.0172 163.781 10.0401 163.969 10.0492C162.87 8.19104 161.409 7.89413 159.389 8.41774C159.527 8.45024 159.671 8.47796 159.818 8.5053C159.589 8.50573 159.367 8.54645 159.16 8.64745C158.376 9.02929 157.216 11.2243 156.671 11.9854C154.756 14.6641 153.864 17.9462 152.86 21.0423C152.579 21.9135 152.151 23.9555 151.062 24.2476C149.796 24.5875 148.455 22.5251 147.341 21.8359C143.775 19.6301 142.002 23.5905 141.453 26.7326C140.634 28.1227 140.822 29.1941 142.004 29.8525C141.674 29.3745 141.521 28.8651 141.459 28.3398C141.615 29.2327 142.36 29.5422 142.494 29.9245C142.568 30.1343 142.671 31.4069 142.668 31.6626C143.278 32.1171 143.323 32.4531 142.805 32.6706C142.489 32.8866 142.193 33.1285 141.916 33.3956C141.062 34.2961 141.07 35.5451 140.288 36.4212C139.405 37.412 138.594 36.9742 138.176 38.6031C137.462 41.3934 139.222 45.6072 142.39 45.8739C142.014 46.9727 141.528 48.0874 141.247 49.2139C140.874 50.7133 140.9 50.8653 141.607 52.2997C136.337 51.5163 136.749 57.0942 139.753 59.8339C140.464 60.4834 141.243 60.8878 142.162 61.1755C142.826 61.3839 144.832 61.2678 145.31 61.8982C146.317 63.2269 144.069 64.9548 143.87 66.4374C143.85 66.5894 143.842 66.8499 143.848 67.1525C143.019 68.1682 143.06 68.2518 144.245 69.2015C144.895 70.0384 146.902 69.8382 147.512 70.6383C148.45 71.8695 146.357 73.8517 147.406 75.2903C148.241 76.4336 149.111 75.721 150.447 76.2056C151.094 76.501 151.74 76.7969 152.386 77.0942C152.688 76.8839 153.019 76.752 153.379 76.6984C154.133 77.0784 153.413 77.7471 154.365 77.9708C154.858 78.1266 156 78.7188 156.499 78.4119C155.791 78.8474 155.316 79.9237 154.909 81.1072C154.523 81.74 154.166 82.4364 154.308 82.9593C154.07 83.6839 153.826 84.3449 153.534 84.8052C155.179 85.0557 154.985 86.6048 156.123 87.4551C157.661 88.7714 157.917 87.5497 157.554 86.9078C157.707 86.9857 157.866 87.087 158.029 87.2027C158.06 87.2242 157.729 88.0061 158.054 88.1887C158.508 88.4449 158.507 88.1878 158.979 88.183C159.424 88.1777 160.069 87.5105 160.612 87.4546C160.901 87.4249 161.755 87.8202 161.932 87.7031C162.425 87.3767 162.386 87.0187 162.195 86.5856L162.415 87.0254C162.945 88.4096 163.212 88.0979 164.015 87.7012C163.798 87.8083 164.645 87.1764 164.819 87.2271C164.423 86.1301 162.854 86.2453 161.887 85.971C162.5 86.1445 163.494 86.1512 164.058 86.394C165.001 86.8002 164.703 87.2132 165.82 87.3399C166.29 87.3929 168.208 86.8719 168.546 86.5307C168.578 86.4982 168.601 86.4585 168.618 86.4145C168.792 86.1368 168.966 85.8586 169.139 85.5805C169.848 85.6627 169.081 86.7524 170.193 86.3189C171.025 85.9944 170.62 85.5432 170.355 85.0509C170.269 84.8893 170.171 84.7746 170.069 84.6919C171.217 84.9668 172.583 86.512 174.15 86.0795C175.034 85.8352 175.083 85.232 175.732 84.6676C176.598 83.9138 176.866 84.03 177.915 83.6653C178.55 83.4444 179.226 82.9569 179.866 82.8432C180.907 82.6582 180.619 82.7729 181.482 83.2117C181.998 83.4736 182.291 83.9659 182.942 84.061C183.537 84.148 184.471 83.464 184.952 83.6519C186.262 84.1638 185.928 86.002 186.003 87.2142C179.373 85.1039 171.623 88.4765 166.744 93.108C165.421 94.3636 164.555 95.8524 163.38 97.218C162.104 98.6997 160.901 99.3727 160.722 101.483C160.567 103.303 161.388 104.396 160.74 106.145C160.118 107.821 159.44 109.321 158.986 111.068C156.814 119.412 156.747 128.077 155.137 136.537C153.649 144.365 151.522 151.338 148.019 158.513C146.394 161.839 145.032 163.876 141.47 165.278C138.587 166.413 136.478 164.926 135.069 162.338C131.278 155.374 130.739 148.212 130.785 140.444C130.807 136.713 131.232 132.981 131.592 129.271C131.965 125.426 131.686 121.833 131.418 117.994C130.881 110.296 129.125 103.693 126.482 96.4537C125.229 93.02 124.172 89.6723 121.154 87.4383C119.463 86.1875 117.766 84.6231 115.784 83.541C114.199 82.6754 113.255 81.8934 111.447 81.5058C110.258 81.2511 109.174 80.8577 108.026 80.4877C105.317 79.6164 102.183 79.3468 99.3406 79.3564C92.7045 79.3789 85.4218 81.6129 79.4486 84.4778C76.4742 85.9041 73.2446 88.0281 71.2854 90.7339C70.4772 91.8509 69.9266 93.0893 69.3774 94.3459C68.7202 95.8477 68.9267 96.1225 67.5353 96.0704C66.6635 96.0374 65.6884 95.2306 64.69 95.1876C63.5969 95.1408 62.7968 95.5217 61.7792 95.8037C60.4877 96.1617 59.2737 96.4824 58.1251 97.2247C55.3386 99.0238 52.9817 101.892 50.8524 104.393C46.9541 108.973 43.4272 114.105 39.7803 118.769C36.1889 123.361 31.826 127.437 26.2476 129.519C24.1197 130.313 21.7633 130.474 19.5905 131.116C18.637 131.398 17.4822 132.146 16.4833 132.133C14.9136 132.113 15.0345 131.344 14.4911 130.098C13.8449 128.618 12.9105 127.467 11.7423 126.361C6.56115 121.456 0.11769 128.724 0.517748 134.323C0.751473 137.594 3.20344 139.752 3.11693 142.962C3.03568 145.966 3.21491 149.013 4.28604 151.863C5.4886 155.061 8.44577 158.377 11.0536 160.551C13.4692 162.567 16.4952 162.994 19.5384 163.331C20.9331 163.485 22.3804 163.9 23.7292 163.875C24.8849 163.854 25.936 163.386 27.1156 163.434C29.1173 163.514 30.1899 163.501 32.0654 162.791C33.4563 162.264 34.711 161.972 36.2257 162.006C36.2257 165.198 36.4283 168.32 36.7027 171.501C36.7385 171.921 37.0291 173.012 36.8355 173.386C36.5975 173.848 36.3146 173.543 36.0173 173.876C35.3089 174.669 34.7956 175.058 34.265 176.089C32.8096 178.914 32.3642 182.075 32.9315 185.226C33.376 187.696 34.8286 188.714 34.4854 191.338C34.0815 194.422 33.3306 197.569 33.1858 200.672C33.116 202.153 33.0988 203.271 32.7852 204.707C32.6046 205.54 31.9952 207.042 32.0444 207.884C32.075 208.405 32.627 208.635 32.628 209.112C32.629 209.528 32.1486 209.473 32.1156 209.829C32.0148 210.904 31.9565 211.878 31.9794 212.958C32.0095 214.421 31.8666 215.874 31.9216 217.336C31.9632 218.449 31.7041 221.085 32.954 220.651C32.6203 221.438 32.5319 222.196 32.4989 222.951C32.4817 222.878 32.4746 222.803 32.4813 222.726C32.5573 221.855 32.5831 221.526 32.954 220.651L32.2404 220.899C31.8045 222.025 32.3398 223.127 32.4598 224.248C32.4559 224.359 32.4521 224.471 32.4449 224.585C32.3446 226.212 32.4674 227.805 32.5888 229.428C32.866 233.134 32.997 237.266 33.9993 240.596C35.0981 244.247 34.7468 248.837 35.1703 252.857C35.6554 257.459 36.4417 261.987 37.0272 266.572C37.5501 270.665 37.8025 275.107 38.6996 279.094C39.4357 282.359 40.058 285.539 40.4528 288.971C40.9991 293.73 42.7355 297.355 44.6474 301.68C45.4557 303.51 45.5111 303.481 44.0275 304.817C43.4057 305.377 42.8785 306.032 42.2452 306.579C40.9771 307.676 39.592 308.314 37.9267 308.511C33.8272 308.997 29.6856 310.454 27.3828 313.988C25.1569 317.405 26.5994 321.408 28.2651 324.889C26.0665 325.076 20.1215 324.941 21.5124 328.946C22.4631 331.684 27.5324 330.767 29.7717 330.796C33.0438 330.84 36.3385 330.68 39.5819 330.635C41.0584 330.615 41.2089 330.462 42.6467 331.025C44.0017 331.555 45.0355 331.614 46.5019 331.517C48.063 331.414 49.623 331.644 51.1358 331.42C53.0429 331.137 54.2292 330.899 56.1454 331.237C57.53 331.483 58.6399 331.362 60.0217 331.18C61.5536 330.977 63.0037 331.099 64.5839 331.057C68.2747 330.958 71.9374 331.027 75.6311 331.069C79.2211 331.108 82.814 330.618 86.3791 330.779C92.597 331.06 98.9257 330.804 105.172 330.949C108.053 331.017 110.279 332.693 113.167 332.521C116.102 332.345 119.078 332.319 121.99 331.909C127.005 331.202 131.837 330.203 136.932 329.942C140.152 329.778 142.983 331.164 146.013 332.035C147.11 332.35 148.098 332.202 149.124 332.436C150.092 332.657 151.086 333.289 152.109 333.551C154.53 334.172 156.845 334.408 158.973 334.466C159.248 334.975 159.566 335.038 159.926 334.653C160.072 334.569 160.219 334.486 160.365 334.404C161.044 334.313 161.528 334.007 162.24 333.962C163.337 333.892 164.461 334.042 165.48 333.944C167.612 333.738 169.615 333.603 171.973 333.846C173.372 333.99 174.596 333.786 175.973 333.812C175.957 333.811 177.862 334.183 177.905 334.166C178.074 334.101 178.341 333.631 178.45 333.61C178.411 333.159 178.546 332.956 178.857 333C179.107 332.946 179.272 333.076 179.351 333.391C179.277 333.4 179.945 333.738 179.992 333.745C180.031 333.751 181.752 333.547 181.872 333.502C182.366 333.317 182.577 332.78 182.97 332.699C183.436 332.604 183.715 333.118 184.119 333.097C185.01 333.048 184.905 332.652 185.59 332.528C187.994 332.094 190.938 332.658 193.422 332.662C195.897 332.666 198.358 332.44 200.742 332.335C203.672 332.206 206.542 332.762 209.494 332.367C212.302 331.991 215.111 331.828 217.94 331.709C223.852 331.46 229.919 331.723 235.777 331.028C241.876 330.305 248.077 331.027 254.185 330.919C260.626 330.804 267.101 330.745 273.539 330.481C279.947 330.218 286.329 329.456 292.712 329.302C294.336 329.263 295.931 328.876 297.548 328.759C299.029 328.651 300.486 328.887 301.979 328.756C304.698 328.518 307.171 328.7 309.904 328.659C312.96 328.612 315.929 328.146 318.969 327.959C322.042 327.769 325.086 328.203 328.134 327.597C329.799 327.265 332.907 324.983 330.781 323.071Z" fill="#1A0D08"/>
<path fill-rule="evenodd" clip-rule="evenodd" d="M210.117 51.2012C210.113 51.2012 210.109 51.2016 210.105 51.2012C210.09 51.2189 210.074 51.238 210.06 51.2547L210.117 51.2012Z" fill="#1A0D08"/>
<path fill-rule="evenodd" clip-rule="evenodd" d="M235.572 37.1281C235.958 35.786 234.98 34.8248 234.325 33.7823C233.94 36.1473 232.755 36.045 235.572 37.1281Z" fill="#1A0D08"/>
<path fill-rule="evenodd" clip-rule="evenodd" d="M164.664 87.5137C164.674 87.5409 164.687 87.5648 164.695 87.5935C164.706 87.5462 164.693 87.5213 164.664 87.5137Z" fill="#1A0D08"/>
<path fill-rule="evenodd" clip-rule="evenodd" d="M153.994 85.7424C154.082 85.9398 154.274 87.3067 154.413 87.3134C155.651 87.3722 154.142 85.0598 153.35 84.9246C152.206 85.6635 154.021 85.8031 153.994 85.7424Z" fill="#1A0D08"/>
<path fill-rule="evenodd" clip-rule="evenodd" d="M153.928 77.755C153.846 76.7107 153.495 76.5783 152.494 77.0859C152.793 77.7426 153.149 77.6485 153.928 77.755Z" fill="#1A0D08"/>
<path fill-rule="evenodd" clip-rule="evenodd" d="M140.066 52.1845C140.544 52.2643 141.023 52.3436 141.5 52.423C141.22 51.7863 140.939 51.1482 140.658 50.5111C140.461 51.0694 140.264 51.6267 140.066 52.1845Z" fill="#1A0D08"/>
<path fill-rule="evenodd" clip-rule="evenodd" d="M149.877 262.008C149.878 262.007 149.878 262.006 149.879 262.005C149.843 262.019 149.838 262.022 149.877 262.008Z" fill="#1A0D08"/>
<path fill-rule="evenodd" clip-rule="evenodd" d="M52.3651 131.836C53.3774 130.144 55.2969 128.052 57.4822 128.756C59.5236 129.414 60.0885 132.09 60.9684 133.773C62.6796 137.046 63.2125 133.532 63.5915 131.545C63.2823 127.567 61.7346 121.092 56.499 121.778C52.5166 122.301 49.0776 128.698 49.8361 132.481C50.4733 135.66 51.5487 133.202 52.3651 131.836Z" fill="#1A0D08"/>
<path fill-rule="evenodd" clip-rule="evenodd" d="M203.285 56.8619C201.33 56.1641 201.332 58.2767 201.256 59.865C201.187 61.3242 201.413 64.7474 203.255 65.2684C205.09 65.7884 205.263 62.7653 205.547 61.5431C205.12 60.0925 204.883 57.4321 203.285 56.8619Z" fill="#1A0D08"/>
<path fill-rule="evenodd" clip-rule="evenodd" d="M205.547 53.6915C204.112 52.423 203.154 52.0344 201.321 52.8536C200.377 53.2752 199.029 54.1924 198.882 55.3491C198.421 58.9491 204.283 54.4299 205.547 53.6915Z" fill="#1A0D08"/>
<path fill-rule="evenodd" clip-rule="evenodd" d="M205.847 75.2569C209.192 76.121 209.405 71.5493 205.686 71.5416C203.197 71.5369 203.979 74.7741 205.847 75.2569Z" fill="#1A0D08"/>
<path fill-rule="evenodd" clip-rule="evenodd" d="M180.278 61.0449C179.03 61.227 178.589 62.0104 178.856 63.2608C179.166 64.7033 179.948 64.7152 181.348 64.85C184.722 64.8605 182.52 60.7175 180.278 61.0449Z" fill="#1A0D08"/>
<path fill-rule="evenodd" clip-rule="evenodd" d="M209.895 53.3028C210.203 54.1593 211.88 54.546 212.757 54.2196C213.799 53.831 214.016 52.887 213.075 52.02C212.269 51.2777 211.158 51.4736 210.15 51.5425C210.183 51.8665 209.702 52.7704 209.895 53.3028Z" fill="#1A0D08"/>
<path fill-rule="evenodd" clip-rule="evenodd" d="M104.965 150.884C106.56 150.882 105.055 148.184 103.741 148.016C103.768 148.851 103.713 150.886 104.965 150.884Z" fill="#1A0D08"/>
</svg>
