<svg width="21" height="21" viewBox="0 0 21 21" fill="none" xmlns="http://www.w3.org/2000/svg">
<path d="M18.0105 20.717H3.09658C2.33619 20.7161 1.60718 20.4137 1.06951 19.876C0.531827 19.3383 0.229386 18.6093 0.228516 17.8489V2.93496C0.229386 2.17457 0.531827 1.44558 1.06951 0.907902C1.60718 0.370223 2.33619 0.0677644 3.09658 0.0668945H18.0105C18.7709 0.0677644 19.4999 0.370223 20.0376 0.907902C20.5753 1.44558 20.8777 2.17457 20.8786 2.93496V17.8489C20.8777 18.6093 20.5753 19.3383 20.0376 19.876C19.4999 20.4137 18.7709 20.7161 18.0105 20.717ZM3.09658 1.21412C2.64034 1.21462 2.20293 1.39608 1.88032 1.71869C1.5577 2.04131 1.37624 2.47872 1.37574 2.93496V17.8489C1.37624 18.3052 1.5577 18.7426 1.88032 19.0652C2.20293 19.3878 2.64034 19.5693 3.09658 19.5698H18.0105C18.4668 19.5693 18.9042 19.3878 19.2268 19.0652C19.5494 18.7426 19.7309 18.3052 19.7314 17.8489V2.93496C19.7309 2.47872 19.5494 2.04131 19.2268 1.71869C18.9042 1.39608 18.4668 1.21462 18.0105 1.21412H3.09658Z" fill="#F2F2F2"/>
</svg>
