<svg width="300" height="261" viewBox="0 0 300 261" fill="none" xmlns="http://www.w3.org/2000/svg">
<g clip-path="url(#clip0_95_3127)">
<path d="M300 126.593C300 184.564 248.994 233.432 179.394 248.435C168.091 250.865 156.607 252.365 145.059 252.92C144.498 252.949 143.936 252.977 143.37 252.997C140.365 253.121 137.337 253.184 134.286 253.185C128.981 253.185 123.74 252.997 118.561 252.62C115.688 252.415 112.839 252.154 110.014 251.837C82.5413 248.756 57.259 240.526 35.9047 228.469C33.2364 226.964 30.631 225.399 28.0884 223.774C23.4326 220.81 18.9377 217.601 14.6226 214.16C-13.9018 191.426 9.87999 142.899 24.746 112.348C64.8705 29.8927 42.766 0 134.286 0C225.806 0 300 56.6758 300 126.593Z" fill="#F2F2F2"/>
<path d="M234.412 52.1889C205.967 51.6788 205.971 9.40629 234.413 8.90039C262.857 9.41044 262.853 51.683 234.412 52.1889Z" fill="white"/>
<path d="M180.618 115.185C152.173 114.674 152.178 72.4019 180.619 71.896C209.063 72.406 209.059 114.679 180.618 115.185Z" fill="white"/>
<path d="M236.731 179.153C208.286 178.643 208.291 136.37 236.732 135.864C265.177 136.374 265.172 178.647 236.731 179.153Z" fill="white"/>
<path d="M234.412 52.1889C205.967 51.6788 205.971 9.40629 234.413 8.90039C262.857 9.41044 262.853 51.683 234.412 52.1889ZM234.412 10.2121C207.691 10.6914 207.695 50.4018 234.413 50.8771C261.133 50.3979 261.129 10.6875 234.412 10.2121Z" fill="#E6E6E6"/>
<path d="M109.914 251.536C109.85 251.332 109.806 251.123 109.782 250.91L101.52 203.804C101.508 203.683 101.489 203.562 101.464 203.443C101.289 202.584 100.854 201.801 100.217 201.199C99.5796 200.597 98.7723 200.206 97.9051 200.081L50.7949 200.285C49.9036 200.152 48.9928 200.306 48.1958 200.727C47.3989 201.148 46.7574 201.813 46.3652 202.624C45.5989 204.221 44.8486 205.841 44.1142 207.484C41.141 214.1 38.4045 221.095 35.9048 228.469C57.2591 240.526 82.5414 248.756 110.015 251.837L109.914 251.536Z" fill="#2F2E41"/>
<path d="M155.902 125.481C155.786 125.99 155.71 126.508 155.676 127.029L115.128 150.421L105.272 144.747L94.7656 158.502L111.237 170.242C112.568 171.19 114.17 171.681 115.804 171.641C117.437 171.602 119.014 171.033 120.297 170.021L162.109 137.035C163.996 137.734 166.05 137.841 168 137.343C169.949 136.846 171.701 135.766 173.022 134.248C174.343 132.73 175.171 130.846 175.395 128.847C175.619 126.847 175.229 124.827 174.277 123.054C173.325 121.282 171.855 119.841 170.065 118.924C168.274 118.007 166.246 117.657 164.251 117.92C162.256 118.184 160.389 119.048 158.898 120.399C157.406 121.749 156.361 123.522 155.902 125.481Z" fill="#FFB8B8"/>
<path d="M114.573 148.083C114.45 147.485 114.2 146.92 113.839 146.427C113.478 145.934 113.016 145.525 112.483 145.226L93.8768 134.822C91.4045 132.915 88.2765 132.065 85.1788 132.46C82.0811 132.855 79.2665 134.462 77.3518 136.929C75.4372 139.396 74.5789 142.522 74.9651 145.62C75.3513 148.719 76.9505 151.538 79.412 153.46L94.2459 168.864C94.6694 169.304 95.1826 169.647 95.7506 169.871C96.3187 170.094 96.9283 170.193 97.5379 170.16C98.1475 170.127 98.7428 169.962 99.2832 169.679C99.8237 169.395 100.297 168.998 100.67 168.515L103.559 164.767L104.546 163.491L113.774 151.53C114.112 151.093 114.358 150.594 114.501 150.061C114.681 149.417 114.706 148.739 114.573 148.083Z" fill="#F97316"/>
<path d="M87.6338 116.358C96.6874 107.305 96.6874 92.6259 87.6338 83.5723C78.5801 74.5186 63.9013 74.5186 54.8476 83.5723C45.794 92.6259 45.794 107.305 54.8476 116.358C63.9013 125.412 78.5801 125.412 87.6338 116.358Z" fill="#FFB8B8"/>
<path d="M100.553 187.714C101.484 186.322 107.403 176.925 105.164 165.911C104.999 165.094 104.793 164.287 104.546 163.491C103.491 160.176 101.805 157.096 99.5823 154.419C99.6105 153.681 99.6025 152.955 99.5584 152.232V152.228C99.2312 147.21 97.1021 142.479 93.5631 138.906C90.0242 135.333 85.3136 133.159 80.2987 132.784L54.3702 130.814C51.0328 130.542 47.6793 131.085 44.5983 132.396C41.5172 133.707 38.801 135.748 36.6833 138.341C36.1956 138.933 35.7389 139.549 35.315 140.187L35.3135 140.187L35.3122 140.188L35.3113 140.19L35.3111 140.191C33.6762 142.658 32.5914 145.449 32.1303 148.372C31.6692 151.296 31.8426 154.285 32.6387 157.136L32.8595 158.107L35.624 170.228L40.2463 190.511L44.1144 207.484L44.5236 209.273C44.7394 210.211 45.2661 211.047 46.018 211.647C46.7699 212.246 47.7027 212.574 48.6644 212.576C48.8957 212.577 49.1266 212.558 49.3546 212.519L99.5262 204.294C100.234 204.181 100.902 203.888 101.464 203.443C101.802 203.174 102.098 202.856 102.343 202.5C102.67 202.028 102.896 201.493 103.008 200.929C103.12 200.365 103.115 199.784 102.993 199.222L100.553 187.714Z" fill="#F97316"/>
<path d="M1.81423 256.175C0.963254 254.961 0.388767 253.576 0.131237 252.116C-0.126294 250.656 -0.0606013 249.157 0.323685 247.726C0.707972 246.294 1.40151 244.964 2.35544 243.829C3.30937 242.694 4.50049 241.783 5.84491 241.158L34.4108 153.331L50.9653 161.186L19.7097 246.702C20.6092 249.03 20.6235 251.608 19.7498 253.945C18.8762 256.283 17.1753 258.22 14.9695 259.387C12.7636 260.555 10.2061 260.873 7.78149 260.281C5.3569 259.689 3.23371 258.228 1.81423 256.175Z" fill="#FFB8B8"/>
<path d="M50.7709 132.583C47.7107 131.663 44.4153 131.935 41.5477 133.346C38.6802 134.757 36.4533 137.201 35.315 140.187L35.3134 140.187L35.3122 140.188L35.3113 140.189L35.3111 140.191C35.2066 140.46 35.1104 140.741 35.0262 141.022L32.6066 146.153L25.296 161.662C25.0165 162.252 24.8679 162.897 24.8602 163.55C24.8525 164.204 24.9859 164.851 25.2514 165.449C25.5169 166.046 25.9082 166.579 26.3985 167.011C26.8888 167.443 27.4667 167.765 28.0926 167.953L29.5171 168.382L35.6239 170.228L46.4616 173.502L50.0729 174.594C50.6985 174.783 51.3576 174.835 52.0051 174.746C52.6527 174.657 53.2735 174.43 53.8253 174.08C54.3771 173.729 54.8469 173.264 55.2026 172.716C55.5583 172.167 55.7917 171.549 55.8868 170.902L59.2253 148.256C60.1737 145.057 59.8168 141.612 58.2325 138.675C56.6482 135.738 53.9655 133.548 50.7709 132.583Z" fill="#F97316"/>
<path d="M92.5285 91.5351C84.2677 98.7615 71.5858 100.439 61.7299 95.6101C66.1572 100.862 74.5654 126.79 74.5654 126.79C74.5654 126.79 50.8241 124.295 47.4698 123.577C27.6581 119.341 34.8595 68.0324 55.9699 68.2914C59.5454 68.3353 62.6711 68.7677 65.0509 71.4364C66.6305 67.0088 71.6532 64.4006 76.342 64.7382C81.0309 65.0759 85.2712 67.8922 88.2875 71.4979C90.6945 74.417 92.4319 77.8286 93.3772 81.4921C94.3225 85.1556 94.4527 88.9819 93.7587 92.7012L92.5285 91.5351Z" fill="#2F2E41"/>
<path d="M180.618 115.185C152.173 114.674 152.178 72.4019 180.619 71.896C209.063 72.4061 209.059 114.679 180.618 115.185ZM180.618 73.2077C153.897 73.687 153.901 113.397 180.619 113.873C207.339 113.393 207.335 73.6831 180.618 73.2077Z" fill="#E6E6E6"/>
<path d="M236.731 179.153C208.286 178.643 208.291 136.37 236.732 135.864C265.177 136.374 265.172 178.647 236.731 179.153ZM236.731 137.176C210.01 137.655 210.015 177.366 236.732 177.841C263.453 177.362 263.448 137.651 236.731 137.176Z" fill="#E6E6E6"/>
<path d="M239.035 19.4491C233.699 19.6024 223.322 17.6951 223.317 25.922C223.47 31.2578 221.563 41.6344 229.79 41.6397C235.125 41.4866 245.502 43.3939 245.507 35.1671C245.354 29.8313 247.262 19.4547 239.035 19.4491Z" fill="#3F3D56"/>
<path d="M240.422 25.922C238.626 25.9445 238.632 23.1236 240.428 23.1541C242.223 23.1318 242.217 25.9522 240.422 25.922Z" fill="white"/>
<path d="M234.412 26.8459C239.211 26.7754 239.211 34.3142 234.412 34.2432C229.613 34.3128 229.613 26.7755 234.412 26.8459ZM234.412 24.9968C227.215 24.8917 227.214 36.1983 234.413 36.0922C241.611 36.1974 241.61 24.8908 234.412 24.9968Z" fill="white"/>
<path d="M197.658 161.158C197.528 161.161 197.4 161.126 197.29 161.058C197.181 160.989 197.094 160.889 197.041 160.77C196.988 160.652 196.972 160.521 196.993 160.393C197.015 160.265 197.074 160.147 197.164 160.053L199.347 157.746C199.415 157.673 199.452 157.577 199.45 157.477C199.447 157.377 199.405 157.283 199.332 157.214L197.013 155.019C196.948 154.958 196.897 154.885 196.861 154.805C196.825 154.724 196.805 154.637 196.803 154.549C196.8 154.461 196.815 154.373 196.847 154.29C196.878 154.208 196.926 154.132 196.986 154.068C197.109 153.939 197.277 153.864 197.454 153.859C197.632 153.853 197.804 153.918 197.934 154.039L201.055 156.955C201.117 157.013 201.166 157.082 201.201 157.159C201.235 157.235 201.254 157.318 201.257 157.403C201.259 157.487 201.244 157.57 201.214 157.649C201.184 157.728 201.138 157.799 201.08 157.86L198.112 160.957C197.993 161.081 197.83 161.153 197.658 161.158Z" fill="#CCCCCC"/>
<path d="M195.273 157.8C195.202 157.865 195.109 157.903 195.013 157.905L187.736 158.106C187.683 158.107 187.631 158.098 187.582 158.08C187.532 158.061 187.487 158.033 187.449 157.996C187.411 157.96 187.38 157.917 187.358 157.869C187.337 157.82 187.325 157.769 187.323 157.716C187.322 157.663 187.331 157.611 187.35 157.561C187.369 157.512 187.397 157.467 187.433 157.429C187.469 157.391 187.513 157.36 187.561 157.338C187.609 157.317 187.661 157.305 187.714 157.304L194.99 157.103C195.072 157.101 195.153 157.124 195.221 157.168C195.289 157.213 195.343 157.278 195.373 157.353C195.404 157.429 195.411 157.512 195.393 157.592C195.375 157.672 195.333 157.744 195.273 157.8Z" fill="#CCCCCC"/>
<path d="M141.484 97.1892C141.354 97.193 141.226 97.1582 141.117 97.0893C141.007 97.0204 140.92 96.9205 140.867 96.8022C140.814 96.6838 140.798 96.5525 140.82 96.4248C140.841 96.297 140.901 96.1786 140.99 96.0846L143.173 93.7773C143.242 93.7048 143.278 93.6082 143.276 93.5086C143.273 93.409 143.231 93.3146 143.159 93.246L140.839 91.0506C140.775 90.9899 140.723 90.9171 140.687 90.8365C140.651 90.7559 140.631 90.6689 140.629 90.5806C140.626 90.4923 140.641 90.4044 140.673 90.3219C140.704 90.2394 140.752 90.1639 140.813 90.0998C140.935 89.9711 141.103 89.8959 141.28 89.8905C141.458 89.885 141.63 89.9497 141.76 90.0706L144.881 92.9871C144.943 93.0445 144.992 93.1137 145.027 93.1904C145.061 93.2672 145.08 93.3501 145.083 93.4342C145.085 93.5184 145.071 93.6022 145.04 93.6807C145.01 93.7593 144.964 93.831 144.906 93.8918L141.939 96.9883C141.819 97.1126 141.656 97.1849 141.484 97.1892Z" fill="#CCCCCC"/>
<path d="M139.099 93.8313C139.028 93.8969 138.935 93.9345 138.838 93.937L131.562 94.1376C131.509 94.1391 131.456 94.1302 131.407 94.1114C131.358 94.0927 131.313 94.0644 131.275 94.0281C131.236 93.9919 131.205 93.9485 131.184 93.9004C131.162 93.8522 131.151 93.8003 131.149 93.7476C131.148 93.6949 131.157 93.6425 131.175 93.5932C131.194 93.544 131.223 93.4989 131.259 93.4606C131.295 93.4224 131.339 93.3916 131.387 93.3702C131.435 93.3487 131.487 93.3369 131.54 93.3355L138.816 93.1349C138.898 93.1327 138.978 93.1554 139.047 93.2001C139.115 93.2448 139.168 93.3093 139.199 93.385C139.23 93.4608 139.237 93.5441 139.219 93.6238C139.201 93.7036 139.159 93.7759 139.099 93.8313Z" fill="#CCCCCC"/>
<path d="M195.25 34.1941C195.121 34.1979 194.993 34.1631 194.883 34.0942C194.774 34.0253 194.687 33.9253 194.634 33.807C194.581 33.6887 194.564 33.5574 194.586 33.4296C194.608 33.3019 194.667 33.1835 194.756 33.0895L196.94 30.7822C197.008 30.7097 197.045 30.6131 197.042 30.5135C197.04 30.4139 196.997 30.3195 196.925 30.2509L194.605 28.0555C194.541 27.9948 194.49 27.922 194.454 27.8414C194.418 27.7607 194.398 27.6738 194.395 27.5855C194.393 27.4972 194.408 27.4093 194.439 27.3268C194.471 27.2443 194.518 27.1688 194.579 27.1046C194.701 26.976 194.87 26.9008 195.047 26.8953C195.224 26.8899 195.397 26.9546 195.527 27.0755L198.648 29.9919C198.709 30.0494 198.759 30.1186 198.793 30.1953C198.828 30.2721 198.847 30.355 198.849 30.4391C198.852 30.5233 198.837 30.6071 198.807 30.6856C198.777 30.7642 198.731 30.8359 198.673 30.8967L195.705 33.9932C195.586 34.1175 195.423 34.1898 195.25 34.1941Z" fill="#CCCCCC"/>
<path d="M192.866 30.8361C192.795 30.9018 192.702 30.9394 192.605 30.9419L185.329 31.1425C185.276 31.144 185.224 31.1351 185.174 31.1163C185.125 31.0975 185.08 31.0692 185.042 31.033C185.003 30.9968 184.973 30.9534 184.951 30.9053C184.929 30.8571 184.918 30.8052 184.916 30.7525C184.915 30.6998 184.924 30.6473 184.943 30.5981C184.961 30.5488 184.99 30.5038 185.026 30.4655C185.062 30.4273 185.106 30.3965 185.154 30.375C185.202 30.3536 185.254 30.3418 185.307 30.3404L192.583 30.1398C192.665 30.1375 192.745 30.1603 192.814 30.205C192.882 30.2497 192.935 30.3142 192.966 30.3899C192.997 30.4657 193.004 30.549 192.986 30.6287C192.968 30.7084 192.926 30.7808 192.866 30.8361Z" fill="#CCCCCC"/>
<path d="M187.8 238.692C185.918 242.6 182.853 245.762 179.394 248.434C168.091 250.865 156.608 252.365 145.06 252.92C144.498 252.948 143.936 252.977 143.37 252.997C140.365 253.121 137.337 253.184 134.286 253.185C128.982 253.185 123.74 252.997 118.561 252.619C118.364 251.428 118.337 250.215 118.481 249.016C119.055 244.326 122.614 240.016 127.232 239.021C131.851 238.026 137.115 240.783 138.515 245.293C139.29 236.594 140.176 227.534 144.803 220.127C148.988 213.422 156.238 208.623 164.099 207.764C168.718 207.283 173.379 208.137 177.528 210.224C177.91 210.417 178.287 210.617 178.66 210.826C181.15 212.237 183.347 214.113 185.132 216.351C190.035 222.554 191.235 231.574 187.8 238.692Z" fill="white"/>
<path d="M178.659 210.826C178.669 210.931 178.651 211.037 178.608 211.134C178.564 211.23 178.496 211.313 178.411 211.376C164.485 222.713 153.118 236.872 145.059 252.92C144.498 252.949 143.936 252.977 143.37 252.997C144.084 251.548 144.825 250.114 145.593 248.695C149.581 241.348 154.272 234.405 159.6 227.963C164.928 221.517 170.876 215.611 177.359 210.328C177.411 210.286 177.468 210.251 177.528 210.224C177.641 210.176 177.763 210.153 177.886 210.158C178.009 210.164 178.129 210.196 178.238 210.254C178.346 210.312 178.441 210.393 178.514 210.492C178.587 210.591 178.636 210.705 178.659 210.826Z" fill="#F2F2F2"/>
<path d="M248.483 152.048C248.483 152.048 246.645 154.106 246.292 154.238C245.321 164.803 238.725 167.203 233.428 167.203C229.62 167.203 226.483 165.963 226.587 165.622C232.237 165.754 232.718 163.435 232.718 163.435C229.436 162.949 228.778 160.807 228.778 160.807C229.072 160.962 229.413 161.003 229.736 160.922C230.059 160.842 230.34 160.645 230.527 160.369C226.984 159.447 227.466 155.988 227.466 155.988C228.097 156.444 228.835 156.732 229.608 156.822C229.215 156.341 225.901 152.369 227.895 150.31C228.011 150.623 231.462 155.322 237.228 154.981C237.091 154.31 237.105 153.617 237.267 152.952C237.43 152.287 237.738 151.667 238.17 151.135C238.601 150.603 239.144 150.174 239.761 149.877C240.378 149.58 241.053 149.424 241.738 149.419C244.803 149.419 245.462 151.173 245.462 151.173L247.652 149.857C247.608 149.857 247.387 152.048 246.292 152.485L248.483 152.048Z" fill="#3F3D56"/>
<path fill-rule="evenodd" clip-rule="evenodd" d="M192.544 93.6103C192.545 96.4739 191.523 99.2438 189.664 101.422C187.805 103.6 185.229 105.043 182.401 105.491V97.0891H185.201L185.735 93.6103H182.401C182.288 90.7133 182.176 89.0882 185.876 89.4774V86.5203C180.334 85.3005 178.023 88.1092 178.645 93.6103H175.592V97.0891H178.645V105.487C164.273 103.276 165.962 81.5328 180.519 81.589C182.098 81.5887 183.661 81.8994 185.12 82.5033C186.579 83.1073 187.905 83.9927 189.021 85.109C190.138 86.2253 191.024 87.5506 191.628 89.0092C192.233 90.4679 192.544 92.0313 192.544 93.6103Z" fill="#3F3D56"/>
</g>
<defs>
<clipPath id="clip0_95_3127">
<rect width="300" height="260.57" fill="white"/>
</clipPath>
</defs>
</svg>
