<svg width="211" height="114" viewBox="0 0 211 114" fill="none" xmlns="http://www.w3.org/2000/svg">
<g id="Group 48095468" opacity="0.5">
<path id="Vector 9" d="M6.93525 52.7182C6.93525 52.7182 43.4674 76.2028 71.0596 67.8023C99.2524 59.219 81.123 28.3732 109.4 20.0002C134.475 12.5753 145.629 40.7461 169.405 30.8943C184.911 24.4694 195.946 4.68826 195.946 4.68826" stroke="#F2AF1A"/>
<path id="Vector 10" d="M8.03144 68.7804C8.03144 68.7804 44.5636 92.2649 72.1558 83.8645C100.349 75.2812 82.2192 44.4354 110.496 36.0624C135.571 28.6374 146.725 56.8082 170.501 46.9565C186.007 40.5315 197.042 20.7504 197.042 20.7504" stroke="#65B32E"/>
<path id="Vector 11" d="M9.13007 84.8482C9.13007 84.8482 45.6622 108.333 73.2545 99.9323C101.447 91.349 83.3178 60.5032 111.595 52.1302C136.67 44.7052 147.823 72.876 171.599 63.0243C187.105 56.5993 198.141 36.8182 198.141 36.8182" stroke="#326CF9"/>
</g>
</svg>
