<svg xmlns="http://www.w3.org/2000/svg" width="135" height="64" viewBox="0 0 135 64" fill="none">
  <path d="M125.319 18.5688C122.216 22.6265 119.114 26.6843 115.879 30.7231C115.715 30.3986 115.654 30.0931 115.653 29.7875C115.646 27.0257 115.651 24.2639 115.647 21.502C115.647 21.1151 115.755 20.6696 114.992 20.6101C116.591 18.4987 118.183 16.3838 119.792 14.2771C121.348 12.24 122.923 10.2114 124.589 8.20947C124.762 8.59431 124.897 8.94842 124.899 9.30303C124.917 12.112 124.897 14.9211 124.927 17.73C124.93 18.0104 125.182 18.2892 125.319 18.5688Z" fill="#EE6830"/>
  <path d="M65.3379 19.0649C67.4233 16.3183 69.5075 13.5712 71.5954 10.8258C71.9032 10.421 72.2288 10.0243 72.6261 9.52283C74.0806 11.416 75.4921 13.2216 76.8385 15.0557C76.9706 15.2357 76.784 15.6273 76.6073 15.8581C73.151 20.3738 69.6741 24.8801 66.0684 29.3711C65.8989 29.0496 65.8316 28.7454 65.8307 28.4411C65.8226 25.6278 65.8412 22.8144 65.8045 20.0014C65.8004 19.6881 65.5006 19.377 65.3379 19.0649Z" fill="#EF6930"/>
  <path d="M40.9069 14.8364C42.5294 16.91 44.1591 18.9802 45.7725 21.0579C47.6131 23.4284 49.4283 25.8106 51.2816 28.1751C51.5973 28.5779 51.6563 28.8809 51.3128 29.3096C49.9712 30.9842 48.6889 32.6869 47.2595 34.5414C44.8579 31.4077 42.5486 28.3943 40.2627 25.2531C40.3481 24.795 40.462 24.4649 40.4637 24.1345C40.4779 21.3112 40.4598 18.4878 40.4908 15.6647C40.4939 15.3877 40.7619 15.1125 40.9069 14.8364Z" fill="#EF6930"/>
  <path d="M14.8906 38.5942C17.193 35.5547 19.4954 32.5152 21.8897 29.3542C22.9484 30.7188 23.8062 32.0678 24.9589 33.2455C26.2611 34.5759 26.1434 35.6196 24.9838 37.0263C21.7697 40.9253 18.8065 44.947 15.6107 48.9104C15.4314 48.5981 15.3471 48.2957 15.3459 47.993C15.3355 45.3431 15.3622 42.693 15.3196 40.0435C15.3119 39.5591 15.0404 39.0773 14.8906 38.5942Z" fill="#EF6930"/>
  <path d="M99.5193 36.4574C97.4548 33.8088 95.3867 31.1619 93.3274 28.5109C92.5218 27.4737 91.7357 26.4276 90.9648 25.2573C91.0516 24.799 91.1668 24.4692 91.1686 24.139C91.183 21.3453 91.167 18.5515 91.1884 15.7579C91.1913 15.3752 91.3497 14.9932 91.4362 14.6108C93.9913 17.8943 96.5473 21.1774 99.1004 24.4617C99.4759 24.9447 99.8378 25.4338 100.13 25.9945C99.9613 26.3496 99.7892 26.6298 99.787 26.9108C99.7665 29.5939 99.7876 32.2773 99.7632 34.9603C99.7587 35.4598 99.6044 35.9584 99.5193 36.4574Z" fill="#EE6830"/>
  <path d="M73.8066 28.0793C75.9349 25.2818 78.0632 22.4844 80.277 19.5745C81.7522 21.4879 83.1719 23.312 84.5517 25.1538C84.6562 25.2932 84.5491 25.5914 84.4192 25.7606C81.4922 29.5735 78.5477 33.3786 75.608 37.1857C75.2746 37.6176 74.9498 38.0534 74.5243 38.4563C74.3527 38.0706 74.2151 37.7162 74.2129 37.3612C74.195 34.5504 74.2143 31.7395 74.1856 28.9288C74.1828 28.6449 73.9387 28.3624 73.8066 28.0793Z" fill="#F05F2A"/>
  <path d="M73.7582 28.1255C73.9385 28.3624 74.1825 28.6449 74.1854 28.9288C74.214 31.7395 74.1948 34.5504 74.2126 37.3612C74.2149 37.7162 74.3524 38.0706 74.4684 38.5016C72.1733 41.6373 69.8378 44.6969 67.5005 47.7556C67.1481 48.2168 66.7873 48.6743 66.3498 49.0954C66.1947 48.6702 66.0582 48.2834 66.0556 47.896C66.0371 45.0976 66.0554 42.299 66.0319 39.5006C66.0293 39.1908 65.8368 38.882 65.7324 38.5727C68.3916 35.1057 71.0508 31.6387 73.7582 28.1255Z" fill="#EF6930"/>
  <path d="M125.371 18.5244C125.182 18.2892 124.93 18.0103 124.927 17.7299C124.897 14.9211 124.917 12.1119 124.899 9.30297C124.897 8.94836 124.762 8.59424 124.644 8.166C126.629 5.42352 128.659 2.75494 130.755 0C132.208 1.87894 133.618 3.65643 134.941 5.47132C135.102 5.69274 134.905 6.16334 134.695 6.43699C131.945 10.0222 129.161 13.5921 126.39 17.1678C126.055 17.5995 125.745 18.0424 125.371 18.5244Z" fill="#F05F2A"/>
  <path d="M99.5342 36.5145C99.6068 35.9585 99.7611 35.4599 99.7656 34.9604C99.79 32.2773 99.7689 29.594 99.7894 26.9109C99.7915 26.6299 99.9637 26.3497 100.146 26.0537C102.951 29.5314 105.538 33.0905 108.442 36.4885C109.804 38.0824 109.957 39.2975 108.409 40.8036C107.311 41.8717 106.552 43.1463 105.568 44.4239C103.523 41.7564 101.535 39.164 99.5342 36.5145Z" fill="#F05F2A"/>
  <path d="M91.8694 35.0304C94.1448 37.9633 96.4203 40.8963 98.6722 43.9591C98.5835 44.447 98.4639 44.8049 98.4619 45.1632C98.4463 47.9578 98.4621 50.7524 98.4422 53.5469C98.4397 53.902 98.2863 54.2564 98.2029 54.6112C95.8601 51.5947 93.5174 48.5782 91.2002 45.4354C91.2834 44.979 91.3891 44.649 91.3909 44.3187C91.4047 41.7272 91.3738 39.1353 91.4198 36.5442C91.4288 36.0381 91.7124 35.5349 91.8694 35.0304Z" fill="#EF6A30"/>
  <path d="M41.4326 35.36C43.6533 38.218 45.8741 41.0761 48.0296 44.009C47.8922 44.373 47.7592 44.6619 47.7575 44.9513C47.7416 47.6805 47.7684 50.4099 47.7243 53.1387C47.7182 53.5138 47.3922 53.8858 47.2142 54.2592C45.0335 51.4376 42.8527 48.6159 40.6787 45.6596C40.7616 45.11 40.9005 44.6952 40.9036 44.2799C40.9235 41.5974 40.8979 38.9146 40.9365 36.2323C40.9407 35.9402 41.2596 35.6507 41.4326 35.36Z" fill="#EF6A30"/>
  <path d="M98.2158 54.669C98.2858 54.2566 98.4391 53.9021 98.4416 53.547C98.4616 50.7526 98.4458 47.9579 98.4614 45.1634C98.4634 44.8051 98.583 44.4472 98.6854 44.0151C100.392 46.0805 102.062 48.2198 103.709 50.4789C103.558 51.1177 103.328 51.6358 103.32 52.1559C103.282 54.7518 103.313 57.3482 103.29 59.9443C103.287 60.256 103.107 60.5667 103.009 60.8779C101.416 58.8275 99.8224 56.777 98.2158 54.669Z" fill="#F0622B"/>
  <path d="M47.2402 54.3162C47.3916 53.8856 47.7177 53.5136 47.7238 53.1385C47.7678 50.4097 47.741 47.6803 47.757 44.9511C47.7587 44.6617 47.8917 44.3728 48.046 44.064C49.7612 46.1481 51.3943 48.2519 52.9899 50.4695C52.8342 50.8872 52.6161 51.1905 52.6132 51.4951C52.5867 54.2759 52.6065 57.057 52.5865 59.8378C52.5839 60.1911 52.4299 60.5438 52.3461 60.8967C50.653 58.7223 48.9599 56.5478 47.2402 54.3162Z" fill="#F0622B"/>
  <path d="M114.932 20.6438C115.755 20.6695 115.647 21.115 115.647 21.502C115.651 24.2638 115.646 27.0256 115.653 29.7874C115.654 30.0931 115.715 30.3986 115.816 30.7533C114.967 32.0357 114.05 33.269 113.03 34.6404C111.799 33.0568 110.752 31.5485 109.497 30.1515C108.644 29.2023 108.733 28.4918 109.519 27.547C111.389 25.2998 113.097 22.9725 114.932 20.6438Z" fill="#E8592F"/>
  <path d="M52.3613 60.9544C52.4314 60.5439 52.5854 60.1913 52.588 59.838C52.608 57.0571 52.5881 54.276 52.6146 51.4952C52.6175 51.1907 52.8356 50.8874 53.0043 50.5278C54.9683 52.9223 56.8915 55.3683 58.7769 57.8313C58.9216 58.0203 58.924 58.3849 58.7826 58.5755C57.459 60.359 56.0896 62.1224 54.6503 64.0001C53.8491 62.9478 53.1121 61.9798 52.3613 60.9544Z" fill="#F05C29"/>
  <path d="M103.033 60.9358C103.109 60.5667 103.289 60.256 103.292 59.9443C103.315 57.3482 103.284 54.7517 103.322 52.1559C103.33 51.6358 103.56 51.1177 103.723 50.5372C105.67 52.9284 107.594 55.3756 109.472 57.8437C109.627 58.0474 109.594 58.4494 109.433 58.6646C108.139 60.4016 106.794 62.1159 105.354 63.9799C104.549 62.9342 103.802 61.9639 103.033 60.9358Z" fill="#F05C29"/>
  <path d="M58.2637 28.2991C59.4846 26.6515 60.7055 25.0039 62.031 23.3936C62.1898 23.7624 62.2896 24.0938 62.2912 24.4255C62.304 27.1087 62.2869 29.792 62.3091 32.4751C62.3131 32.9469 62.4581 33.418 62.5379 33.8894C62.0136 34.6555 61.512 35.4315 60.9592 36.1852C60.2928 37.0938 59.5828 37.9834 58.765 38.8635C58.6091 38.5389 58.5554 38.2319 58.5547 37.9249C58.548 35.2423 58.566 32.5597 58.5378 29.8772C58.5323 29.3507 58.3594 28.8252 58.2637 28.2991Z" fill="#E7552E"/>
  <path d="M4.30371 52.3436C5.51977 50.7331 6.73583 49.1225 8.07553 47.5269C8.22735 47.8777 8.27199 48.2134 8.28116 48.5496C8.3689 51.7661 8.45064 54.9826 8.5341 58.1991C7.32246 59.8075 6.11082 61.4159 4.83016 62.9789C4.68606 61.7299 4.56779 60.5268 4.54569 59.3226C4.50951 57.3516 4.54726 55.3799 4.52544 53.4086C4.52151 53.0532 4.38111 52.6986 4.30371 52.3436Z" fill="#E3492C"/>
  <path d="M8.59821 58.1635C8.45143 54.9823 8.36969 51.7658 8.28195 48.5494C8.27278 48.2131 8.22814 47.8774 8.13574 47.4912C9.19254 45.9268 10.3135 44.4127 11.5806 42.9044C11.8286 43.2231 12.0163 43.5356 12.0188 43.8489C12.0418 46.6688 12.0246 49.4889 12.0419 52.3088C12.0441 52.6653 12.1776 53.0213 12.2503 53.3775C11.0541 54.9611 9.85779 56.5446 8.59821 58.1635Z" fill="#E7552E"/>
  <path d="M58.1956 28.3311C58.3591 28.8254 58.532 29.3509 58.5376 29.8775C58.5657 32.5599 58.5478 35.2425 58.5544 37.9251C58.5552 38.2321 58.6088 38.5391 58.7027 38.8964C57.6327 40.4532 56.498 41.9597 55.2385 43.4553C55.01 43.0065 54.8212 42.569 54.8167 42.1304C54.7888 39.4482 54.8108 36.7657 54.7931 34.0833C54.7908 33.7264 54.6582 33.37 54.5859 33.0134C55.7665 31.4632 56.9472 29.913 58.1956 28.3311Z" fill="#E3492C"/>
  <path d="M62.6094 33.8673C62.4579 33.4181 62.3129 32.947 62.309 32.4752C62.2868 29.7921 62.3038 27.1088 62.291 24.4256C62.2894 24.0939 62.1897 23.7625 62.0977 23.3639C63.1123 21.9077 64.1646 20.5187 65.2773 19.0973C65.5002 19.3771 65.8 19.6881 65.8041 20.0015C65.8408 22.8145 65.8222 25.6279 65.8304 28.4412C65.8313 28.7455 65.8985 29.0496 66.0054 29.402C64.9442 30.9151 63.8126 32.3801 62.6094 33.8673Z" fill="#EB612F"/>
  <path d="M30.3341 12.4568C28.683 10.342 27.0199 8.23263 25.4024 6.10269C25.2668 5.9242 25.3343 5.56144 25.4832 5.3622C26.7942 3.60756 28.1451 1.87058 29.5715 0.0148926C30.1545 0.775949 30.6793 1.46112 31.13 2.22099C30.9611 2.57378 30.7862 2.85153 30.7843 3.13002C30.764 5.96538 30.7838 8.80093 30.7528 11.6362C30.7498 11.9106 30.48 12.1833 30.3341 12.4568Z" fill="#E03F2C"/>
  <path d="M34.3739 6.32007C35.4507 7.70069 36.5274 9.08132 37.5526 10.5616C37.3892 11.097 37.1856 11.5322 37.1806 11.9687C37.1505 14.6224 37.1749 17.2765 37.1545 19.9302C37.1517 20.2855 36.9982 20.6401 36.9146 20.995C35.7711 19.5447 34.6276 18.0945 33.5547 16.5695C33.703 16.2072 33.8466 15.9198 33.8483 15.632C33.8654 12.8655 33.8409 10.0988 33.8813 7.33262C33.8863 6.99372 34.2021 6.65752 34.3739 6.32007Z" fill="#E7552E"/>
  <path d="M84.7947 5.98535C85.9641 7.47882 87.1334 8.9723 88.248 10.5642C88.086 11.0386 87.8894 11.414 87.8857 11.7906C87.859 14.5006 87.8803 17.2108 87.8605 19.9208C87.8579 20.2764 87.708 20.6313 87.6264 20.9865C86.4784 19.5395 85.3303 18.0924 84.2549 16.5705C84.4065 16.208 84.5522 15.9207 84.5541 15.6327C84.5714 12.8894 84.5536 10.146 84.5748 7.40266C84.5784 6.9299 84.7179 6.45777 84.7947 5.98535Z" fill="#E7552E"/>
  <path d="M34.7545 26.6954C35.8729 28.1248 36.9912 29.5541 38.0576 31.0806C37.9462 31.477 37.8368 31.776 37.8354 32.0754C37.8223 34.9 37.8423 37.7248 37.8072 40.5492C37.8033 40.8679 37.5189 41.1846 37.3646 41.5022C36.3317 40.1599 35.2989 38.8176 34.291 37.3456C34.3843 36.8588 34.5095 36.5018 34.5117 36.1444C34.5284 33.4657 34.5097 30.7868 34.5314 28.1081C34.5352 27.6369 34.6766 27.1663 34.7545 26.6954Z" fill="#E8592F"/>
  <path d="M84.783 5.92744C84.7189 6.45784 84.5793 6.92997 84.5757 7.40273C84.5545 10.146 84.5723 12.8895 84.555 15.6328C84.5531 15.9207 84.4074 16.2081 84.2439 16.5133C83.1271 15.2111 82.0949 13.8914 81.0615 12.4425C81.1264 11.955 81.2475 11.5968 81.2497 11.2381C81.2658 8.56151 81.246 5.88473 81.2696 3.20817C81.274 2.7096 81.423 2.21178 81.5052 1.71362C82.5936 3.09891 83.682 4.48419 84.783 5.92744Z" fill="#E34A2C"/>
  <path d="M36.9268 21.0527C36.998 20.6402 37.1515 20.2856 37.1542 19.9304C37.1747 17.2766 37.1503 14.6226 37.1804 11.9689C37.1854 11.5324 37.389 11.0972 37.569 10.6204C38.72 11.9591 39.8027 13.3388 40.8963 14.7775C40.7622 15.1126 40.4942 15.3878 40.4911 15.6648C40.4601 18.4879 40.4782 21.3113 40.464 24.1346C40.4623 24.465 40.3484 24.7951 40.2483 25.1967C39.1198 23.882 38.0295 22.4962 36.9268 21.0527Z" fill="#EB612F"/>
  <path d="M12.313 53.345C12.1785 53.0215 12.045 52.6655 12.0428 52.309C12.0255 49.4891 12.0427 46.669 12.0198 43.8491C12.0172 43.5358 11.8295 43.2233 11.6494 42.8775C12.6357 41.4491 13.7003 40.0538 14.8278 38.6263C15.0406 39.0773 15.3121 39.5592 15.3198 40.0435C15.3623 42.6931 15.3357 45.3432 15.3461 47.9931C15.3473 48.2957 15.4316 48.5982 15.554 48.9466C14.5454 50.4323 13.4601 51.8723 12.313 53.345Z" fill="#EB612F"/>
  <path d="M87.6367 21.0451C87.7092 20.6313 87.859 20.2763 87.8616 19.9208C87.8814 17.2108 87.8601 14.5005 87.8868 11.7906C87.8905 11.414 88.0871 11.0385 88.2639 10.6228C89.3586 11.8876 90.3837 13.192 91.4238 14.5536C91.3523 14.993 91.1938 15.3751 91.1909 15.7578C91.1695 18.5514 91.1856 21.3452 91.1711 24.1389C91.1694 24.469 91.0541 24.7989 90.9534 25.2006C89.8255 23.8828 88.7357 22.4932 87.6367 21.0451Z" fill="#EB612F"/>
  <path d="M81.4931 1.65632C81.4229 2.21183 81.2739 2.70964 81.2695 3.20821C81.246 5.88478 81.2658 8.56155 81.2496 11.2382C81.2475 11.5968 81.1263 11.955 81.0492 12.3837C79.3998 10.3589 77.7503 8.26903 76.1424 6.16032C75.9984 5.97139 76.0003 5.60625 76.1428 5.41501C77.4711 3.63198 78.845 1.86911 80.2663 0.0217285C80.7074 0.594522 81.0942 1.09675 81.4931 1.65632Z" fill="#E03F2C"/>
  <path d="M63.4367 52.9301C63.0959 53.4111 62.755 53.892 62.3227 54.5019C60.8297 52.5676 59.4234 50.7717 58.0726 48.9513C57.9495 48.7855 58.1058 48.4281 58.2634 48.218C59.6835 46.3245 61.1328 44.4441 62.7292 42.5472C62.9833 42.811 63.1654 43.0871 63.1675 43.3639C63.1887 46.1718 63.1707 48.9797 63.1918 51.7876C63.1946 52.1688 63.3513 52.5493 63.4367 52.9301Z" fill="#E8592F"/>
  <path d="M88.068 41.503C86.5473 39.548 85.0203 37.5959 83.517 35.633C83.3901 35.4673 83.2947 35.1731 83.399 35.0339C84.7655 33.2104 86.1706 31.4041 87.6524 29.4816C88.1168 30.0787 88.4866 30.5543 88.7984 31.1041C88.6713 31.4686 88.5439 31.7586 88.5423 32.0489C88.5273 34.8851 88.5478 37.7214 88.5128 40.5574C88.5089 40.8736 88.2231 41.1878 88.068 41.503Z" fill="#E8592F"/>
  <path d="M34.7429 26.6375C34.677 27.1664 34.5356 27.637 34.5318 28.1082C34.5101 30.7869 34.5288 33.4658 34.5122 36.1445C34.5099 36.5019 34.3847 36.8589 34.275 37.2908C33.163 36.007 32.0922 34.6485 31.085 33.1982C31.2438 32.7906 31.4197 32.4753 31.4221 32.1591C31.4437 29.3351 31.424 26.5109 31.4508 23.687C31.4536 23.3959 31.6808 23.1061 31.8038 22.8157C32.7795 24.0703 33.7552 25.3249 34.7429 26.6375Z" fill="#E44E2D"/>
  <path d="M37.3906 41.5578C37.5186 41.1847 37.803 40.868 37.8069 40.5493C37.842 37.7249 37.822 34.9001 37.8351 32.0755C37.8365 31.7761 37.9459 31.477 38.0909 31.1362C39.2467 32.4773 40.3166 33.86 41.4096 35.3013C41.2596 35.6506 40.9407 35.9401 40.9365 36.2322C40.8978 38.9145 40.9235 41.5973 40.9035 44.2798C40.9004 44.6952 40.7615 45.11 40.6668 45.6043C39.571 44.3268 38.494 42.97 37.3906 41.5578Z" fill="#EB6230"/>
  <path d="M34.3578 6.27902C34.2031 6.65748 33.8873 6.99369 33.8823 7.33259C33.8419 10.0988 33.8664 12.8655 33.8493 15.6319C33.8476 15.9198 33.704 16.2071 33.5421 16.5126C32.4253 15.2116 31.3926 13.8927 30.3477 12.5152C30.4813 12.1831 30.751 11.9104 30.754 11.636C30.7851 8.80071 30.7652 5.96516 30.7855 3.12981C30.7875 2.85132 30.9624 2.57357 31.1458 2.27979C32.179 3.46228 33.1234 4.66046 34.0923 5.95734C34.1479 6.10966 34.1981 6.14864 34.2675 6.17299C34.2919 6.19466 34.3164 6.21634 34.3578 6.27902Z" fill="#E34A2C"/>
  <path d="M88.0908 41.559C88.2209 41.188 88.5068 40.8738 88.5107 40.5575C88.5457 37.7216 88.5251 34.8853 88.5402 32.0491C88.5417 31.7587 88.6692 31.4687 88.8192 31.1573C89.8786 32.3952 90.857 33.6543 91.8516 34.9719C91.7109 35.5351 91.4273 36.0383 91.4183 36.5444C91.3723 39.1355 91.4032 41.7273 91.3894 44.3189C91.3877 44.6492 91.2819 44.9791 91.1859 45.3778C90.1369 44.1692 89.1264 42.8921 88.0908 41.559Z" fill="#EB6230"/>
  <path d="M63.4987 52.8943C63.3513 52.5492 63.1947 52.1687 63.1918 51.7875C63.1708 48.9797 63.1887 46.1717 63.1676 43.3638C63.1655 43.087 62.9834 42.811 62.7949 42.5185C63.6794 41.2182 64.6538 39.9338 65.6807 38.611C65.8376 38.8818 66.0301 39.1907 66.0327 39.5005C66.0562 42.2988 66.0379 45.0974 66.0564 47.8958C66.0589 48.2832 66.1954 48.67 66.2901 49.1326C65.3938 50.4249 64.4772 51.6417 63.4987 52.8943Z" fill="#EB612F"/>
  <path d="M31.7795 22.7626C31.6796 23.1061 31.4525 23.3959 31.4497 23.687C31.4228 26.511 31.4426 29.3352 31.421 32.1592C31.4186 32.4753 31.2427 32.7906 31.0712 33.1395C30.1273 32.0784 29.2597 30.9842 28.4647 29.8163C28.6209 29.571 28.776 29.3997 28.777 29.2278C28.7926 26.6622 28.797 24.0965 28.7697 21.531C28.7676 21.3364 28.5068 21.1434 28.3662 20.9497C28.66 20.5323 28.9537 20.115 29.3367 19.5709C30.1881 20.6753 30.9723 21.6924 31.7795 22.7626Z" fill="#E1442C"/>
  <path d="M4.2424 52.3767C4.38276 52.6986 4.52316 53.0531 4.52709 53.4086C4.54891 55.3798 4.51116 57.3515 4.54734 59.3225C4.56944 60.5267 4.68771 61.7299 4.76771 63.0111C4.5524 63.3181 4.33217 63.5475 4.02849 63.8639C2.82265 62.2866 1.76451 60.7563 0.515257 59.3249C-0.205642 58.4989 -0.143668 57.8945 0.536366 57.0929C1.82779 55.5707 2.97331 53.975 4.2424 52.3767Z" fill="#E03C2B"/>
  <path d="M54.5261 33.048C54.6579 33.37 54.7905 33.7264 54.7929 34.0833C54.8105 36.7657 54.7886 39.4482 54.8164 42.1304C54.821 42.569 55.0097 43.0066 55.176 43.4881C55.0626 43.792 54.8865 44.0525 54.6298 44.4323C53.1 42.4393 51.6568 40.5591 50.1816 38.6373C51.6024 36.7955 53.0344 34.939 54.5261 33.048Z" fill="#E03C2B"/>
  <path d="M28.3117 20.9896C28.5079 21.1434 28.7687 21.3364 28.7708 21.531C28.7981 24.0965 28.7937 26.6622 28.7782 29.2278C28.7771 29.3997 28.622 29.571 28.4524 29.7581C27.3158 28.4344 26.2388 27.1068 25.242 25.7443C25.0801 25.5229 25.1486 25.0929 25.3243 24.8517C26.2642 23.5615 27.2719 22.3006 28.3117 20.9896Z" fill="#E03C2B"/>
</svg>