<svg width="125" height="60" viewBox="0 0 125 60" fill="none" xmlns="http://www.w3.org/2000/svg">
<path d="M115.608 17.8506C112.758 21.5777 109.908 25.3048 106.937 29.0145C106.786 28.7165 106.73 28.4359 106.729 28.1552C106.723 25.6184 106.728 23.0816 106.724 20.5448C106.724 20.1894 106.823 19.7802 106.122 19.7256C107.591 17.7862 109.053 15.8436 110.531 13.9086C111.96 12.0375 113.407 10.1742 114.937 8.33535C115.096 8.68883 115.22 9.01409 115.222 9.3398C115.239 11.9199 115.22 14.5001 115.248 17.0801C115.25 17.3377 115.482 17.5938 115.608 17.8506Z" fill="#EE6830"/>
<path d="M60.5141 18.3063C62.4295 15.7835 64.3439 13.2602 66.2617 10.7385C66.5444 10.3667 66.8435 10.0023 67.2084 9.54169C68.5444 11.2806 69.8409 12.9391 71.0776 14.6237C71.1989 14.7891 71.0275 15.1488 70.8652 15.3608C67.6905 19.5085 64.4969 23.6476 61.185 27.7727C61.0293 27.4774 60.9675 27.198 60.9667 26.9185C60.9593 24.3344 60.9763 21.7502 60.9426 19.1665C60.9389 18.8787 60.6635 18.5929 60.5141 18.3063Z" fill="#EF6930"/>
<path d="M38.0737 14.4223C39.564 16.3269 41.0609 18.2285 42.5429 20.1369C44.2335 22.3142 45.9008 24.5023 47.6031 26.6741C47.8931 27.0441 47.9473 27.3224 47.6318 27.7162C46.3995 29.2544 45.2216 30.8183 43.9087 32.5217C41.7028 29.6433 39.5817 26.8755 37.482 23.9902C37.5605 23.5695 37.6651 23.2663 37.6666 22.9628C37.6797 20.3695 37.6631 17.7762 37.6915 15.1831C37.6944 14.9287 37.9406 14.6759 38.0737 14.4223Z" fill="#EF6930"/>
<path d="M14.1773 36.2443C16.2921 33.4524 18.4069 30.6606 20.6061 27.7572C21.5785 29.0106 22.3664 30.2497 23.4252 31.3314C24.6213 32.5534 24.5132 33.5121 23.4481 34.8041C20.4959 38.3854 17.7741 42.0794 14.8387 45.7199C14.674 45.433 14.5966 45.1553 14.5955 44.8772C14.5859 42.4433 14.6105 40.0091 14.5713 37.5755C14.5643 37.1306 14.3149 36.688 14.1773 36.2443Z" fill="#EF6930"/>
<path d="M91.9103 34.2816C90.014 31.8488 88.1144 29.4176 86.2229 26.9826C85.483 26.0299 84.7609 25.069 84.0528 23.9941C84.1326 23.5731 84.2384 23.2702 84.24 22.9669C84.2533 20.4008 84.2386 17.8347 84.2582 15.2687C84.2609 14.9172 84.4064 14.5663 84.4858 14.2151C86.8327 17.231 89.1805 20.2466 91.5255 23.2633C91.8704 23.707 92.2028 24.1562 92.4712 24.6712C92.3163 24.9974 92.1582 25.2548 92.1562 25.5129C92.1374 27.9773 92.1567 30.4421 92.1343 32.9065C92.1302 33.3653 91.9885 33.8232 91.9103 34.2816Z" fill="#EE6830"/>
<path d="M68.2927 26.5862C70.2476 24.0166 72.2025 21.4471 74.2359 18.7743C75.5909 20.5318 76.8949 22.2073 78.1623 23.899C78.2583 24.0271 78.1599 24.301 78.0406 24.4564C75.3521 27.9586 72.6475 31.4537 69.9473 34.9505C69.6411 35.3473 69.3428 35.7475 68.9519 36.1176C68.7943 35.7633 68.6679 35.4378 68.6659 35.1117C68.6495 32.53 68.6672 29.9481 68.6408 27.3664C68.6383 27.1057 68.4141 26.8462 68.2927 26.5862Z" fill="#F05F2A"/>
<path d="M68.2483 26.6286C68.4139 26.8462 68.6382 27.1057 68.6408 27.3664C68.6672 29.9481 68.6495 32.53 68.6659 35.1117C68.668 35.4378 68.794 35.7633 68.9006 36.1592C66.7925 39.0394 64.6473 41.8497 62.5004 44.6592C62.1768 45.0828 61.8454 45.503 61.4435 45.8898C61.301 45.4993 61.1757 45.144 61.1733 44.7882C61.1563 42.2178 61.1731 39.6472 61.1515 37.0768C61.1491 36.7923 60.9723 36.5086 60.8764 36.2245C63.3189 33.04 65.7615 29.8555 68.2483 26.6286Z" fill="#EF6930"/>
<path d="M115.656 17.8098C115.482 17.5938 115.25 17.3377 115.248 17.0801C115.22 14.5001 115.239 11.9199 115.222 9.3398C115.22 9.01409 115.096 8.68877 114.988 8.29542C116.811 5.7764 118.676 3.32526 120.601 0.7948C121.935 2.52064 123.231 4.1533 124.446 5.82031C124.594 6.02369 124.413 6.45594 124.22 6.70729C121.694 10.0004 119.137 13.2794 116.592 16.5637C116.284 16.9603 115.999 17.3671 115.656 17.8098Z" fill="#F05F2A"/>
<path d="M91.924 34.334C91.9907 33.8233 92.1324 33.3654 92.1365 32.9066C92.1589 30.4421 92.1396 27.9774 92.1584 25.513C92.1603 25.2548 92.3185 24.9975 92.4859 24.7256C95.0624 27.9199 97.4386 31.189 100.106 34.3102C101.357 35.7742 101.498 36.8903 100.076 38.2737C99.0671 39.2547 98.37 40.4255 97.4661 41.599C95.5878 39.1488 93.7618 36.7676 91.924 34.334Z" fill="#F05F2A"/>
<path d="M84.8837 32.9709C86.9737 35.6648 89.0638 38.3588 91.1322 41.172C91.0508 41.6202 90.9409 41.9489 90.9391 42.278C90.9247 44.8449 90.9392 47.4118 90.921 49.9786C90.9187 50.3048 90.7778 50.6303 90.7012 50.9562C88.5493 48.1855 86.3975 45.4148 84.2691 42.528C84.3455 42.1088 84.4426 41.8057 84.4442 41.5023C84.4569 39.122 84.4285 36.7413 84.4708 34.3613C84.479 33.8965 84.7395 33.4343 84.8837 32.9709Z" fill="#EF6A30"/>
<path d="M38.5566 33.2736C40.5964 35.8987 42.6362 38.5239 44.6161 41.2179C44.4899 41.5522 44.3677 41.8176 44.3661 42.0834C44.3515 44.5902 44.3761 47.0972 44.3356 49.6037C44.33 49.9482 44.0306 50.2899 43.8671 50.6329C41.8641 48.0412 39.861 45.4494 37.8641 42.734C37.9403 42.2292 38.0679 41.8482 38.0707 41.4667C38.089 39.0028 38.0655 36.5386 38.1009 34.0748C38.1048 33.8065 38.3977 33.5406 38.5566 33.2736Z" fill="#EF6A30"/>
<path d="M90.713 51.0093C90.7773 50.6305 90.9187 50.3048 90.921 49.9786C90.9392 47.4118 90.9247 44.8449 90.9391 42.278C90.9409 41.9489 91.0503 41.6204 91.1444 41.2235C92.7119 43.1206 94.2458 45.0856 95.7586 47.1606C95.6199 47.7473 95.4087 48.2232 95.4013 48.7009C95.3664 51.0853 95.3949 53.4702 95.3738 55.8547C95.371 56.141 95.2057 56.4264 95.1157 56.7123C93.6525 54.8289 92.1887 52.9455 90.713 51.0093Z" fill="#F0622B"/>
<path d="M43.891 50.6852C44.0301 50.2897 44.33 49.9482 44.3356 49.6037C44.3761 47.0972 44.3515 44.5902 44.3661 42.0834C44.3677 41.8176 44.4894 41.552 44.6311 41.2684C46.2066 43.1827 47.7066 45.1151 49.1722 47.152C49.0292 47.5356 48.8289 47.8142 48.8262 48.094C48.8018 50.6482 48.82 53.2027 48.8017 55.7569C48.7993 56.0814 48.6578 56.4054 48.5809 56.7295C47.0257 54.7323 45.4706 52.735 43.891 50.6852Z" fill="#F0622B"/>
<path d="M106.067 19.7565C106.823 19.7801 106.724 20.1893 106.724 20.5448C106.728 23.0816 106.723 25.6184 106.729 28.1552C106.73 28.436 106.786 28.7165 106.879 29.0423C106.099 30.2202 105.257 31.353 104.32 32.6126C103.189 31.1581 102.228 29.7727 101.075 28.4895C100.292 27.6176 100.373 26.965 101.095 26.0972C102.813 24.0331 104.382 21.8955 106.067 19.7565Z" fill="#E8592F"/>
<path d="M48.5948 56.7825C48.6592 56.4055 48.8007 56.0816 48.803 55.7571C48.8214 53.2028 48.8031 50.6483 48.8275 48.0941C48.8301 47.8144 49.0305 47.5358 49.1854 47.2055C50.9894 49.4049 52.7559 51.6516 54.4877 53.9139C54.6206 54.0875 54.6228 54.4224 54.4929 54.5975C53.2771 56.2356 52.0193 57.8554 50.6973 59.5801C49.9614 58.6135 49.2844 57.7244 48.5948 56.7825Z" fill="#F05C29"/>
<path d="M95.1377 56.7654C95.2075 56.4264 95.3728 56.141 95.3756 55.8547C95.3967 53.4702 95.3682 51.0852 95.4031 48.7009C95.4105 48.2232 95.6218 47.7473 95.7715 47.2141C97.5598 49.4105 99.3271 51.6583 101.052 53.9253C101.194 54.1124 101.164 54.4816 101.016 54.6793C99.8277 56.2748 98.5922 57.8494 97.2696 59.5615C96.5302 58.601 95.844 57.7098 95.1377 56.7654Z" fill="#F05C29"/>
<path d="M54.0163 26.788C55.1377 25.2747 56.2591 23.7613 57.4766 22.2822C57.6225 22.621 57.7141 22.9254 57.7156 23.2301C57.7274 25.6946 57.7117 28.1593 57.732 30.6238C57.7357 31.0571 57.8689 31.4898 57.9422 31.9228C57.4606 32.6265 56.9999 33.3393 56.4921 34.0316C55.88 34.8661 55.2279 35.6832 54.4767 36.4916C54.3335 36.1935 54.2842 35.9115 54.2836 35.6295C54.2774 33.1655 54.2939 30.7015 54.268 28.2376C54.263 27.754 54.1042 27.2713 54.0163 26.788Z" fill="#E7552E"/>
<path d="M4.45304 48.8733C5.57001 47.3941 6.68698 45.9147 7.91752 44.4491C8.05697 44.7713 8.09797 45.0797 8.1064 45.3885C8.18699 48.3429 8.26207 51.2973 8.33873 54.2517C7.22581 55.7291 6.1129 57.2064 4.93659 58.6421C4.80423 57.4948 4.6956 56.3898 4.6753 55.2837C4.64207 53.4733 4.67674 51.6622 4.6567 49.8516C4.65309 49.5251 4.52413 49.1994 4.45304 48.8733Z" fill="#E3492C"/>
<path d="M8.39761 54.219C8.26279 51.297 8.18699 48.3428 8.1064 45.3885C8.09797 45.0796 8.0577 44.7711 7.97283 44.4163C8.94352 42.9794 9.97314 41.5887 11.137 40.2033C11.3648 40.496 11.5372 40.783 11.5395 41.0708C11.5606 43.6609 11.5448 46.2513 11.5607 48.8414C11.5627 49.1688 11.6853 49.4958 11.7521 49.823C10.6534 51.2776 9.55456 52.732 8.39761 54.219Z" fill="#E7552E"/>
<path d="M53.9537 26.8174C54.1039 27.2715 54.2629 27.7539 54.268 28.2376C54.2939 30.7015 54.2774 33.1655 54.2836 35.6295C54.2843 35.9115 54.3333 36.1937 54.4195 36.5219C53.4367 37.9518 52.3944 39.3355 51.2376 40.7093C51.0277 40.2971 50.8543 39.8952 50.8501 39.4923C50.8245 37.0287 50.8447 34.5648 50.8285 32.1009C50.8264 31.7731 50.7046 31.4458 50.6381 31.1182C51.7226 29.6943 52.807 28.2704 53.9537 26.8174Z" fill="#E3492C"/>
<path d="M58.0079 31.9025C57.8687 31.4899 57.7356 31.0571 57.732 30.6238C57.7117 28.1593 57.7274 25.6946 57.7156 23.2301C57.7141 22.9254 57.6224 22.6211 57.5379 22.255C58.4698 20.9174 59.4364 19.6416 60.4584 18.336C60.6631 18.593 60.9389 18.8786 60.9426 19.1665C60.9763 21.7502 60.9593 24.3344 60.9667 26.9185C60.9675 27.198 61.029 27.4774 61.1272 27.8011C60.1524 29.1909 59.113 30.5365 58.0079 31.9025Z" fill="#EB612F"/>
<path d="M28.3624 12.2366C26.8459 10.2941 25.3183 8.35662 23.8326 6.40023C23.708 6.23629 23.77 5.90308 23.9068 5.72008C25.111 4.10841 26.3518 2.51296 27.662 0.808479C28.1975 1.50752 28.6795 2.13687 29.0935 2.83482C28.9383 3.15886 28.7777 3.41398 28.7759 3.66978C28.7573 6.27411 28.7755 8.87862 28.747 11.4829C28.7443 11.7349 28.4964 11.9854 28.3624 12.2366Z" fill="#E03F2C"/>
<path d="M32.0731 6.5999C33.0621 7.86802 34.0511 9.13616 34.9927 10.4958C34.8427 10.9876 34.6557 11.3873 34.6511 11.7883C34.6234 14.2257 34.6458 16.6636 34.6271 19.1011C34.6245 19.4274 34.4835 19.7531 34.4067 20.0791C33.3564 18.747 32.3061 17.4149 31.3206 16.0142C31.4568 15.6814 31.5887 15.4174 31.5903 15.1531C31.606 12.612 31.5835 10.0707 31.6206 7.52995C31.6252 7.21866 31.9153 6.90985 32.0731 6.5999Z" fill="#E7552E"/>
<path d="M78.3855 6.29245C79.4596 7.66423 80.5336 9.03602 81.5574 10.4982C81.4086 10.934 81.228 11.2788 81.2246 11.6247C81.2001 14.1139 81.2197 16.6032 81.2015 19.0924C81.1991 19.419 81.0614 19.745 80.9865 20.0713C79.932 18.7422 78.8774 17.413 77.8897 16.0151C78.0289 15.6821 78.1627 15.4183 78.1645 15.1537C78.1804 12.634 78.164 10.1141 78.1835 7.59428C78.1868 7.16004 78.3149 6.72638 78.3855 6.29245Z" fill="#E7552E"/>
<path d="M32.4226 25.315C33.4499 26.6279 34.4771 27.9408 35.4566 29.3429C35.3543 29.707 35.2538 29.9816 35.2525 30.2566C35.2405 32.8511 35.2588 35.4457 35.2266 38.04C35.223 38.3327 34.9618 38.6236 34.8201 38.9153C33.8713 37.6824 32.9227 36.4495 31.9969 35.0974C32.0826 34.6503 32.1976 34.3224 32.1996 33.9941C32.215 31.5337 32.1978 29.073 32.2177 26.6126C32.2212 26.1798 32.3511 25.7475 32.4226 25.315Z" fill="#E8592F"/>
<path d="M78.3747 6.23926C78.3159 6.72644 78.1876 7.1601 78.1843 7.59434C78.1649 10.1141 78.1812 12.634 78.1653 15.1538C78.1636 15.4183 78.0297 15.6822 77.8796 15.9626C76.8538 14.7665 75.9057 13.5543 74.9565 12.2235C75.0161 11.7757 75.1273 11.4467 75.1293 11.1172C75.1441 8.6587 75.1259 6.20003 75.1476 3.74156C75.1517 3.28362 75.2885 2.82636 75.364 2.36879C76.3637 3.64121 77.3635 4.91361 78.3747 6.23926Z" fill="#E34A2C"/>
<path d="M34.4179 20.1321C34.4833 19.7532 34.6246 19.4273 34.6271 19.1011C34.6458 16.6636 34.6234 14.2257 34.6511 11.7883C34.6557 11.3873 34.8425 10.9878 35.0078 10.5498C36.065 11.7795 37.0595 13.0467 38.064 14.3682C37.9408 14.676 37.6944 14.9287 37.6915 15.1831C37.6631 17.7762 37.6797 20.3695 37.6666 22.9628C37.6651 23.2663 37.5607 23.5696 37.4688 23.9384C36.4323 22.7309 35.4308 21.458 34.4179 20.1321Z" fill="#EB612F"/>
<path d="M11.8097 49.7932C11.6862 49.496 11.5636 49.169 11.5615 48.8416C11.5456 46.2514 11.5614 43.6611 11.5404 41.071C11.538 40.7832 11.3656 40.4962 11.2002 40.1786C12.1061 38.8666 13.084 37.5849 14.1196 36.2738C14.3151 36.688 14.5643 37.1306 14.5713 37.5755C14.6105 40.0091 14.5859 42.4433 14.5955 44.8772C14.5966 45.1552 14.6742 45.4331 14.7866 45.7532C13.8602 47.1178 12.8633 48.4405 11.8097 49.7932Z" fill="#EB612F"/>
<path d="M80.9959 20.1251C81.0625 19.745 81.2001 19.419 81.2025 19.0924C81.2207 16.6032 81.2011 14.1138 81.2256 11.6247C81.229 11.2788 81.4096 10.9339 81.572 10.552C82.5775 11.7138 83.5191 12.9119 84.4744 14.1625C84.4088 14.5661 84.2632 14.9171 84.2605 15.2686C84.2409 17.8346 84.2556 20.4008 84.2423 22.9668C84.2408 23.27 84.1349 23.573 84.0424 23.942C83.0064 22.7316 82.0054 21.4552 80.9959 20.1251Z" fill="#EB612F"/>
<path d="M75.3529 2.31616C75.2884 2.82641 75.1517 3.28362 75.1476 3.74156C75.1259 6.20003 75.1441 8.6587 75.1293 11.1172C75.1274 11.4466 75.016 11.7757 74.9452 12.1695C73.4302 10.3096 71.9151 8.39006 70.4382 6.45317C70.3059 6.27963 70.3077 5.94424 70.4386 5.76859C71.6586 4.13084 72.9206 2.51161 74.2261 0.814758C74.6312 1.34088 74.9865 1.80218 75.3529 2.31616Z" fill="#E03F2C"/>
<path d="M58.7678 49.4121C58.4547 49.8539 58.1416 50.2956 57.7445 50.8558C56.3732 49.0791 55.0815 47.4295 53.8408 45.7575C53.7277 45.6052 53.8713 45.2769 54.016 45.0839C55.3204 43.3447 56.6516 41.6175 58.1179 39.8752C58.3513 40.1175 58.5186 40.3711 58.5205 40.6253C58.54 43.2044 58.5235 45.7835 58.5428 48.3627C58.5454 48.7128 58.6893 49.0623 58.7678 49.4121Z" fill="#E8592F"/>
<path d="M81.3921 38.9161C79.9953 37.1204 78.5927 35.3273 77.2119 33.5244C77.0953 33.3722 77.0077 33.1019 77.1035 32.9741C78.3587 31.2992 79.6493 29.64 81.0103 27.8742C81.4369 28.4226 81.7766 28.8595 82.063 29.3645C81.9462 29.6993 81.8292 29.9657 81.8277 30.2323C81.814 32.8374 81.8328 35.4426 81.8006 38.0475C81.797 38.3379 81.5345 38.6265 81.3921 38.9161Z" fill="#E8592F"/>
<path d="M32.412 25.2618C32.3515 25.7476 32.2212 26.1798 32.2177 26.6126C32.1978 29.073 32.215 31.5337 32.1996 33.9941C32.1975 34.3224 32.083 34.6504 31.9822 35.0471C30.9608 33.8679 29.9773 32.6201 29.0521 31.288C29.198 30.9136 29.3596 30.624 29.3618 30.3335C29.3816 27.7396 29.3635 25.1455 29.3881 22.5517C29.3907 22.2844 29.5994 22.0182 29.7124 21.7514C30.6086 22.9038 31.5048 24.0562 32.412 25.2618Z" fill="#E44E2D"/>
<path d="M34.844 38.9664C34.9615 38.6237 35.223 38.3327 35.2266 38.04C35.2588 35.4457 35.2405 32.8511 35.2525 30.2566C35.2538 29.9816 35.354 29.707 35.4872 29.394C36.5488 30.6258 37.5315 31.8958 38.5355 33.2197C38.3977 33.5405 38.1048 33.8065 38.1009 34.0748C38.0655 36.5386 38.089 39.0028 38.0707 41.4667C38.0679 41.8483 37.9402 42.2292 37.8532 42.6832C36.8467 41.5098 35.8574 40.2635 34.844 38.9664Z" fill="#EB6230"/>
<path d="M32.0583 6.56219C31.9162 6.90982 31.6261 7.21863 31.6215 7.52992C31.5844 10.0707 31.6069 12.612 31.5912 15.153C31.5896 15.4174 31.4577 15.6813 31.309 15.9619C30.2832 14.7669 29.3347 13.5555 28.3749 12.2902C28.4976 11.9852 28.7454 11.7347 28.7481 11.4827C28.7767 8.87841 28.7584 6.27391 28.777 3.66959C28.7789 3.41379 28.9395 3.15867 29.108 2.88883C30.057 3.97497 30.9245 5.07552 31.8144 6.26673C31.8655 6.40663 31.9116 6.44244 31.9753 6.4648C31.9977 6.48471 32.0202 6.50462 32.0583 6.56219Z" fill="#E34A2C"/>
<path d="M81.413 38.9675C81.5325 38.6267 81.7951 38.3381 81.7987 38.0476C81.8308 35.4428 81.8119 32.8376 81.8258 30.2325C81.8272 29.9657 81.9443 29.6994 82.0821 29.4133C83.0551 30.5504 83.9538 31.7069 84.8674 32.9171C84.7382 33.4344 84.4777 33.8966 84.4694 34.3615C84.4271 36.7415 84.4555 39.1221 84.4428 41.5025C84.4413 41.8059 84.3441 42.1089 84.2559 42.4751C83.2924 41.365 82.3642 40.192 81.413 38.9675Z" fill="#EB6230"/>
<path d="M58.8247 49.3792C58.6893 49.0622 58.5455 48.7128 58.5428 48.3627C58.5235 45.7835 58.54 43.2044 58.5205 40.6253C58.5186 40.3711 58.3514 40.1175 58.1783 39.8488C58.9907 38.6545 59.8857 37.4747 60.8289 36.2597C60.973 36.5084 61.1491 36.7923 61.1515 37.0768C61.1731 39.6472 61.1563 42.2178 61.1733 44.7882C61.1756 45.144 61.3017 45.4991 61.3887 45.924C60.5654 47.111 59.7235 48.2286 58.8247 49.3792Z" fill="#EB612F"/>
<path d="M29.6901 21.7027C29.5983 22.0182 29.3897 22.2844 29.3871 22.5517C29.3624 25.1456 29.3806 27.7397 29.3608 30.3336C29.3586 30.624 29.197 30.9136 29.0395 31.234C28.1725 30.2594 27.3756 29.2544 26.6453 28.1816C26.7888 27.9563 26.9313 27.799 26.9322 27.6411C26.9465 25.2845 26.9506 22.9279 26.9255 20.5714C26.9236 20.3927 26.684 20.2154 26.5549 20.0375C26.8247 19.6541 27.0945 19.2708 27.4463 18.771C28.2283 19.7854 28.9486 20.7197 29.6901 21.7027Z" fill="#E1442C"/>
<path d="M4.39672 48.9038C4.52565 49.1994 4.65461 49.525 4.65822 49.8516C4.67826 51.6622 4.64358 53.4732 4.67682 55.2836C4.69711 56.3897 4.80575 57.4948 4.87923 58.6716C4.68146 58.9536 4.47918 59.1643 4.20024 59.455C3.09266 58.0062 2.12073 56.6006 0.973273 55.2858C0.311114 54.5271 0.368038 53.972 0.992662 53.2357C2.17886 51.8375 3.23104 50.3718 4.39672 48.9038Z" fill="#E03C2B"/>
<path d="M50.5832 31.15C50.7043 31.4458 50.8263 31.7731 50.8285 32.1009C50.8447 34.5648 50.8245 37.0287 50.8501 39.4923C50.8544 39.8952 51.0274 40.2971 51.1802 40.7394C51.076 41.0185 50.9143 41.2578 50.6785 41.6067C49.2733 39.7761 47.9477 38.0491 46.5927 36.2839C47.8977 34.5921 49.2131 32.8869 50.5832 31.15Z" fill="#E03C2B"/>
<path d="M26.5048 20.0741C26.685 20.2154 26.9246 20.3927 26.9265 20.5714C26.9516 22.9279 26.9475 25.2845 26.9333 27.6411C26.9323 27.799 26.7898 27.9563 26.6341 28.1282C25.5901 26.9123 24.6008 25.6929 23.6852 24.4414C23.5365 24.2381 23.5995 23.8431 23.7608 23.6215C24.6242 22.4365 25.5497 21.2783 26.5048 20.0741Z" fill="#E03C2B"/>
</svg>
