<svg width="300" height="243" viewBox="0 0 300 243" fill="none" xmlns="http://www.w3.org/2000/svg">
<g clip-path="url(#clip0_95_3049)">
<path d="M197.4 135.626C191.071 139.422 179.796 144.177 168.273 139.29L160.825 136.131L175.751 119.399C163.84 106.266 157.251 89.1663 157.269 71.4369C157.287 53.7075 163.912 36.6212 175.849 23.5129C187.787 10.4046 204.181 2.21531 221.831 0.543404C239.481 -1.1285 257.121 3.837 271.308 14.4707C285.494 25.1044 295.209 40.6431 298.556 58.0537C301.902 75.4644 298.641 93.4974 289.408 108.633C280.175 123.768 265.633 134.92 248.621 139.911C231.608 144.902 213.347 143.374 197.4 135.626ZM168.802 71.3969C168.769 79.5698 170.428 87.6611 173.674 95.1618C176.919 102.663 181.682 109.41 187.663 114.981L191.78 118.85L182.387 129.379C187.28 128.386 191.541 125.739 193.701 124.202L196.666 122.093L199.854 123.845C208.668 128.67 218.555 131.199 228.603 131.198C261.578 131.198 288.404 104.372 288.404 71.397C288.404 38.4225 261.578 11.5957 228.603 11.5957C195.629 11.5957 168.802 38.4225 168.802 71.3969Z" fill="#3F3D56"/>
<path d="M163.004 71.397C163.004 35.1676 192.374 5.79785 228.603 5.79785C264.832 5.79785 294.202 35.1676 294.202 71.397C294.202 107.626 264.832 136.996 228.603 136.996C217.577 137.012 206.726 134.236 197.062 128.926C192.528 132.153 181.466 138.588 170.537 133.953L183.692 119.207C177.153 113.079 171.942 105.674 168.383 97.45C164.825 89.2258 162.994 80.3581 163.004 71.397Z" fill="#F97316"/>
<path opacity="0.1" d="M283.027 71.539C283.027 37.2639 256.739 9.13349 223.226 6.19788C225.136 6.03051 227.069 5.93994 229.023 5.93994C265.253 5.93994 294.623 35.3096 294.623 71.539C294.623 107.768 265.253 137.138 229.023 137.138C227.072 137.138 225.143 137.046 223.235 136.879C256.743 133.939 283.027 105.811 283.027 71.539Z" fill="black"/>
<path d="M77.4369 226.758C61.0458 226.765 45.15 221.139 32.4136 210.821C19.6772 200.504 10.8741 186.122 7.47966 170.086C4.08522 154.05 6.30572 137.335 13.769 122.741C21.2323 108.148 33.4848 96.5629 48.4732 89.9283C63.4616 83.2937 80.275 82.0124 96.0957 86.2992C111.916 90.586 125.783 100.18 135.371 113.474C144.96 126.768 149.688 142.954 148.762 159.319C147.837 175.684 141.315 191.234 130.289 203.362L145.215 220.094L137.767 223.254C126.244 228.141 114.969 223.385 108.64 219.59C98.9138 224.305 88.2458 226.755 77.4369 226.758ZM77.4369 95.5593C44.4625 95.5593 17.6357 122.386 17.6357 155.361C17.6357 188.335 44.4625 215.162 77.4369 215.162C87.4852 215.163 97.3719 212.634 106.186 207.808L109.374 206.056L112.339 208.166C114.499 209.703 118.76 212.35 123.653 213.342L114.26 202.814L118.377 198.945C124.358 193.374 129.121 186.626 132.367 179.125C135.612 171.625 137.271 163.533 137.238 155.361C137.238 122.386 110.411 95.5593 77.4369 95.5593Z" fill="#3F3D56"/>
<path d="M143.036 155.36C143.036 119.131 113.666 89.7612 77.437 89.7612C41.2076 89.7612 11.8379 119.131 11.8379 155.36C11.8379 191.59 41.2076 220.959 77.437 220.959C88.4632 220.976 99.314 218.199 108.978 212.89C113.512 216.116 124.574 222.552 135.503 217.916L122.348 203.17C128.887 197.043 134.098 189.638 137.657 181.413C141.215 173.189 143.046 164.321 143.036 155.36Z" fill="#F97316"/>
<path opacity="0.1" d="M23.4337 155.029C23.4337 120.754 49.7218 92.6232 83.2349 89.6876C81.3241 89.5203 79.3912 89.4297 77.437 89.4297C41.2076 89.4297 11.8379 118.799 11.8379 155.029C11.8379 191.258 41.2076 220.628 77.437 220.628C79.3883 220.628 81.3178 220.536 83.2257 220.369C49.7171 217.429 23.4337 189.301 23.4337 155.029Z" fill="black"/>
<path d="M244.003 50.556C239.711 43.3038 231.22 42.9658 231.22 42.9658C231.22 42.9658 222.945 41.9077 217.637 52.9529C212.69 63.248 205.861 73.1881 216.538 75.5981L218.466 69.5959L219.661 76.0449C221.181 76.1543 222.706 76.1803 224.229 76.123C235.662 75.7539 246.551 76.231 246.2 72.1282C245.734 66.674 248.133 57.5341 244.003 50.556Z" fill="#2F2E41"/>
<path d="M215.928 114.068C215.802 114.865 215.619 115.653 215.381 116.425C215.112 117.18 214.698 117.878 214.452 118.641C213.669 121.073 214.754 123.785 216.487 125.663C217.99 127.284 219.931 128.436 222.074 128.98C223.651 129.317 225.261 129.486 226.874 129.484C231.336 129.635 235.913 129.771 240.14 128.337C241.476 127.873 242.766 127.287 243.995 126.586C244.382 126.401 244.724 126.132 244.995 125.798C245.278 125.31 245.404 124.746 245.356 124.183C245.346 122.292 244.963 120.41 245.054 118.52C245.104 117.474 245.3 116.428 245.204 115.385C245.07 114.2 244.574 113.085 243.783 112.194C242.991 111.302 241.944 110.676 240.783 110.402C239.584 110.145 238.34 110.285 237.119 110.403C233.949 110.707 230.766 110.85 227.582 110.829C224.329 110.808 221.096 110.312 217.859 110.26C216.901 110.244 216.921 110.54 216.616 111.466C216.335 112.319 216.106 113.188 215.928 114.068Z" fill="#2F2E41"/>
<path d="M225.161 67.362C225.004 68.1807 224.835 69.0292 224.343 69.7019C223.777 70.4759 222.854 70.9181 222.246 71.6589C221.329 72.7738 221.276 74.3427 221.273 75.786C221.269 77.1155 221.296 78.5337 222.038 79.6373C222.565 80.3229 223.22 80.9003 223.967 81.338C226.747 83.2118 229.752 85.1193 233.104 85.1811C234.493 85.2067 235.983 84.848 236.897 83.8017C237.291 83.3102 237.602 82.7567 237.815 82.1635C238.672 80.0505 239.192 77.8158 239.355 75.5413C239.478 74.472 239.378 73.3888 239.062 72.3601C238.654 71.2246 237.831 70.2903 237.287 69.2137C236.643 67.9336 236.408 66.4869 236.612 65.0688C236.64 64.969 236.631 64.8628 236.589 64.7684C236.544 64.7179 236.488 64.6784 236.426 64.6531C236.363 64.6277 236.295 64.6172 236.228 64.6223L229.581 64.1438C228.962 64.113 228.345 64.0425 227.735 63.9326C227.377 63.8598 226.43 63.3508 226.089 63.4862C225.456 63.7367 225.29 66.6832 225.161 67.362Z" fill="#A0616A"/>
<path opacity="0.1" d="M225.161 67.5695C225.004 68.3882 224.835 69.2367 224.343 69.9094C223.777 70.6834 222.854 71.1256 222.246 71.8664C221.329 72.9813 221.276 74.5502 221.273 75.9935C221.269 77.323 221.296 78.7412 222.038 79.8448C222.565 80.5304 223.22 81.1078 223.967 81.5455C226.747 83.4193 229.752 85.3268 233.104 85.3886C234.493 85.4142 235.983 85.0555 236.897 84.0092C237.291 83.5177 237.602 82.9642 237.815 82.3711C238.672 80.258 239.192 78.0233 239.355 75.7488C239.478 74.6796 239.378 73.5963 239.062 72.5676C238.654 71.4321 237.831 70.4978 237.287 69.4212C236.643 68.1411 236.408 66.6944 236.612 65.2763C236.64 65.1765 236.631 65.0703 236.589 64.9759C236.544 64.9254 236.488 64.8859 236.426 64.8606C236.363 64.8352 236.295 64.8247 236.228 64.8298L229.581 64.3513C228.962 64.3205 228.345 64.25 227.735 64.1401C227.377 64.0673 226.43 63.5583 226.089 63.6937C225.456 63.9442 225.29 66.8907 225.161 67.5695Z" fill="black"/>
<path d="M231.518 68.2535C236.904 68.2535 241.27 63.8872 241.27 58.501C241.27 53.1149 236.904 48.7485 231.518 48.7485C226.131 48.7485 221.765 53.1149 221.765 58.501C221.765 63.8872 226.131 68.2535 231.518 68.2535Z" fill="#A0616A"/>
<path d="M226.528 80.3444C227.01 80.9024 227.591 81.3664 228.241 81.7132C228.919 81.9935 229.648 82.1321 230.381 82.1207C232.139 82.1701 234.045 81.848 235.268 80.5841C236.844 78.955 236.792 76.3272 238.028 74.4266C238.128 74.2542 238.264 74.1056 238.426 73.9911C238.634 73.8782 238.868 73.8244 239.104 73.8354C240.664 73.8208 242.024 74.8329 243.25 75.7975C243.828 76.1949 244.323 76.6997 244.71 77.2844C244.953 77.7577 245.119 78.2665 245.202 78.7918C245.811 81.7638 246.008 84.8026 246.204 87.8301C246.312 89.5023 246.42 91.1761 246.412 92.8518C246.386 98.3724 245.103 103.801 243.827 109.172C243.662 109.864 243.437 110.637 242.808 110.969C242.527 111.095 242.226 111.169 241.919 111.186C238.264 111.615 234.602 112.045 230.922 112.102C229.486 112.124 228.051 112.089 226.616 111.997C226.369 111.994 226.124 111.951 225.891 111.871C225.574 111.719 225.302 111.487 225.1 111.199C223.11 108.691 222.992 105.224 223.005 102.022C223.036 94.1943 223.316 86.3727 223.844 78.5572C223.888 77.9121 223.897 77.1287 223.433 76.6212C224.338 77.9625 225.375 79.2098 226.528 80.3444Z" fill="white"/>
<path d="M224.463 69.0835C224.133 69.6798 221.705 71.1603 221.236 71.6545C218.617 74.4155 213.836 74.3119 211.44 77.2692C210.597 78.3097 210.159 79.617 209.837 80.9167C209.382 82.755 209.139 84.7597 209.902 86.493C210.636 88.1608 212.182 89.3139 213.231 90.8036C214.383 92.4394 214.901 94.4256 215.398 96.3638C215.764 97.795 216.134 99.2616 215.991 100.732C215.829 102.404 215.02 103.935 214.542 105.545C214.065 107.155 213.982 109.073 215.087 110.339C215.898 111.269 217.171 111.637 218.387 111.845C219.945 112.079 221.516 112.216 223.092 112.254C224.482 112.316 226.015 112.328 227.084 111.436C227.928 110.733 228.294 109.591 228.342 108.494C228.389 107.397 228.161 106.309 228.018 105.22C227.87 104.091 227.813 102.952 227.765 101.815C227.551 96.7106 227.522 91.6031 227.677 86.4923C227.756 85.4301 227.704 84.3623 227.522 83.3128C227.224 81.9456 226.485 80.7238 225.869 79.4677C224.636 77.1018 224.078 74.4427 224.255 71.781C224.442 69.0457 225.635 66.9618 224.463 69.0835Z" fill="white"/>
<path d="M238.158 69.2913C238.66 69.8069 240.364 69.9769 241.003 70.309C241.603 70.5863 242.229 70.8032 242.873 70.9564C245.201 71.628 247.415 72.6443 249.442 73.9716C249.863 74.218 250.236 74.5396 250.541 74.9205C250.862 75.4432 251.069 76.0281 251.148 76.6366C251.461 78.1846 251.775 79.7512 251.705 81.3288C251.63 83.0035 251.126 84.6254 250.625 86.2252L248.755 92.2031C247.36 96.6652 245.955 101.171 245.562 105.83C245.345 108.412 245.442 111.011 245.85 113.57C245.888 113.694 245.9 113.825 245.884 113.955C245.867 114.084 245.824 114.208 245.756 114.319C245.633 114.441 245.47 114.516 245.298 114.53C244.395 114.671 243.522 114.211 242.704 113.804C240.205 112.56 237.538 111.687 234.787 111.213C235.862 109.66 236.691 107.95 237.246 106.144C237.561 104.997 237.809 103.833 237.989 102.658L238.859 97.6268C239.213 95.788 239.462 93.9306 239.605 92.0635C239.671 91.3629 239.63 90.6563 239.484 89.9678C239.284 89.3127 239.017 88.6795 238.69 88.0779C237.256 85.096 236.583 81.6932 237.147 78.433C237.394 77.0063 237.874 75.5776 237.674 74.1436C237.482 72.7648 237.682 71.6933 237.328 70.3288C235.875 64.7263 237.214 68.3212 238.158 69.2913Z" fill="white"/>
<path d="M211.415 81.9838C210.762 83.3399 209.669 84.4952 209.297 85.954C209.153 86.6358 209.091 87.3325 209.113 88.0291C209.048 89.0789 209.152 90.1323 209.421 91.1493C209.628 91.7926 209.966 92.3859 210.209 93.0165C210.548 93.8976 210.699 94.8399 210.653 95.7828C210.587 97.0891 210.143 98.3572 210.108 99.6647C210.054 101.721 211.005 103.654 211.933 105.49C212.167 104.911 212.524 104.391 212.979 103.965C213.435 103.539 213.978 103.217 214.571 103.023C215.164 102.829 215.792 102.767 216.412 102.841C217.031 102.915 217.627 103.124 218.157 103.452C218.37 103.191 218.47 102.856 218.438 102.521C218.506 100.136 218.572 97.7504 218.636 95.3647C218.737 91.6752 218.832 87.9364 217.984 84.3444C217.6 82.7227 217.004 81.1071 215.911 79.8493C215.335 79.1869 213.382 77.4423 212.437 78.1843C212.012 78.5179 212.111 79.4263 212.044 79.8862C211.942 80.6133 211.73 81.3206 211.415 81.9838Z" fill="white"/>
<path d="M251.896 78.0757C252.158 79.0536 252.271 80.0659 252.229 81.0776C252.242 83.1398 252.215 85.2017 252.147 87.2634C252.158 88.3208 252.022 89.3745 251.746 90.3951C251.534 91.0587 251.209 91.6811 250.991 92.3425C250.338 94.3248 250.695 96.4747 250.751 98.5611C250.79 99.2363 250.732 99.9138 250.579 100.573C250.235 101.866 249.308 102.911 248.662 104.083C248.048 105.196 247.677 106.444 246.944 107.482C246.21 108.52 244.941 109.343 243.71 109.024C242.778 108.783 242.115 107.958 241.657 107.11C240.657 105.248 240.315 103.102 240.686 101.021C241.146 98.4885 242.634 96.242 243.17 93.7249C243.907 90.2682 242.787 86.7013 242.82 83.1672C242.805 82.6132 242.88 82.0604 243.043 81.5306C243.324 80.7233 243.929 80.0787 244.487 79.4313C245.184 78.6222 245.832 77.7717 246.427 76.8844C246.827 76.2883 247.37 74.7552 248.079 74.6278C249.661 74.3432 251.503 76.8535 251.896 78.0757Z" fill="white"/>
<path d="M203.206 112.53C202.332 112.31 201.43 112.214 200.529 112.245C199.581 112.298 198.656 112.551 197.815 112.989C196.973 113.426 196.234 114.038 195.647 114.783C195.06 115.529 194.639 116.39 194.41 117.311C194.182 118.232 194.153 119.191 194.324 120.124C194.542 121.135 194.899 122.11 195.385 123.023C196.095 124.464 196.947 125.902 198.262 126.826C199.054 127.334 199.907 127.74 200.8 128.034L207.724 130.643C208.743 131.026 209.761 131.41 210.79 131.766C215.958 133.552 221.346 134.623 226.804 134.95C228.465 135.105 230.14 135.02 231.777 134.698C232.172 134.646 232.535 134.45 232.795 134.147C232.927 133.918 233.005 133.661 233.022 133.396L233.449 130.413C233.544 129.998 233.531 129.565 233.412 129.156C233.217 128.655 232.728 128.339 232.261 128.071C227.709 125.457 222.394 124.014 218.563 120.426C217.661 119.581 216.906 118.242 215.81 117.669C214.567 117.018 213.104 116.647 211.819 116.047C209.011 114.736 206.25 113.23 203.206 112.53Z" fill="#2F2E41"/>
<path opacity="0.1" d="M210.119 116.551C212.566 117.318 222.899 122.631 224.67 124.486C224.433 124.571 216.378 120.058 216.137 119.985C213.921 119.377 211.752 118.612 209.644 117.697C209.224 117.503 206.918 116.591 207.022 116.061C207.14 115.463 209.685 116.415 210.119 116.551Z" fill="black"/>
<path d="M240.651 136.497C240.79 136.507 240.928 136.466 241.039 136.382C241.088 136.32 241.124 136.248 241.145 136.171C241.165 136.095 241.171 136.015 241.16 135.936L241.149 131.872C239.98 131.316 238.673 131.137 237.39 130.966L231.404 130.166C231.542 130.184 230.468 132.744 230.633 133.086C230.923 133.688 233.14 134.222 233.766 134.506C235.941 135.495 238.201 136.582 240.651 136.497Z" fill="#A0616A"/>
<path d="M221.87 131.859C220.74 132.039 219.479 132.198 218.747 133.077C217.818 134.193 218.214 135.856 218.656 137.239C218.683 137.417 218.746 137.588 218.84 137.742C218.934 137.896 219.059 138.029 219.205 138.134C219.352 138.239 219.518 138.313 219.694 138.353C219.87 138.393 220.053 138.396 220.23 138.364C221.261 138.43 222.358 138.481 223.258 137.975C223.666 137.706 224.059 137.414 224.435 137.101C225.099 136.659 225.829 136.325 226.598 136.112C228.011 135.667 229.465 135.368 230.939 135.217C231.52 135.191 232.095 135.089 232.65 134.916C232.927 134.826 233.179 134.674 233.388 134.472C233.597 134.269 233.757 134.021 233.854 133.746C234.063 133.008 233.633 132.255 233.222 131.607C232.747 130.759 232.132 129.998 231.401 129.357C230.286 128.491 229.734 129.156 228.611 129.71C226.484 130.76 224.212 131.484 221.87 131.859Z" fill="#A0616A"/>
<path d="M218.916 132.876L211.74 130.755C210.879 130.455 209.979 130.281 209.069 130.238C208.613 130.219 208.159 130.298 207.736 130.469C207.313 130.64 206.931 130.899 206.616 131.229C206.06 131.883 205.901 132.775 205.762 133.622L205.465 135.433C205.267 136.346 205.211 137.285 205.299 138.215C205.347 138.68 205.5 139.128 205.747 139.525C205.994 139.922 206.328 140.258 206.725 140.506C207.718 141.048 208.935 140.784 210.043 140.557C212.282 140.099 214.559 139.855 216.844 139.828C217.703 139.817 218.604 139.828 219.363 139.426C219.804 139.165 220.174 138.8 220.441 138.363C220.709 137.926 220.866 137.431 220.898 136.92C221.039 135.372 220.524 133.351 218.916 132.876Z" fill="#2F2E41"/>
<path d="M243.472 131.028C244.403 130.865 245.224 130.336 246.115 130.024C247.37 129.585 248.73 129.585 250.059 129.59C250.548 129.545 251.039 129.643 251.473 129.873C252.059 130.263 252.209 131.043 252.308 131.739L252.909 135.941C253.07 136.725 253.087 137.532 252.958 138.321C252.782 139.1 252.251 139.851 251.479 140.052C250.54 140.296 249.62 139.696 248.734 139.302C246.52 138.318 243.945 138.57 241.636 137.834C241.415 137.79 241.206 137.699 241.023 137.568C240.84 137.437 240.687 137.269 240.574 137.074C240.495 136.841 240.467 136.593 240.491 136.348C240.531 134.998 240.246 133.153 240.652 131.863C241.018 130.702 242.434 131.028 243.472 131.028Z" fill="#2F2E41"/>
<path d="M258.66 110.839C260.093 110.48 261.58 110.378 263.05 110.539C264.223 110.668 265.432 110.995 266.289 111.807C267.332 112.796 267.667 114.325 267.695 115.762C267.741 118.624 266.792 121.413 265.01 123.653C264.575 124.219 264.057 124.717 263.475 125.131C262.846 125.524 262.176 125.847 261.477 126.093L245.971 132.209C241.892 133.818 237.798 135.432 233.543 136.493C233.427 136.549 233.3 136.581 233.171 136.588C233.042 136.594 232.913 136.575 232.792 136.531C232.67 136.487 232.559 136.419 232.464 136.331C232.369 136.244 232.293 136.138 232.24 136.02C230.881 134.08 229.741 131.995 228.841 129.803C228.799 129.751 228.769 129.69 228.755 129.624C228.742 129.558 228.744 129.49 228.762 129.425C228.78 129.36 228.814 129.301 228.86 129.252C228.906 129.203 228.963 129.165 229.026 129.143L239.994 122.841C240.798 122.422 241.548 121.905 242.226 121.303C242.7 120.844 243.088 120.304 243.372 119.708C243.6 119.233 243.621 118.112 243.911 117.761C244.196 117.418 245.168 117.39 245.617 117.255C246.251 117.061 246.871 116.826 247.475 116.553C249.928 115.455 252.113 113.861 254.465 112.576C255.784 111.821 257.193 111.238 258.66 110.839Z" fill="#2F2E41"/>
<path opacity="0.1" d="M252.442 115.545C250.558 116.96 248.118 118.261 246.25 119.713C245.613 120.209 234.988 126.182 234.838 126.976C236.58 127.269 247.679 119.505 249.266 118.73C250.854 117.956 252.262 116.863 253.657 115.779C254.012 115.502 255.519 114.671 254.498 114.363C253.924 114.189 252.866 115.262 252.442 115.545Z" fill="black"/>
<path d="M239.477 69.4282H222.937C222.265 69.4282 221.62 69.6952 221.145 70.1703C220.67 70.6455 220.403 71.29 220.403 71.962V72.8898H220.223V74.9648H220.403V76.4173H220.223V77.6623H220.403V92.9728C220.403 93.6448 220.67 94.2893 221.145 94.7644C221.62 95.2396 222.265 95.5065 222.937 95.5065H239.477C240.149 95.5065 240.793 95.2396 241.268 94.7644C241.744 94.2893 242.011 93.6448 242.011 92.9728V71.962C242.011 71.29 241.744 70.6455 241.268 70.1703C240.793 69.6952 240.149 69.4282 239.477 69.4282Z" fill="#D0CDE1"/>
<path d="M242.106 49.8574L233.716 45.4629L222.131 47.2607L219.734 57.847L225.701 57.6173L227.368 53.7281V57.5535L230.121 57.4476L231.719 51.2553L232.718 57.847L242.505 57.6471L242.106 49.8574Z" fill="#2F2E41"/>
<path d="M213.61 109.468C213.99 110.113 214.529 110.65 215.176 111.026C215.601 111.22 216.064 111.314 216.531 111.301C216.997 111.289 217.455 111.17 217.868 110.954C218.694 110.511 219.37 109.833 219.811 109.006C220.723 107.396 220.911 105.469 220.798 103.623C220.684 101.776 220.289 99.9575 220.115 98.1156C219.988 96.7766 219.978 95.4296 219.968 94.0847C219.936 93.8018 219.995 93.5163 220.137 93.2695C220.381 93.0271 220.696 92.8696 221.036 92.8204C222.876 92.2736 224.098 90.5489 224.973 88.8407C225.558 87.7001 226.067 86.4532 225.954 85.1764C225.841 83.8996 224.923 82.6133 223.648 82.4831C222.597 82.3757 221.626 83.0434 220.868 83.7794C218.955 85.6475 217.726 88.1045 217.377 90.7555C217.211 92.0538 217.258 93.3873 216.905 94.6476C216.151 97.3386 213.792 98.9885 212.617 101.41C211.322 104.078 212.036 107.107 213.61 109.468Z" fill="#A0616A"/>
<path d="M248.324 99.1871C248.055 99.8112 247.665 100.375 247.175 100.846C246.685 101.317 246.106 101.684 245.472 101.927C244.683 102.244 243.814 102.297 242.992 102.079C242.585 101.966 242.209 101.761 241.894 101.479C241.579 101.198 241.334 100.847 241.176 100.455C241.05 100.06 240.982 99.6489 240.972 99.2346C240.854 97.4199 240.899 95.5499 241.558 93.855C241.813 93.2013 242.155 92.5813 242.356 91.9092C242.553 91.133 242.654 90.3354 242.656 89.5346L242.873 84.5831C242.909 84.2237 242.884 83.8608 242.8 83.5095C242.583 82.7931 241.914 82.3275 241.299 81.9003C239.816 80.8684 238.349 79.6643 237.63 78.0062C237.383 77.507 237.295 76.9442 237.377 76.3933C237.58 75.4101 238.572 74.7735 239.553 74.5591C240.194 74.4188 240.858 74.4098 241.503 74.5328C242.148 74.6557 242.762 74.908 243.307 75.2744C243.852 75.6408 244.318 76.1138 244.675 76.6649C245.032 77.2159 245.275 77.8337 245.387 78.4808C245.484 79.0396 245.483 79.6104 245.54 80.1747C245.66 81.3717 246.04 82.5255 246.278 83.7048C246.863 86.6097 246.56 89.6126 247.139 92.517C247.623 94.9454 249.449 96.53 248.324 99.1871Z" fill="#A0616A"/>
<path d="M231.428 80.5675C232.574 80.5675 233.503 79.6385 233.503 78.4925C233.503 77.3465 232.574 76.4175 231.428 76.4175C230.282 76.4175 229.353 77.3465 229.353 78.4925C229.353 79.6385 230.282 80.5675 231.428 80.5675Z" fill="#F97316"/>
<path d="M6.12147 153.068C9.50199 153.068 12.2424 150.328 12.2424 146.947C12.2424 143.567 9.50199 140.826 6.12147 140.826C2.74094 140.826 0.000488281 143.567 0.000488281 146.947C0.000488281 150.328 2.74094 153.068 6.12147 153.068Z" fill="#2F2E41"/>
<path d="M28.3091 165.118L25.226 162.122L19.0352 164.045L19.6298 171.213L32.3591 170.622L28.4486 165.308L28.3091 165.118Z" fill="#FBBEBE"/>
<path d="M21.5664 165.057C27.0317 165.057 31.4623 160.626 31.4623 155.161C31.4623 149.695 27.0317 145.265 21.5664 145.265C16.101 145.265 11.6704 149.695 11.6704 155.161C11.6704 160.626 16.101 165.057 21.5664 165.057Z" fill="#FBBEBE"/>
<path d="M83.0006 177.82C83.0006 177.82 95.158 198.712 98.0513 201.849C99.4273 203.393 100.893 204.854 102.441 206.224C102.441 206.224 101.081 210.736 98.9147 210.575C97.6799 210.501 96.469 210.202 95.3411 209.694C95.3411 209.694 94.3742 207.188 92.6877 206.089C91.0011 204.99 77.2221 191.434 77.5441 187.101C77.8662 182.769 83.0006 177.82 83.0006 177.82Z" fill="#2F2E41"/>
<path d="M39.7046 207.634C39.7046 207.634 52.6671 217.696 70.2835 208.242L71.8017 207.125C71.8017 207.125 69.2397 212.888 69.0019 214.451C68.7263 216.263 62.056 226.876 60.9675 227.384C59.879 227.893 59.6391 228.362 59.6391 228.362L64.2584 233.446L65.9664 232.189C65.9664 232.189 72.626 222.754 74.5738 221.028C76.5216 219.302 85.8018 201.502 85.8018 201.502C85.8018 201.502 89.35 194.795 80.4949 194.291C71.6399 193.787 67.5652 196.2 67.5652 196.2L51.8498 198.697L39.7046 207.634Z" fill="#2F2E41"/>
<path d="M102.592 205.236L109.149 209.773C109.149 209.773 117.513 212.393 112.361 214.137C107.208 215.881 93.6303 216.512 93.3222 214.106C93.0142 211.7 93.8578 207.913 94.5351 208.12C95.2125 208.327 99.914 209.548 102.592 205.236Z" fill="#2F2E41"/>
<path d="M66.5469 230.631L67.7604 237.295C67.7604 237.295 71.211 243.894 67.068 241.847C62.9249 239.799 54.3892 232.021 55.6496 230.391C56.9101 228.76 59.692 226.992 59.9746 227.523C60.2571 228.054 62.3481 231.612 66.5469 230.631Z" fill="#2F2E41"/>
<path d="M54.0449 200.884C54.0449 200.884 45.2333 211.172 39.8837 208.673C34.534 206.174 12.6477 177.229 15.1467 171.879C17.6458 166.53 18.4837 167.668 18.4837 167.668L29.7843 168.713L26.5328 163.5C26.5328 163.5 28.051 162.383 29.4976 163.951C30.9443 165.519 36.7523 169.436 38.7757 174.968C40.799 180.5 46.7393 180.224 46.7393 180.224L54.0449 200.884Z" fill="white"/>
<path d="M89.6288 179.671L74.3544 195.885L60.6714 171.727L73.6793 156.01L89.6288 179.671Z" fill="#3F3D56"/>
<path d="M88.4761 179.496L74.6804 193.744L62.1792 171.788L73.6439 157.354L88.4761 179.496Z" fill="white"/>
<path d="M73.6058 195.266L74.3542 195.885L73.8743 196.823L52.5159 203.18L52.314 202.448L53.2857 201.443L73.6058 195.266Z" fill="#B3B3B3"/>
<path d="M74.544 195.745L52.4268 202.66L38.9443 177.184L60.6713 171.727L74.544 195.745Z" fill="#D0CDE1"/>
<path d="M72.8793 192.29L71.9303 192.988L61.3989 174.702L62.4874 174.194L72.8793 192.29Z" fill="#3F3D56"/>
<path d="M70.7017 193.307L61.3456 196.096L50.7246 177.291L59.9806 175.161L70.7017 193.307Z" fill="#3F3D56"/>
<path d="M44.344 179.354L46.2811 178.806C46.2811 178.806 57.0839 177.585 57.2416 180.979C57.3994 184.374 44.8311 182.799 44.8311 182.799L43.1553 180.522L44.344 179.354Z" fill="#FBBEBE"/>
<path d="M53.8193 194.615L56.5155 193.508C56.5155 193.508 64.6542 189.859 62.3195 187.481C59.9848 185.104 52.7843 189.233 52.7843 189.233L51.4058 190.54L53.8193 194.615Z" fill="#FBBEBE"/>
<path d="M51.4165 189.362C51.4165 189.362 55.8066 193.737 54.8076 194.765C53.8086 195.793 37.4277 209.311 33.367 204.985C29.3064 200.66 9.52216 178.944 17.2205 177.082C24.9189 175.22 26.9529 179.574 26.9529 179.574L37.1156 196.961L51.4165 189.362Z" fill="white"/>
<path d="M38.271 176.071L45.4824 178.516L45.3646 183.722L37.7378 182.899L38.271 176.071Z" fill="white"/>
<path opacity="0.2" d="M44.7709 192.059L37.0012 196.606L28.124 182.954L36.693 194.2L44.7709 192.059Z" fill="black"/>
<path d="M17.2228 164.073C23.7292 164.073 29.0037 158.799 29.0037 152.292C29.0037 145.786 23.7292 140.511 17.2228 140.511C10.7164 140.511 5.44189 145.786 5.44189 152.292C5.44189 158.799 10.7164 164.073 17.2228 164.073Z" fill="#2F2E41"/>
<path d="M80.8774 180.699L72.6284 168.632L76.1252 164.303L84.6966 176.718L80.8774 180.699Z" fill="#F97316"/>
<path d="M80.6452 185.551L68.0869 167.294L68.7063 166.545L81.2058 184.846L80.6452 185.551Z" fill="#E6E6E6"/>
<path d="M79.027 187.327L66.4688 169.07L67.0881 168.321L79.5877 186.622L79.027 187.327Z" fill="#E6E6E6"/>
<path d="M77.6481 188.634L65.0898 170.377L65.7092 169.628L78.2088 187.929L77.6481 188.634Z" fill="#E6E6E6"/>
<path d="M22.4395 144.427H26.0839C27.9291 144.427 29.6988 145.16 31.0035 146.465C32.3083 147.77 33.0413 149.539 33.0413 151.385H22.4395V144.427Z" fill="#2F2E41"/>
<path d="M72.6407 139.999L71.98 139.95C71.9544 140.294 71.9361 140.639 71.9143 140.984L68.9487 140.885L72.0595 146.714L75.5531 141.106L72.5767 141.006C72.598 140.671 72.6158 140.334 72.6407 139.999Z" fill="#3F3D56"/>
<path d="M90.0347 92.4843L90.5614 92.8865C91.3515 91.8517 92.1767 90.8186 93.0142 89.8159L92.5056 89.3911C91.6619 90.4012 90.8306 91.4419 90.0347 92.4843Z" fill="#3F3D56"/>
<path d="M95.1104 86.4099L95.5995 86.8567C96.4786 85.894 97.3913 84.9379 98.312 84.0147L97.8428 83.5469C96.9152 84.4767 95.9959 85.4401 95.1104 86.4099Z" fill="#3F3D56"/>
<path d="M100.698 80.8066L101.146 81.2949C102.108 80.4121 103.1 79.5401 104.097 78.7031L103.67 78.1958C102.667 79.0389 101.667 79.9175 100.698 80.8066Z" fill="#3F3D56"/>
<path d="M85.5122 98.9847L86.0723 99.3387C86.7687 98.2368 87.5001 97.1347 88.2458 96.0626L87.702 95.6841C86.9505 96.7642 86.2138 97.8746 85.5122 98.9847Z" fill="#3F3D56"/>
<path d="M106.754 75.7188L107.157 76.2442C108.193 75.4493 109.258 74.6682 110.323 73.9228L109.943 73.3799C108.87 74.131 107.797 74.9178 106.754 75.7188Z" fill="#3F3D56"/>
<path d="M81.5801 105.862L82.1693 106.165C82.7662 105.004 83.3974 103.841 84.0453 102.708L83.4701 102.379C82.8173 103.52 82.1814 104.692 81.5801 105.862Z" fill="#3F3D56"/>
<path d="M75.1891 124.513L74.5476 124.348C74.2201 125.62 73.917 126.916 73.6465 128.202L74.2949 128.338C74.5634 127.062 74.8643 125.775 75.1891 124.513Z" fill="#3F3D56"/>
<path d="M113.231 71.1844L113.587 71.7435C114.685 71.0447 115.814 70.3608 116.943 69.711L116.613 69.1367C115.475 69.7916 114.338 70.4804 113.231 71.1844Z" fill="#3F3D56"/>
<path d="M73.5716 132.199L72.9177 132.092C72.7049 133.385 72.5181 134.703 72.3623 136.01L73.0204 136.088C73.1749 134.792 73.3604 133.483 73.5716 132.199Z" fill="#3F3D56"/>
<path d="M78.2729 113.065L78.8867 113.315C79.378 112.105 79.9036 110.89 80.4488 109.703L79.8467 109.426C79.2973 110.623 78.7678 111.847 78.2729 113.065Z" fill="#3F3D56"/>
<path d="M75.6187 120.539L76.2525 120.732C76.6346 119.482 77.0498 118.224 77.4868 116.994L76.8623 116.772C76.4222 118.012 76.0037 119.279 75.6187 120.539Z" fill="#3F3D56"/>
<path d="M158.054 57.9773C159.353 57.9323 160.676 57.9143 161.984 57.9266L161.99 57.264C160.673 57.2517 159.34 57.2697 158.032 57.315L158.054 57.9773Z" fill="#3F3D56"/>
<path d="M120.081 67.2416L120.385 67.8298C121.543 67.2303 122.727 66.6494 123.906 66.1031L123.628 65.502C122.44 66.0523 121.246 66.6376 120.081 67.2416Z" fill="#3F3D56"/>
<path d="M173.734 58.8036C175.026 58.9866 176.331 59.2008 177.611 59.4403L177.733 58.789C176.443 58.5477 175.129 58.3317 173.826 58.1475L173.734 58.8036Z" fill="#3F3D56"/>
<path d="M181.457 60.2487C182.726 60.545 184.007 60.8744 185.263 61.2275L185.442 60.5895C184.176 60.2338 182.886 59.9021 181.608 59.6035L181.457 60.2487Z" fill="#3F3D56"/>
<path d="M189.02 62.3749C190.257 62.783 191.503 63.225 192.722 63.6886L192.958 63.0694C191.729 62.6022 190.474 62.1568 189.227 61.7456L189.02 62.3749Z" fill="#3F3D56"/>
<path d="M165.913 58.0474C167.218 58.1158 168.536 58.2142 169.832 58.3394L169.896 57.68C168.591 57.5537 167.262 57.4546 165.948 57.3857L165.913 58.0474Z" fill="#3F3D56"/>
<path d="M150.144 57.9351L150.224 58.5928C151.516 58.434 152.831 58.3015 154.132 58.1992L154.08 57.5386C152.769 57.6416 151.444 57.7751 150.144 57.9351Z" fill="#3F3D56"/>
<path d="M134.686 61.2502L134.882 61.8831C136.127 61.4976 137.398 61.1349 138.659 60.805L138.491 60.1641C137.221 60.4962 135.94 60.8616 134.686 61.2502Z" fill="#3F3D56"/>
<path d="M127.247 63.9215L127.499 64.5346C128.703 64.0403 129.934 63.5671 131.156 63.1279L130.932 62.5044C129.701 62.9467 128.461 63.4236 127.247 63.9215Z" fill="#3F3D56"/>
<path d="M142.341 59.2482L142.48 59.8963C143.753 59.6234 145.051 59.3751 146.338 59.1584L146.228 58.5049C144.931 58.7233 143.624 58.9734 142.341 59.2482Z" fill="#3F3D56"/>
<path d="M202.61 67.7857L198.907 62.3135L197.605 64.9935C197.289 64.8528 196.976 64.709 196.661 64.5727L196.398 65.181C196.705 65.314 197.009 65.4535 197.315 65.5899L196.019 68.2572L202.61 67.7857Z" fill="#3F3D56"/>
</g>
<defs>
<clipPath id="clip0_95_3049">
<rect width="300" height="242.241" fill="white"/>
</clipPath>
</defs>
</svg>
